<?xml version="1.0" standalone="no"?>
<svg xmlns="http://www.w3.org/2000/svg" width="500" height="500"><defs><clipPath id="clip-path-dot-color"><circle cx="34" cy="142" r="6" transform="rotate(0,34,142)"/><circle cx="34" cy="154" r="6" transform="rotate(0,34,154)"/><circle cx="34" cy="178" r="6" transform="rotate(0,34,178)"/><circle cx="34" cy="190" r="6" transform="rotate(0,34,190)"/><circle cx="34" cy="226" r="6" transform="rotate(0,34,226)"/><circle cx="34" cy="238" r="6" transform="rotate(0,34,238)"/><circle cx="34" cy="286" r="6" transform="rotate(0,34,286)"/><circle cx="34" cy="334" r="6" transform="rotate(0,34,334)"/><circle cx="34" cy="346" r="6" transform="rotate(0,34,346)"/><circle cx="34" cy="358" r="6" transform="rotate(0,34,358)"/><circle cx="34" cy="370" r="6" transform="rotate(0,34,370)"/><circle cx="46" cy="202" r="6" transform="rotate(0,46,202)"/><circle cx="46" cy="214" r="6" transform="rotate(0,46,214)"/><circle cx="46" cy="226" r="6" transform="rotate(0,46,226)"/><circle cx="46" cy="238" r="6" transform="rotate(0,46,238)"/><circle cx="46" cy="262" r="6" transform="rotate(0,46,262)"/><circle cx="46" cy="274" r="6" transform="rotate(0,46,274)"/><circle cx="46" cy="298" r="6" transform="rotate(0,46,298)"/><circle cx="46" cy="310" r="6" transform="rotate(0,46,310)"/><circle cx="46" cy="322" r="6" transform="rotate(0,46,322)"/><circle cx="46" cy="334" r="6" transform="rotate(0,46,334)"/><circle cx="58" cy="130" r="6" transform="rotate(0,58,130)"/><circle cx="58" cy="178" r="6" transform="rotate(0,58,178)"/><circle cx="58" cy="190" r="6" transform="rotate(0,58,190)"/><circle cx="58" cy="214" r="6" transform="rotate(0,58,214)"/><circle cx="58" cy="238" r="6" transform="rotate(0,58,238)"/><circle cx="58" cy="262" r="6" transform="rotate(0,58,262)"/><circle cx="58" cy="274" r="6" transform="rotate(0,58,274)"/><circle cx="58" cy="286" r="6" transform="rotate(0,58,286)"/><circle cx="58" cy="298" r="6" transform="rotate(0,58,298)"/><circle cx="58" cy="322" r="6" transform="rotate(0,58,322)"/><circle cx="58" cy="346" r="6" transform="rotate(0,58,346)"/><circle cx="58" cy="370" r="6" transform="rotate(0,58,370)"/><circle cx="70" cy="142" r="6" transform="rotate(0,70,142)"/><circle cx="70" cy="154" r="6" transform="rotate(0,70,154)"/><circle cx="70" cy="190" r="6" transform="rotate(0,70,190)"/><circle cx="70" cy="202" r="6" transform="rotate(0,70,202)"/><circle cx="70" cy="262" r="6" transform="rotate(0,70,262)"/><circle cx="70" cy="334" r="6" transform="rotate(0,70,334)"/><circle cx="70" cy="370" r="6" transform="rotate(0,70,370)"/><circle cx="82" cy="130" r="6" transform="rotate(0,82,130)"/><circle cx="82" cy="142" r="6" transform="rotate(0,82,142)"/><circle cx="82" cy="154" r="6" transform="rotate(0,82,154)"/><circle cx="82" cy="166" r="6" transform="rotate(0,82,166)"/><circle cx="82" cy="178" r="6" transform="rotate(0,82,178)"/><circle cx="82" cy="238" r="6" transform="rotate(0,82,238)"/><circle cx="82" cy="262" r="6" transform="rotate(0,82,262)"/><circle cx="82" cy="274" r="6" transform="rotate(0,82,274)"/><circle cx="82" cy="286" r="6" transform="rotate(0,82,286)"/><circle cx="82" cy="310" r="6" transform="rotate(0,82,310)"/><circle cx="82" cy="346" r="6" transform="rotate(0,82,346)"/><circle cx="82" cy="358" r="6" transform="rotate(0,82,358)"/><circle cx="94" cy="130" r="6" transform="rotate(0,94,130)"/><circle cx="94" cy="142" r="6" transform="rotate(0,94,142)"/><circle cx="94" cy="154" r="6" transform="rotate(0,94,154)"/><circle cx="94" cy="166" r="6" transform="rotate(0,94,166)"/><circle cx="94" cy="178" r="6" transform="rotate(0,94,178)"/><circle cx="94" cy="190" r="6" transform="rotate(0,94,190)"/><circle cx="94" cy="202" r="6" transform="rotate(0,94,202)"/><circle cx="94" cy="214" r="6" transform="rotate(0,94,214)"/><circle cx="94" cy="226" r="6" transform="rotate(0,94,226)"/><circle cx="94" cy="238" r="6" transform="rotate(0,94,238)"/><circle cx="94" cy="250" r="6" transform="rotate(0,94,250)"/><circle cx="94" cy="286" r="6" transform="rotate(0,94,286)"/><circle cx="94" cy="298" r="6" transform="rotate(0,94,298)"/><circle cx="94" cy="322" r="6" transform="rotate(0,94,322)"/><circle cx="94" cy="370" r="6" transform="rotate(0,94,370)"/><circle cx="106" cy="130" r="6" transform="rotate(0,106,130)"/><circle cx="106" cy="154" r="6" transform="rotate(0,106,154)"/><circle cx="106" cy="178" r="6" transform="rotate(0,106,178)"/><circle cx="106" cy="202" r="6" transform="rotate(0,106,202)"/><circle cx="106" cy="226" r="6" transform="rotate(0,106,226)"/><circle cx="106" cy="250" r="6" transform="rotate(0,106,250)"/><circle cx="106" cy="274" r="6" transform="rotate(0,106,274)"/><circle cx="106" cy="298" r="6" transform="rotate(0,106,298)"/><circle cx="106" cy="322" r="6" transform="rotate(0,106,322)"/><circle cx="106" cy="346" r="6" transform="rotate(0,106,346)"/><circle cx="106" cy="370" r="6" transform="rotate(0,106,370)"/><circle cx="118" cy="142" r="6" transform="rotate(0,118,142)"/><circle cx="118" cy="178" r="6" transform="rotate(0,118,178)"/><circle cx="118" cy="202" r="6" transform="rotate(0,118,202)"/><circle cx="118" cy="226" r="6" transform="rotate(0,118,226)"/><circle cx="118" cy="238" r="6" transform="rotate(0,118,238)"/><circle cx="118" cy="262" r="6" transform="rotate(0,118,262)"/><circle cx="118" cy="286" r="6" transform="rotate(0,118,286)"/><circle cx="118" cy="322" r="6" transform="rotate(0,118,322)"/><circle cx="118" cy="334" r="6" transform="rotate(0,118,334)"/><circle cx="130" cy="46" r="6" transform="rotate(0,130,46)"/><circle cx="130" cy="82" r="6" transform="rotate(0,130,82)"/><circle cx="130" cy="106" r="6" transform="rotate(0,130,106)"/><circle cx="130" cy="130" r="6" transform="rotate(0,130,130)"/><circle cx="130" cy="142" r="6" transform="rotate(0,130,142)"/><circle cx="130" cy="154" r="6" transform="rotate(0,130,154)"/><circle cx="130" cy="166" r="6" transform="rotate(0,130,166)"/><circle cx="130" cy="190" r="6" transform="rotate(0,130,190)"/><circle cx="130" cy="262" r="6" transform="rotate(0,130,262)"/><circle cx="130" cy="274" r="6" transform="rotate(0,130,274)"/><circle cx="130" cy="286" r="6" transform="rotate(0,130,286)"/><circle cx="130" cy="298" r="6" transform="rotate(0,130,298)"/><circle cx="130" cy="322" r="6" transform="rotate(0,130,322)"/><circle cx="130" cy="334" r="6" transform="rotate(0,130,334)"/><circle cx="130" cy="358" r="6" transform="rotate(0,130,358)"/><circle cx="130" cy="382" r="6" transform="rotate(0,130,382)"/><circle cx="130" cy="406" r="6" transform="rotate(0,130,406)"/><circle cx="130" cy="418" r="6" transform="rotate(0,130,418)"/><circle cx="130" cy="442" r="6" transform="rotate(0,130,442)"/><circle cx="142" cy="58" r="6" transform="rotate(0,142,58)"/><circle cx="142" cy="70" r="6" transform="rotate(0,142,70)"/><circle cx="142" cy="82" r="6" transform="rotate(0,142,82)"/><circle cx="142" cy="94" r="6" transform="rotate(0,142,94)"/><circle cx="142" cy="118" r="6" transform="rotate(0,142,118)"/><circle cx="142" cy="166" r="6" transform="rotate(0,142,166)"/><circle cx="142" cy="190" r="6" transform="rotate(0,142,190)"/><circle cx="142" cy="202" r="6" transform="rotate(0,142,202)"/><circle cx="142" cy="214" r="6" transform="rotate(0,142,214)"/><circle cx="142" cy="226" r="6" transform="rotate(0,142,226)"/><circle cx="142" cy="238" r="6" transform="rotate(0,142,238)"/><circle cx="142" cy="250" r="6" transform="rotate(0,142,250)"/><circle cx="142" cy="262" r="6" transform="rotate(0,142,262)"/><circle cx="142" cy="310" r="6" transform="rotate(0,142,310)"/><circle cx="142" cy="322" r="6" transform="rotate(0,142,322)"/><circle cx="142" cy="346" r="6" transform="rotate(0,142,346)"/><circle cx="142" cy="418" r="6" transform="rotate(0,142,418)"/><circle cx="142" cy="430" r="6" transform="rotate(0,142,430)"/><circle cx="154" cy="34" r="6" transform="rotate(0,154,34)"/><circle cx="154" cy="46" r="6" transform="rotate(0,154,46)"/><circle cx="154" cy="58" r="6" transform="rotate(0,154,58)"/><circle cx="154" cy="70" r="6" transform="rotate(0,154,70)"/><circle cx="154" cy="106" r="6" transform="rotate(0,154,106)"/><circle cx="154" cy="130" r="6" transform="rotate(0,154,130)"/><circle cx="154" cy="178" r="6" transform="rotate(0,154,178)"/><circle cx="154" cy="214" r="6" transform="rotate(0,154,214)"/><circle cx="154" cy="226" r="6" transform="rotate(0,154,226)"/><circle cx="154" cy="238" r="6" transform="rotate(0,154,238)"/><circle cx="154" cy="262" r="6" transform="rotate(0,154,262)"/><circle cx="154" cy="286" r="6" transform="rotate(0,154,286)"/><circle cx="154" cy="310" r="6" transform="rotate(0,154,310)"/><circle cx="154" cy="322" r="6" transform="rotate(0,154,322)"/><circle cx="154" cy="334" r="6" transform="rotate(0,154,334)"/><circle cx="154" cy="346" r="6" transform="rotate(0,154,346)"/><circle cx="154" cy="358" r="6" transform="rotate(0,154,358)"/><circle cx="154" cy="382" r="6" transform="rotate(0,154,382)"/><circle cx="154" cy="406" r="6" transform="rotate(0,154,406)"/><circle cx="154" cy="442" r="6" transform="rotate(0,154,442)"/><circle cx="166" cy="34" r="6" transform="rotate(0,166,34)"/><circle cx="166" cy="70" r="6" transform="rotate(0,166,70)"/><circle cx="166" cy="82" r="6" transform="rotate(0,166,82)"/><circle cx="166" cy="94" r="6" transform="rotate(0,166,94)"/><circle cx="166" cy="130" r="6" transform="rotate(0,166,130)"/><circle cx="166" cy="166" r="6" transform="rotate(0,166,166)"/><circle cx="166" cy="178" r="6" transform="rotate(0,166,178)"/><circle cx="166" cy="190" r="6" transform="rotate(0,166,190)"/><circle cx="166" cy="202" r="6" transform="rotate(0,166,202)"/><circle cx="166" cy="214" r="6" transform="rotate(0,166,214)"/><circle cx="166" cy="226" r="6" transform="rotate(0,166,226)"/><circle cx="166" cy="238" r="6" transform="rotate(0,166,238)"/><circle cx="166" cy="286" r="6" transform="rotate(0,166,286)"/><circle cx="166" cy="346" r="6" transform="rotate(0,166,346)"/><circle cx="166" cy="382" r="6" transform="rotate(0,166,382)"/><circle cx="166" cy="442" r="6" transform="rotate(0,166,442)"/><circle cx="166" cy="454" r="6" transform="rotate(0,166,454)"/><circle cx="178" cy="34" r="6" transform="rotate(0,178,34)"/><circle cx="178" cy="106" r="6" transform="rotate(0,178,106)"/><circle cx="178" cy="190" r="6" transform="rotate(0,178,190)"/><circle cx="178" cy="202" r="6" transform="rotate(0,178,202)"/><circle cx="178" cy="274" r="6" transform="rotate(0,178,274)"/><circle cx="178" cy="286" r="6" transform="rotate(0,178,286)"/><circle cx="178" cy="298" r="6" transform="rotate(0,178,298)"/><circle cx="178" cy="322" r="6" transform="rotate(0,178,322)"/><circle cx="178" cy="358" r="6" transform="rotate(0,178,358)"/><circle cx="178" cy="382" r="6" transform="rotate(0,178,382)"/><circle cx="178" cy="394" r="6" transform="rotate(0,178,394)"/><circle cx="178" cy="406" r="6" transform="rotate(0,178,406)"/><circle cx="178" cy="430" r="6" transform="rotate(0,178,430)"/><circle cx="178" cy="442" r="6" transform="rotate(0,178,442)"/><circle cx="178" cy="466" r="6" transform="rotate(0,178,466)"/><circle cx="190" cy="82" r="6" transform="rotate(0,190,82)"/><circle cx="190" cy="130" r="6" transform="rotate(0,190,130)"/><circle cx="190" cy="142" r="6" transform="rotate(0,190,142)"/><circle cx="190" cy="154" r="6" transform="rotate(0,190,154)"/><circle cx="190" cy="166" r="6" transform="rotate(0,190,166)"/><circle cx="190" cy="178" r="6" transform="rotate(0,190,178)"/><circle cx="190" cy="190" r="6" transform="rotate(0,190,190)"/><circle cx="190" cy="214" r="6" transform="rotate(0,190,214)"/><circle cx="190" cy="226" r="6" transform="rotate(0,190,226)"/><circle cx="190" cy="250" r="6" transform="rotate(0,190,250)"/><circle cx="190" cy="262" r="6" transform="rotate(0,190,262)"/><circle cx="190" cy="298" r="6" transform="rotate(0,190,298)"/><circle cx="190" cy="310" r="6" transform="rotate(0,190,310)"/><circle cx="190" cy="334" r="6" transform="rotate(0,190,334)"/><circle cx="190" cy="346" r="6" transform="rotate(0,190,346)"/><circle cx="190" cy="358" r="6" transform="rotate(0,190,358)"/><circle cx="190" cy="370" r="6" transform="rotate(0,190,370)"/><circle cx="190" cy="382" r="6" transform="rotate(0,190,382)"/><circle cx="190" cy="418" r="6" transform="rotate(0,190,418)"/><circle cx="190" cy="442" r="6" transform="rotate(0,190,442)"/><circle cx="190" cy="454" r="6" transform="rotate(0,190,454)"/><circle cx="202" cy="34" r="6" transform="rotate(0,202,34)"/><circle cx="202" cy="46" r="6" transform="rotate(0,202,46)"/><circle cx="202" cy="82" r="6" transform="rotate(0,202,82)"/><circle cx="202" cy="94" r="6" transform="rotate(0,202,94)"/><circle cx="202" cy="106" r="6" transform="rotate(0,202,106)"/><circle cx="202" cy="130" r="6" transform="rotate(0,202,130)"/><circle cx="202" cy="142" r="6" transform="rotate(0,202,142)"/><circle cx="202" cy="166" r="6" transform="rotate(0,202,166)"/><circle cx="202" cy="214" r="6" transform="rotate(0,202,214)"/><circle cx="202" cy="238" r="6" transform="rotate(0,202,238)"/><circle cx="202" cy="286" r="6" transform="rotate(0,202,286)"/><circle cx="202" cy="298" r="6" transform="rotate(0,202,298)"/><circle cx="202" cy="310" r="6" transform="rotate(0,202,310)"/><circle cx="202" cy="322" r="6" transform="rotate(0,202,322)"/><circle cx="202" cy="346" r="6" transform="rotate(0,202,346)"/><circle cx="202" cy="358" r="6" transform="rotate(0,202,358)"/><circle cx="202" cy="370" r="6" transform="rotate(0,202,370)"/><circle cx="202" cy="382" r="6" transform="rotate(0,202,382)"/><circle cx="202" cy="406" r="6" transform="rotate(0,202,406)"/><circle cx="202" cy="430" r="6" transform="rotate(0,202,430)"/><circle cx="202" cy="442" r="6" transform="rotate(0,202,442)"/><circle cx="214" cy="58" r="6" transform="rotate(0,214,58)"/><circle cx="214" cy="82" r="6" transform="rotate(0,214,82)"/><circle cx="214" cy="118" r="6" transform="rotate(0,214,118)"/><circle cx="214" cy="178" r="6" transform="rotate(0,214,178)"/><circle cx="214" cy="190" r="6" transform="rotate(0,214,190)"/><circle cx="214" cy="226" r="6" transform="rotate(0,214,226)"/><circle cx="214" cy="250" r="6" transform="rotate(0,214,250)"/><circle cx="214" cy="262" r="6" transform="rotate(0,214,262)"/><circle cx="214" cy="286" r="6" transform="rotate(0,214,286)"/><circle cx="214" cy="310" r="6" transform="rotate(0,214,310)"/><circle cx="214" cy="322" r="6" transform="rotate(0,214,322)"/><circle cx="214" cy="346" r="6" transform="rotate(0,214,346)"/><circle cx="214" cy="358" r="6" transform="rotate(0,214,358)"/><circle cx="214" cy="382" r="6" transform="rotate(0,214,382)"/><circle cx="214" cy="418" r="6" transform="rotate(0,214,418)"/><circle cx="214" cy="442" r="6" transform="rotate(0,214,442)"/><circle cx="214" cy="454" r="6" transform="rotate(0,214,454)"/><circle cx="214" cy="466" r="6" transform="rotate(0,214,466)"/><circle cx="226" cy="46" r="6" transform="rotate(0,226,46)"/><circle cx="226" cy="70" r="6" transform="rotate(0,226,70)"/><circle cx="226" cy="82" r="6" transform="rotate(0,226,82)"/><circle cx="226" cy="94" r="6" transform="rotate(0,226,94)"/><circle cx="226" cy="106" r="6" transform="rotate(0,226,106)"/><circle cx="226" cy="130" r="6" transform="rotate(0,226,130)"/><circle cx="226" cy="142" r="6" transform="rotate(0,226,142)"/><circle cx="226" cy="166" r="6" transform="rotate(0,226,166)"/><circle cx="226" cy="190" r="6" transform="rotate(0,226,190)"/><circle cx="226" cy="202" r="6" transform="rotate(0,226,202)"/><circle cx="226" cy="214" r="6" transform="rotate(0,226,214)"/><circle cx="226" cy="226" r="6" transform="rotate(0,226,226)"/><circle cx="226" cy="250" r="6" transform="rotate(0,226,250)"/><circle cx="226" cy="262" r="6" transform="rotate(0,226,262)"/><circle cx="226" cy="274" r="6" transform="rotate(0,226,274)"/><circle cx="226" cy="310" r="6" transform="rotate(0,226,310)"/><circle cx="226" cy="358" r="6" transform="rotate(0,226,358)"/><circle cx="226" cy="382" r="6" transform="rotate(0,226,382)"/><circle cx="226" cy="394" r="6" transform="rotate(0,226,394)"/><circle cx="226" cy="430" r="6" transform="rotate(0,226,430)"/><circle cx="226" cy="442" r="6" transform="rotate(0,226,442)"/><circle cx="226" cy="454" r="6" transform="rotate(0,226,454)"/><circle cx="238" cy="34" r="6" transform="rotate(0,238,34)"/><circle cx="238" cy="58" r="6" transform="rotate(0,238,58)"/><circle cx="238" cy="130" r="6" transform="rotate(0,238,130)"/><circle cx="238" cy="202" r="6" transform="rotate(0,238,202)"/><circle cx="238" cy="226" r="6" transform="rotate(0,238,226)"/><circle cx="238" cy="238" r="6" transform="rotate(0,238,238)"/><circle cx="238" cy="262" r="6" transform="rotate(0,238,262)"/><circle cx="238" cy="298" r="6" transform="rotate(0,238,298)"/><circle cx="238" cy="322" r="6" transform="rotate(0,238,322)"/><circle cx="238" cy="346" r="6" transform="rotate(0,238,346)"/><circle cx="238" cy="358" r="6" transform="rotate(0,238,358)"/><circle cx="238" cy="370" r="6" transform="rotate(0,238,370)"/><circle cx="238" cy="382" r="6" transform="rotate(0,238,382)"/><circle cx="238" cy="418" r="6" transform="rotate(0,238,418)"/><circle cx="238" cy="430" r="6" transform="rotate(0,238,430)"/><circle cx="250" cy="34" r="6" transform="rotate(0,250,34)"/><circle cx="250" cy="70" r="6" transform="rotate(0,250,70)"/><circle cx="250" cy="82" r="6" transform="rotate(0,250,82)"/><circle cx="250" cy="94" r="6" transform="rotate(0,250,94)"/><circle cx="250" cy="106" r="6" transform="rotate(0,250,106)"/><circle cx="250" cy="130" r="6" transform="rotate(0,250,130)"/><circle cx="250" cy="142" r="6" transform="rotate(0,250,142)"/><circle cx="250" cy="166" r="6" transform="rotate(0,250,166)"/><circle cx="250" cy="202" r="6" transform="rotate(0,250,202)"/><circle cx="250" cy="214" r="6" transform="rotate(0,250,214)"/><circle cx="250" cy="262" r="6" transform="rotate(0,250,262)"/><circle cx="250" cy="286" r="6" transform="rotate(0,250,286)"/><circle cx="250" cy="298" r="6" transform="rotate(0,250,298)"/><circle cx="250" cy="310" r="6" transform="rotate(0,250,310)"/><circle cx="250" cy="322" r="6" transform="rotate(0,250,322)"/><circle cx="250" cy="346" r="6" transform="rotate(0,250,346)"/><circle cx="250" cy="358" r="6" transform="rotate(0,250,358)"/><circle cx="250" cy="382" r="6" transform="rotate(0,250,382)"/><circle cx="250" cy="406" r="6" transform="rotate(0,250,406)"/><circle cx="250" cy="418" r="6" transform="rotate(0,250,418)"/><circle cx="250" cy="442" r="6" transform="rotate(0,250,442)"/><circle cx="262" cy="46" r="6" transform="rotate(0,262,46)"/><circle cx="262" cy="70" r="6" transform="rotate(0,262,70)"/><circle cx="262" cy="82" r="6" transform="rotate(0,262,82)"/><circle cx="262" cy="94" r="6" transform="rotate(0,262,94)"/><circle cx="262" cy="118" r="6" transform="rotate(0,262,118)"/><circle cx="262" cy="142" r="6" transform="rotate(0,262,142)"/><circle cx="262" cy="154" r="6" transform="rotate(0,262,154)"/><circle cx="262" cy="166" r="6" transform="rotate(0,262,166)"/><circle cx="262" cy="178" r="6" transform="rotate(0,262,178)"/><circle cx="262" cy="190" r="6" transform="rotate(0,262,190)"/><circle cx="262" cy="214" r="6" transform="rotate(0,262,214)"/><circle cx="262" cy="238" r="6" transform="rotate(0,262,238)"/><circle cx="262" cy="262" r="6" transform="rotate(0,262,262)"/><circle cx="262" cy="274" r="6" transform="rotate(0,262,274)"/><circle cx="262" cy="286" r="6" transform="rotate(0,262,286)"/><circle cx="262" cy="310" r="6" transform="rotate(0,262,310)"/><circle cx="262" cy="346" r="6" transform="rotate(0,262,346)"/><circle cx="262" cy="406" r="6" transform="rotate(0,262,406)"/><circle cx="262" cy="418" r="6" transform="rotate(0,262,418)"/><circle cx="262" cy="442" r="6" transform="rotate(0,262,442)"/><circle cx="262" cy="454" r="6" transform="rotate(0,262,454)"/><circle cx="274" cy="34" r="6" transform="rotate(0,274,34)"/><circle cx="274" cy="70" r="6" transform="rotate(0,274,70)"/><circle cx="274" cy="106" r="6" transform="rotate(0,274,106)"/><circle cx="274" cy="118" r="6" transform="rotate(0,274,118)"/><circle cx="274" cy="142" r="6" transform="rotate(0,274,142)"/><circle cx="274" cy="166" r="6" transform="rotate(0,274,166)"/><circle cx="274" cy="190" r="6" transform="rotate(0,274,190)"/><circle cx="274" cy="202" r="6" transform="rotate(0,274,202)"/><circle cx="274" cy="274" r="6" transform="rotate(0,274,274)"/><circle cx="274" cy="286" r="6" transform="rotate(0,274,286)"/><circle cx="274" cy="298" r="6" transform="rotate(0,274,298)"/><circle cx="274" cy="322" r="6" transform="rotate(0,274,322)"/><circle cx="274" cy="358" r="6" transform="rotate(0,274,358)"/><circle cx="274" cy="382" r="6" transform="rotate(0,274,382)"/><circle cx="274" cy="394" r="6" transform="rotate(0,274,394)"/><circle cx="274" cy="442" r="6" transform="rotate(0,274,442)"/><circle cx="274" cy="454" r="6" transform="rotate(0,274,454)"/><circle cx="274" cy="466" r="6" transform="rotate(0,274,466)"/><circle cx="286" cy="58" r="6" transform="rotate(0,286,58)"/><circle cx="286" cy="70" r="6" transform="rotate(0,286,70)"/><circle cx="286" cy="130" r="6" transform="rotate(0,286,130)"/><circle cx="286" cy="142" r="6" transform="rotate(0,286,142)"/><circle cx="286" cy="154" r="6" transform="rotate(0,286,154)"/><circle cx="286" cy="178" r="6" transform="rotate(0,286,178)"/><circle cx="286" cy="202" r="6" transform="rotate(0,286,202)"/><circle cx="286" cy="226" r="6" transform="rotate(0,286,226)"/><circle cx="286" cy="250" r="6" transform="rotate(0,286,250)"/><circle cx="286" cy="274" r="6" transform="rotate(0,286,274)"/><circle cx="286" cy="310" r="6" transform="rotate(0,286,310)"/><circle cx="286" cy="334" r="6" transform="rotate(0,286,334)"/><circle cx="286" cy="358" r="6" transform="rotate(0,286,358)"/><circle cx="286" cy="418" r="6" transform="rotate(0,286,418)"/><circle cx="286" cy="430" r="6" transform="rotate(0,286,430)"/><circle cx="286" cy="442" r="6" transform="rotate(0,286,442)"/><circle cx="286" cy="454" r="6" transform="rotate(0,286,454)"/><circle cx="298" cy="58" r="6" transform="rotate(0,298,58)"/><circle cx="298" cy="70" r="6" transform="rotate(0,298,70)"/><circle cx="298" cy="82" r="6" transform="rotate(0,298,82)"/><circle cx="298" cy="106" r="6" transform="rotate(0,298,106)"/><circle cx="298" cy="142" r="6" transform="rotate(0,298,142)"/><circle cx="298" cy="178" r="6" transform="rotate(0,298,178)"/><circle cx="298" cy="190" r="6" transform="rotate(0,298,190)"/><circle cx="298" cy="202" r="6" transform="rotate(0,298,202)"/><circle cx="298" cy="286" r="6" transform="rotate(0,298,286)"/><circle cx="298" cy="310" r="6" transform="rotate(0,298,310)"/><circle cx="298" cy="322" r="6" transform="rotate(0,298,322)"/><circle cx="298" cy="358" r="6" transform="rotate(0,298,358)"/><circle cx="298" cy="370" r="6" transform="rotate(0,298,370)"/><circle cx="298" cy="382" r="6" transform="rotate(0,298,382)"/><circle cx="298" cy="430" r="6" transform="rotate(0,298,430)"/><circle cx="298" cy="442" r="6" transform="rotate(0,298,442)"/><circle cx="310" cy="46" r="6" transform="rotate(0,310,46)"/><circle cx="310" cy="70" r="6" transform="rotate(0,310,70)"/><circle cx="310" cy="82" r="6" transform="rotate(0,310,82)"/><circle cx="310" cy="130" r="6" transform="rotate(0,310,130)"/><circle cx="310" cy="154" r="6" transform="rotate(0,310,154)"/><circle cx="310" cy="166" r="6" transform="rotate(0,310,166)"/><circle cx="310" cy="178" r="6" transform="rotate(0,310,178)"/><circle cx="310" cy="250" r="6" transform="rotate(0,310,250)"/><circle cx="310" cy="286" r="6" transform="rotate(0,310,286)"/><circle cx="310" cy="298" r="6" transform="rotate(0,310,298)"/><circle cx="310" cy="310" r="6" transform="rotate(0,310,310)"/><circle cx="310" cy="346" r="6" transform="rotate(0,310,346)"/><circle cx="310" cy="370" r="6" transform="rotate(0,310,370)"/><circle cx="310" cy="394" r="6" transform="rotate(0,310,394)"/><circle cx="310" cy="406" r="6" transform="rotate(0,310,406)"/><circle cx="310" cy="442" r="6" transform="rotate(0,310,442)"/><circle cx="310" cy="466" r="6" transform="rotate(0,310,466)"/><circle cx="322" cy="82" r="6" transform="rotate(0,322,82)"/><circle cx="322" cy="94" r="6" transform="rotate(0,322,94)"/><circle cx="322" cy="106" r="6" transform="rotate(0,322,106)"/><circle cx="322" cy="118" r="6" transform="rotate(0,322,118)"/><circle cx="322" cy="178" r="6" transform="rotate(0,322,178)"/><circle cx="322" cy="202" r="6" transform="rotate(0,322,202)"/><circle cx="322" cy="214" r="6" transform="rotate(0,322,214)"/><circle cx="322" cy="226" r="6" transform="rotate(0,322,226)"/><circle cx="322" cy="238" r="6" transform="rotate(0,322,238)"/><circle cx="322" cy="262" r="6" transform="rotate(0,322,262)"/><circle cx="322" cy="274" r="6" transform="rotate(0,322,274)"/><circle cx="322" cy="286" r="6" transform="rotate(0,322,286)"/><circle cx="322" cy="298" r="6" transform="rotate(0,322,298)"/><circle cx="322" cy="334" r="6" transform="rotate(0,322,334)"/><circle cx="322" cy="346" r="6" transform="rotate(0,322,346)"/><circle cx="322" cy="358" r="6" transform="rotate(0,322,358)"/><circle cx="322" cy="382" r="6" transform="rotate(0,322,382)"/><circle cx="322" cy="394" r="6" transform="rotate(0,322,394)"/><circle cx="322" cy="406" r="6" transform="rotate(0,322,406)"/><circle cx="322" cy="442" r="6" transform="rotate(0,322,442)"/><circle cx="322" cy="466" r="6" transform="rotate(0,322,466)"/><circle cx="334" cy="34" r="6" transform="rotate(0,334,34)"/><circle cx="334" cy="46" r="6" transform="rotate(0,334,46)"/><circle cx="334" cy="58" r="6" transform="rotate(0,334,58)"/><circle cx="334" cy="70" r="6" transform="rotate(0,334,70)"/><circle cx="334" cy="82" r="6" transform="rotate(0,334,82)"/><circle cx="334" cy="130" r="6" transform="rotate(0,334,130)"/><circle cx="334" cy="154" r="6" transform="rotate(0,334,154)"/><circle cx="334" cy="178" r="6" transform="rotate(0,334,178)"/><circle cx="334" cy="190" r="6" transform="rotate(0,334,190)"/><circle cx="334" cy="226" r="6" transform="rotate(0,334,226)"/><circle cx="334" cy="250" r="6" transform="rotate(0,334,250)"/><circle cx="334" cy="262" r="6" transform="rotate(0,334,262)"/><circle cx="334" cy="310" r="6" transform="rotate(0,334,310)"/><circle cx="334" cy="334" r="6" transform="rotate(0,334,334)"/><circle cx="334" cy="358" r="6" transform="rotate(0,334,358)"/><circle cx="334" cy="418" r="6" transform="rotate(0,334,418)"/><circle cx="334" cy="454" r="6" transform="rotate(0,334,454)"/><circle cx="346" cy="70" r="6" transform="rotate(0,346,70)"/><circle cx="346" cy="94" r="6" transform="rotate(0,346,94)"/><circle cx="346" cy="106" r="6" transform="rotate(0,346,106)"/><circle cx="346" cy="118" r="6" transform="rotate(0,346,118)"/><circle cx="346" cy="130" r="6" transform="rotate(0,346,130)"/><circle cx="346" cy="142" r="6" transform="rotate(0,346,142)"/><circle cx="346" cy="154" r="6" transform="rotate(0,346,154)"/><circle cx="346" cy="166" r="6" transform="rotate(0,346,166)"/><circle cx="346" cy="202" r="6" transform="rotate(0,346,202)"/><circle cx="346" cy="214" r="6" transform="rotate(0,346,214)"/><circle cx="346" cy="238" r="6" transform="rotate(0,346,238)"/><circle cx="346" cy="250" r="6" transform="rotate(0,346,250)"/><circle cx="346" cy="262" r="6" transform="rotate(0,346,262)"/><circle cx="346" cy="274" r="6" transform="rotate(0,346,274)"/><circle cx="346" cy="298" r="6" transform="rotate(0,346,298)"/><circle cx="346" cy="310" r="6" transform="rotate(0,346,310)"/><circle cx="346" cy="358" r="6" transform="rotate(0,346,358)"/><circle cx="346" cy="382" r="6" transform="rotate(0,346,382)"/><circle cx="346" cy="418" r="6" transform="rotate(0,346,418)"/><circle cx="346" cy="430" r="6" transform="rotate(0,346,430)"/><circle cx="358" cy="70" r="6" transform="rotate(0,358,70)"/><circle cx="358" cy="82" r="6" transform="rotate(0,358,82)"/><circle cx="358" cy="94" r="6" transform="rotate(0,358,94)"/><circle cx="358" cy="118" r="6" transform="rotate(0,358,118)"/><circle cx="358" cy="154" r="6" transform="rotate(0,358,154)"/><circle cx="358" cy="190" r="6" transform="rotate(0,358,190)"/><circle cx="358" cy="262" r="6" transform="rotate(0,358,262)"/><circle cx="358" cy="286" r="6" transform="rotate(0,358,286)"/><circle cx="358" cy="298" r="6" transform="rotate(0,358,298)"/><circle cx="358" cy="310" r="6" transform="rotate(0,358,310)"/><circle cx="358" cy="322" r="6" transform="rotate(0,358,322)"/><circle cx="358" cy="346" r="6" transform="rotate(0,358,346)"/><circle cx="358" cy="358" r="6" transform="rotate(0,358,358)"/><circle cx="358" cy="394" r="6" transform="rotate(0,358,394)"/><circle cx="358" cy="406" r="6" transform="rotate(0,358,406)"/><circle cx="358" cy="442" r="6" transform="rotate(0,358,442)"/><circle cx="370" cy="34" r="6" transform="rotate(0,370,34)"/><circle cx="370" cy="46" r="6" transform="rotate(0,370,46)"/><circle cx="370" cy="70" r="6" transform="rotate(0,370,70)"/><circle cx="370" cy="94" r="6" transform="rotate(0,370,94)"/><circle cx="370" cy="106" r="6" transform="rotate(0,370,106)"/><circle cx="370" cy="118" r="6" transform="rotate(0,370,118)"/><circle cx="370" cy="130" r="6" transform="rotate(0,370,130)"/><circle cx="370" cy="190" r="6" transform="rotate(0,370,190)"/><circle cx="370" cy="202" r="6" transform="rotate(0,370,202)"/><circle cx="370" cy="250" r="6" transform="rotate(0,370,250)"/><circle cx="370" cy="262" r="6" transform="rotate(0,370,262)"/><circle cx="370" cy="286" r="6" transform="rotate(0,370,286)"/><circle cx="370" cy="322" r="6" transform="rotate(0,370,322)"/><circle cx="370" cy="370" r="6" transform="rotate(0,370,370)"/><circle cx="370" cy="382" r="6" transform="rotate(0,370,382)"/><circle cx="370" cy="394" r="6" transform="rotate(0,370,394)"/><circle cx="370" cy="406" r="6" transform="rotate(0,370,406)"/><circle cx="370" cy="418" r="6" transform="rotate(0,370,418)"/><circle cx="370" cy="442" r="6" transform="rotate(0,370,442)"/><circle cx="370" cy="454" r="6" transform="rotate(0,370,454)"/><circle cx="370" cy="466" r="6" transform="rotate(0,370,466)"/><circle cx="382" cy="130" r="6" transform="rotate(0,382,130)"/><circle cx="382" cy="142" r="6" transform="rotate(0,382,142)"/><circle cx="382" cy="166" r="6" transform="rotate(0,382,166)"/><circle cx="382" cy="178" r="6" transform="rotate(0,382,178)"/><circle cx="382" cy="202" r="6" transform="rotate(0,382,202)"/><circle cx="382" cy="214" r="6" transform="rotate(0,382,214)"/><circle cx="382" cy="226" r="6" transform="rotate(0,382,226)"/><circle cx="382" cy="238" r="6" transform="rotate(0,382,238)"/><circle cx="382" cy="250" r="6" transform="rotate(0,382,250)"/><circle cx="382" cy="286" r="6" transform="rotate(0,382,286)"/><circle cx="382" cy="310" r="6" transform="rotate(0,382,310)"/><circle cx="382" cy="334" r="6" transform="rotate(0,382,334)"/><circle cx="382" cy="346" r="6" transform="rotate(0,382,346)"/><circle cx="382" cy="370" r="6" transform="rotate(0,382,370)"/><circle cx="382" cy="418" r="6" transform="rotate(0,382,418)"/><circle cx="382" cy="430" r="6" transform="rotate(0,382,430)"/><circle cx="394" cy="154" r="6" transform="rotate(0,394,154)"/><circle cx="394" cy="166" r="6" transform="rotate(0,394,166)"/><circle cx="394" cy="190" r="6" transform="rotate(0,394,190)"/><circle cx="394" cy="226" r="6" transform="rotate(0,394,226)"/><circle cx="394" cy="238" r="6" transform="rotate(0,394,238)"/><circle cx="394" cy="310" r="6" transform="rotate(0,394,310)"/><circle cx="394" cy="322" r="6" transform="rotate(0,394,322)"/><circle cx="394" cy="334" r="6" transform="rotate(0,394,334)"/><circle cx="394" cy="370" r="6" transform="rotate(0,394,370)"/><circle cx="394" cy="394" r="6" transform="rotate(0,394,394)"/><circle cx="394" cy="418" r="6" transform="rotate(0,394,418)"/><circle cx="394" cy="430" r="6" transform="rotate(0,394,430)"/><circle cx="394" cy="442" r="6" transform="rotate(0,394,442)"/><circle cx="394" cy="454" r="6" transform="rotate(0,394,454)"/><circle cx="406" cy="190" r="6" transform="rotate(0,406,190)"/><circle cx="406" cy="202" r="6" transform="rotate(0,406,202)"/><circle cx="406" cy="214" r="6" transform="rotate(0,406,214)"/><circle cx="406" cy="226" r="6" transform="rotate(0,406,226)"/><circle cx="406" cy="238" r="6" transform="rotate(0,406,238)"/><circle cx="406" cy="250" r="6" transform="rotate(0,406,250)"/><circle cx="406" cy="262" r="6" transform="rotate(0,406,262)"/><circle cx="406" cy="274" r="6" transform="rotate(0,406,274)"/><circle cx="406" cy="298" r="6" transform="rotate(0,406,298)"/><circle cx="406" cy="310" r="6" transform="rotate(0,406,310)"/><circle cx="406" cy="346" r="6" transform="rotate(0,406,346)"/><circle cx="406" cy="370" r="6" transform="rotate(0,406,370)"/><circle cx="406" cy="418" r="6" transform="rotate(0,406,418)"/><circle cx="406" cy="442" r="6" transform="rotate(0,406,442)"/><circle cx="406" cy="454" r="6" transform="rotate(0,406,454)"/><circle cx="406" cy="466" r="6" transform="rotate(0,406,466)"/><circle cx="418" cy="130" r="6" transform="rotate(0,418,130)"/><circle cx="418" cy="142" r="6" transform="rotate(0,418,142)"/><circle cx="418" cy="154" r="6" transform="rotate(0,418,154)"/><circle cx="418" cy="166" r="6" transform="rotate(0,418,166)"/><circle cx="418" cy="190" r="6" transform="rotate(0,418,190)"/><circle cx="418" cy="202" r="6" transform="rotate(0,418,202)"/><circle cx="418" cy="214" r="6" transform="rotate(0,418,214)"/><circle cx="418" cy="226" r="6" transform="rotate(0,418,226)"/><circle cx="418" cy="238" r="6" transform="rotate(0,418,238)"/><circle cx="418" cy="250" r="6" transform="rotate(0,418,250)"/><circle cx="418" cy="262" r="6" transform="rotate(0,418,262)"/><circle cx="418" cy="298" r="6" transform="rotate(0,418,298)"/><circle cx="418" cy="310" r="6" transform="rotate(0,418,310)"/><circle cx="418" cy="322" r="6" transform="rotate(0,418,322)"/><circle cx="418" cy="370" r="6" transform="rotate(0,418,370)"/><circle cx="418" cy="382" r="6" transform="rotate(0,418,382)"/><circle cx="418" cy="394" r="6" transform="rotate(0,418,394)"/><circle cx="418" cy="406" r="6" transform="rotate(0,418,406)"/><circle cx="418" cy="418" r="6" transform="rotate(0,418,418)"/><circle cx="418" cy="430" r="6" transform="rotate(0,418,430)"/><circle cx="418" cy="442" r="6" transform="rotate(0,418,442)"/><circle cx="418" cy="466" r="6" transform="rotate(0,418,466)"/><circle cx="430" cy="154" r="6" transform="rotate(0,430,154)"/><circle cx="430" cy="190" r="6" transform="rotate(0,430,190)"/><circle cx="430" cy="202" r="6" transform="rotate(0,430,202)"/><circle cx="430" cy="214" r="6" transform="rotate(0,430,214)"/><circle cx="430" cy="262" r="6" transform="rotate(0,430,262)"/><circle cx="430" cy="274" r="6" transform="rotate(0,430,274)"/><circle cx="430" cy="286" r="6" transform="rotate(0,430,286)"/><circle cx="430" cy="334" r="6" transform="rotate(0,430,334)"/><circle cx="430" cy="370" r="6" transform="rotate(0,430,370)"/><circle cx="430" cy="394" r="6" transform="rotate(0,430,394)"/><circle cx="430" cy="442" r="6" transform="rotate(0,430,442)"/><circle cx="430" cy="454" r="6" transform="rotate(0,430,454)"/><circle cx="442" cy="154" r="6" transform="rotate(0,442,154)"/><circle cx="442" cy="226" r="6" transform="rotate(0,442,226)"/><circle cx="442" cy="250" r="6" transform="rotate(0,442,250)"/><circle cx="442" cy="274" r="6" transform="rotate(0,442,274)"/><circle cx="442" cy="286" r="6" transform="rotate(0,442,286)"/><circle cx="442" cy="334" r="6" transform="rotate(0,442,334)"/><circle cx="442" cy="346" r="6" transform="rotate(0,442,346)"/><circle cx="442" cy="358" r="6" transform="rotate(0,442,358)"/><circle cx="442" cy="370" r="6" transform="rotate(0,442,370)"/><circle cx="442" cy="394" r="6" transform="rotate(0,442,394)"/><circle cx="442" cy="406" r="6" transform="rotate(0,442,406)"/><circle cx="442" cy="454" r="6" transform="rotate(0,442,454)"/><circle cx="454" cy="130" r="6" transform="rotate(0,454,130)"/><circle cx="454" cy="142" r="6" transform="rotate(0,454,142)"/><circle cx="454" cy="154" r="6" transform="rotate(0,454,154)"/><circle cx="454" cy="166" r="6" transform="rotate(0,454,166)"/><circle cx="454" cy="178" r="6" transform="rotate(0,454,178)"/><circle cx="454" cy="190" r="6" transform="rotate(0,454,190)"/><circle cx="454" cy="214" r="6" transform="rotate(0,454,214)"/><circle cx="454" cy="226" r="6" transform="rotate(0,454,226)"/><circle cx="454" cy="286" r="6" transform="rotate(0,454,286)"/><circle cx="454" cy="322" r="6" transform="rotate(0,454,322)"/><circle cx="454" cy="346" r="6" transform="rotate(0,454,346)"/><circle cx="454" cy="358" r="6" transform="rotate(0,454,358)"/><circle cx="454" cy="382" r="6" transform="rotate(0,454,382)"/><circle cx="454" cy="406" r="6" transform="rotate(0,454,406)"/><circle cx="454" cy="418" r="6" transform="rotate(0,454,418)"/><circle cx="454" cy="430" r="6" transform="rotate(0,454,430)"/><circle cx="454" cy="442" r="6" transform="rotate(0,454,442)"/><circle cx="454" cy="454" r="6" transform="rotate(0,454,454)"/><circle cx="466" cy="154" r="6" transform="rotate(0,466,154)"/><circle cx="466" cy="202" r="6" transform="rotate(0,466,202)"/><circle cx="466" cy="214" r="6" transform="rotate(0,466,214)"/><circle cx="466" cy="226" r="6" transform="rotate(0,466,226)"/><circle cx="466" cy="238" r="6" transform="rotate(0,466,238)"/><circle cx="466" cy="250" r="6" transform="rotate(0,466,250)"/><circle cx="466" cy="262" r="6" transform="rotate(0,466,262)"/><circle cx="466" cy="286" r="6" transform="rotate(0,466,286)"/><circle cx="466" cy="298" r="6" transform="rotate(0,466,298)"/><circle cx="466" cy="310" r="6" transform="rotate(0,466,310)"/><circle cx="466" cy="322" r="6" transform="rotate(0,466,322)"/><circle cx="466" cy="358" r="6" transform="rotate(0,466,358)"/><circle cx="466" cy="442" r="6" transform="rotate(0,466,442)"/><circle cx="466" cy="454" r="6" transform="rotate(0,466,454)"/><circle cx="466" cy="466" r="6" transform="rotate(0,466,466)"/></clipPath><clipPath id="clip-path-corners-square-color-0-0"><path clip-rule="evenodd" d="M 70 28a 42 42 0 1 0 0.1 0zm 0 12a 30 30 0 1 1 -0.1 0Z" transform="rotate(0,70,70)"/></clipPath><clipPath id="clip-path-corners-dot-color-0-0"><circle cx="70" cy="70" r="18" transform="rotate(0,70,70)"/></clipPath><clipPath id="clip-path-corners-square-color-1-0"><path clip-rule="evenodd" d="M 430 28a 42 42 0 1 0 0.1 0zm 0 12a 30 30 0 1 1 -0.1 0Z" transform="rotate(90,430,70)"/></clipPath><clipPath id="clip-path-corners-dot-color-1-0"><circle cx="430" cy="70" r="18" transform="rotate(90,430,70)"/></clipPath><clipPath id="clip-path-corners-square-color-0-1"><path clip-rule="evenodd" d="M 70 388a 42 42 0 1 0 0.1 0zm 0 12a 30 30 0 1 1 -0.1 0Z" transform="rotate(-90,70,430)"/></clipPath><clipPath id="clip-path-corners-dot-color-0-1"><circle cx="70" cy="430" r="18" transform="rotate(-90,70,430)"/></clipPath></defs><rect x="0" y="0" height="500" width="500" clip-path="url('#clip-path-background-color')" fill="#fff"/><rect x="0" y="0" height="500" width="500" clip-path="url('#clip-path-dot-color')" fill="#000000"/><rect x="28" y="28" height="84" width="84" clip-path="url('#clip-path-corners-square-color-0-0')" fill="#000000"/><rect x="52" y="52" height="36" width="36" clip-path="url('#clip-path-corners-dot-color-0-0')" fill="#000000"/><rect x="388" y="28" height="84" width="84" clip-path="url('#clip-path-corners-square-color-1-0')" fill="#000000"/><rect x="412" y="52" height="36" width="36" clip-path="url('#clip-path-corners-dot-color-1-0')" fill="#000000"/><rect x="28" y="388" height="84" width="84" clip-path="url('#clip-path-corners-square-color-0-1')" fill="#000000"/><rect x="52" y="412" height="36" width="36" clip-path="url('#clip-path-corners-dot-color-0-1')" fill="#000000"/></svg>