<?xml version="1.0" standalone="no"?>
<svg xmlns="http://www.w3.org/2000/svg" width="500" height="500"><defs><clipPath id="clip-path-dot-color"><circle cx="34" cy="130" r="6" transform="rotate(0,34,130)"/><circle cx="34" cy="142" r="6" transform="rotate(0,34,142)"/><circle cx="34" cy="154" r="6" transform="rotate(0,34,154)"/><circle cx="34" cy="166" r="6" transform="rotate(0,34,166)"/><circle cx="34" cy="178" r="6" transform="rotate(0,34,178)"/><circle cx="34" cy="190" r="6" transform="rotate(0,34,190)"/><circle cx="34" cy="250" r="6" transform="rotate(0,34,250)"/><circle cx="34" cy="274" r="6" transform="rotate(0,34,274)"/><circle cx="34" cy="298" r="6" transform="rotate(0,34,298)"/><circle cx="34" cy="310" r="6" transform="rotate(0,34,310)"/><circle cx="34" cy="334" r="6" transform="rotate(0,34,334)"/><circle cx="34" cy="346" r="6" transform="rotate(0,34,346)"/><circle cx="46" cy="130" r="6" transform="rotate(0,46,130)"/><circle cx="46" cy="154" r="6" transform="rotate(0,46,154)"/><circle cx="46" cy="166" r="6" transform="rotate(0,46,166)"/><circle cx="46" cy="178" r="6" transform="rotate(0,46,178)"/><circle cx="46" cy="190" r="6" transform="rotate(0,46,190)"/><circle cx="46" cy="202" r="6" transform="rotate(0,46,202)"/><circle cx="46" cy="214" r="6" transform="rotate(0,46,214)"/><circle cx="46" cy="238" r="6" transform="rotate(0,46,238)"/><circle cx="46" cy="250" r="6" transform="rotate(0,46,250)"/><circle cx="46" cy="262" r="6" transform="rotate(0,46,262)"/><circle cx="46" cy="274" r="6" transform="rotate(0,46,274)"/><circle cx="46" cy="298" r="6" transform="rotate(0,46,298)"/><circle cx="46" cy="310" r="6" transform="rotate(0,46,310)"/><circle cx="46" cy="322" r="6" transform="rotate(0,46,322)"/><circle cx="46" cy="334" r="6" transform="rotate(0,46,334)"/><circle cx="58" cy="142" r="6" transform="rotate(0,58,142)"/><circle cx="58" cy="154" r="6" transform="rotate(0,58,154)"/><circle cx="58" cy="166" r="6" transform="rotate(0,58,166)"/><circle cx="58" cy="190" r="6" transform="rotate(0,58,190)"/><circle cx="58" cy="202" r="6" transform="rotate(0,58,202)"/><circle cx="58" cy="214" r="6" transform="rotate(0,58,214)"/><circle cx="58" cy="286" r="6" transform="rotate(0,58,286)"/><circle cx="58" cy="310" r="6" transform="rotate(0,58,310)"/><circle cx="58" cy="346" r="6" transform="rotate(0,58,346)"/><circle cx="70" cy="142" r="6" transform="rotate(0,70,142)"/><circle cx="70" cy="178" r="6" transform="rotate(0,70,178)"/><circle cx="70" cy="190" r="6" transform="rotate(0,70,190)"/><circle cx="70" cy="214" r="6" transform="rotate(0,70,214)"/><circle cx="70" cy="238" r="6" transform="rotate(0,70,238)"/><circle cx="70" cy="250" r="6" transform="rotate(0,70,250)"/><circle cx="70" cy="286" r="6" transform="rotate(0,70,286)"/><circle cx="70" cy="310" r="6" transform="rotate(0,70,310)"/><circle cx="70" cy="334" r="6" transform="rotate(0,70,334)"/><circle cx="70" cy="358" r="6" transform="rotate(0,70,358)"/><circle cx="70" cy="370" r="6" transform="rotate(0,70,370)"/><circle cx="82" cy="142" r="6" transform="rotate(0,82,142)"/><circle cx="82" cy="166" r="6" transform="rotate(0,82,166)"/><circle cx="82" cy="226" r="6" transform="rotate(0,82,226)"/><circle cx="82" cy="250" r="6" transform="rotate(0,82,250)"/><circle cx="82" cy="262" r="6" transform="rotate(0,82,262)"/><circle cx="82" cy="274" r="6" transform="rotate(0,82,274)"/><circle cx="82" cy="310" r="6" transform="rotate(0,82,310)"/><circle cx="82" cy="334" r="6" transform="rotate(0,82,334)"/><circle cx="94" cy="154" r="6" transform="rotate(0,94,154)"/><circle cx="94" cy="214" r="6" transform="rotate(0,94,214)"/><circle cx="94" cy="226" r="6" transform="rotate(0,94,226)"/><circle cx="94" cy="250" r="6" transform="rotate(0,94,250)"/><circle cx="94" cy="286" r="6" transform="rotate(0,94,286)"/><circle cx="94" cy="298" r="6" transform="rotate(0,94,298)"/><circle cx="94" cy="334" r="6" transform="rotate(0,94,334)"/><circle cx="94" cy="346" r="6" transform="rotate(0,94,346)"/><circle cx="94" cy="370" r="6" transform="rotate(0,94,370)"/><circle cx="106" cy="130" r="6" transform="rotate(0,106,130)"/><circle cx="106" cy="154" r="6" transform="rotate(0,106,154)"/><circle cx="106" cy="178" r="6" transform="rotate(0,106,178)"/><circle cx="106" cy="202" r="6" transform="rotate(0,106,202)"/><circle cx="106" cy="226" r="6" transform="rotate(0,106,226)"/><circle cx="106" cy="250" r="6" transform="rotate(0,106,250)"/><circle cx="106" cy="274" r="6" transform="rotate(0,106,274)"/><circle cx="106" cy="298" r="6" transform="rotate(0,106,298)"/><circle cx="106" cy="322" r="6" transform="rotate(0,106,322)"/><circle cx="106" cy="346" r="6" transform="rotate(0,106,346)"/><circle cx="106" cy="370" r="6" transform="rotate(0,106,370)"/><circle cx="118" cy="142" r="6" transform="rotate(0,118,142)"/><circle cx="118" cy="154" r="6" transform="rotate(0,118,154)"/><circle cx="118" cy="190" r="6" transform="rotate(0,118,190)"/><circle cx="118" cy="226" r="6" transform="rotate(0,118,226)"/><circle cx="118" cy="250" r="6" transform="rotate(0,118,250)"/><circle cx="118" cy="298" r="6" transform="rotate(0,118,298)"/><circle cx="118" cy="334" r="6" transform="rotate(0,118,334)"/><circle cx="118" cy="358" r="6" transform="rotate(0,118,358)"/><circle cx="118" cy="370" r="6" transform="rotate(0,118,370)"/><circle cx="130" cy="46" r="6" transform="rotate(0,130,46)"/><circle cx="130" cy="106" r="6" transform="rotate(0,130,106)"/><circle cx="130" cy="118" r="6" transform="rotate(0,130,118)"/><circle cx="130" cy="130" r="6" transform="rotate(0,130,130)"/><circle cx="130" cy="142" r="6" transform="rotate(0,130,142)"/><circle cx="130" cy="154" r="6" transform="rotate(0,130,154)"/><circle cx="130" cy="166" r="6" transform="rotate(0,130,166)"/><circle cx="130" cy="190" r="6" transform="rotate(0,130,190)"/><circle cx="130" cy="250" r="6" transform="rotate(0,130,250)"/><circle cx="130" cy="262" r="6" transform="rotate(0,130,262)"/><circle cx="130" cy="298" r="6" transform="rotate(0,130,298)"/><circle cx="130" cy="310" r="6" transform="rotate(0,130,310)"/><circle cx="130" cy="322" r="6" transform="rotate(0,130,322)"/><circle cx="130" cy="346" r="6" transform="rotate(0,130,346)"/><circle cx="130" cy="370" r="6" transform="rotate(0,130,370)"/><circle cx="130" cy="382" r="6" transform="rotate(0,130,382)"/><circle cx="130" cy="454" r="6" transform="rotate(0,130,454)"/><circle cx="130" cy="466" r="6" transform="rotate(0,130,466)"/><circle cx="142" cy="34" r="6" transform="rotate(0,142,34)"/><circle cx="142" cy="46" r="6" transform="rotate(0,142,46)"/><circle cx="142" cy="58" r="6" transform="rotate(0,142,58)"/><circle cx="142" cy="70" r="6" transform="rotate(0,142,70)"/><circle cx="142" cy="94" r="6" transform="rotate(0,142,94)"/><circle cx="142" cy="130" r="6" transform="rotate(0,142,130)"/><circle cx="142" cy="142" r="6" transform="rotate(0,142,142)"/><circle cx="142" cy="202" r="6" transform="rotate(0,142,202)"/><circle cx="142" cy="214" r="6" transform="rotate(0,142,214)"/><circle cx="142" cy="226" r="6" transform="rotate(0,142,226)"/><circle cx="142" cy="238" r="6" transform="rotate(0,142,238)"/><circle cx="142" cy="262" r="6" transform="rotate(0,142,262)"/><circle cx="142" cy="298" r="6" transform="rotate(0,142,298)"/><circle cx="142" cy="310" r="6" transform="rotate(0,142,310)"/><circle cx="142" cy="322" r="6" transform="rotate(0,142,322)"/><circle cx="142" cy="334" r="6" transform="rotate(0,142,334)"/><circle cx="142" cy="346" r="6" transform="rotate(0,142,346)"/><circle cx="142" cy="370" r="6" transform="rotate(0,142,370)"/><circle cx="142" cy="394" r="6" transform="rotate(0,142,394)"/><circle cx="142" cy="406" r="6" transform="rotate(0,142,406)"/><circle cx="142" cy="430" r="6" transform="rotate(0,142,430)"/><circle cx="142" cy="442" r="6" transform="rotate(0,142,442)"/><circle cx="142" cy="454" r="6" transform="rotate(0,142,454)"/><circle cx="154" cy="34" r="6" transform="rotate(0,154,34)"/><circle cx="154" cy="46" r="6" transform="rotate(0,154,46)"/><circle cx="154" cy="70" r="6" transform="rotate(0,154,70)"/><circle cx="154" cy="94" r="6" transform="rotate(0,154,94)"/><circle cx="154" cy="106" r="6" transform="rotate(0,154,106)"/><circle cx="154" cy="118" r="6" transform="rotate(0,154,118)"/><circle cx="154" cy="142" r="6" transform="rotate(0,154,142)"/><circle cx="154" cy="166" r="6" transform="rotate(0,154,166)"/><circle cx="154" cy="190" r="6" transform="rotate(0,154,190)"/><circle cx="154" cy="214" r="6" transform="rotate(0,154,214)"/><circle cx="154" cy="226" r="6" transform="rotate(0,154,226)"/><circle cx="154" cy="250" r="6" transform="rotate(0,154,250)"/><circle cx="154" cy="274" r="6" transform="rotate(0,154,274)"/><circle cx="154" cy="334" r="6" transform="rotate(0,154,334)"/><circle cx="154" cy="346" r="6" transform="rotate(0,154,346)"/><circle cx="154" cy="358" r="6" transform="rotate(0,154,358)"/><circle cx="154" cy="370" r="6" transform="rotate(0,154,370)"/><circle cx="154" cy="394" r="6" transform="rotate(0,154,394)"/><circle cx="154" cy="418" r="6" transform="rotate(0,154,418)"/><circle cx="154" cy="430" r="6" transform="rotate(0,154,430)"/><circle cx="154" cy="454" r="6" transform="rotate(0,154,454)"/><circle cx="154" cy="466" r="6" transform="rotate(0,154,466)"/><circle cx="166" cy="34" r="6" transform="rotate(0,166,34)"/><circle cx="166" cy="46" r="6" transform="rotate(0,166,46)"/><circle cx="166" cy="58" r="6" transform="rotate(0,166,58)"/><circle cx="166" cy="82" r="6" transform="rotate(0,166,82)"/><circle cx="166" cy="130" r="6" transform="rotate(0,166,130)"/><circle cx="166" cy="154" r="6" transform="rotate(0,166,154)"/><circle cx="166" cy="166" r="6" transform="rotate(0,166,166)"/><circle cx="166" cy="178" r="6" transform="rotate(0,166,178)"/><circle cx="166" cy="214" r="6" transform="rotate(0,166,214)"/><circle cx="166" cy="262" r="6" transform="rotate(0,166,262)"/><circle cx="166" cy="310" r="6" transform="rotate(0,166,310)"/><circle cx="166" cy="322" r="6" transform="rotate(0,166,322)"/><circle cx="166" cy="346" r="6" transform="rotate(0,166,346)"/><circle cx="166" cy="394" r="6" transform="rotate(0,166,394)"/><circle cx="166" cy="406" r="6" transform="rotate(0,166,406)"/><circle cx="166" cy="418" r="6" transform="rotate(0,166,418)"/><circle cx="166" cy="430" r="6" transform="rotate(0,166,430)"/><circle cx="166" cy="454" r="6" transform="rotate(0,166,454)"/><circle cx="178" cy="46" r="6" transform="rotate(0,178,46)"/><circle cx="178" cy="94" r="6" transform="rotate(0,178,94)"/><circle cx="178" cy="106" r="6" transform="rotate(0,178,106)"/><circle cx="178" cy="118" r="6" transform="rotate(0,178,118)"/><circle cx="178" cy="130" r="6" transform="rotate(0,178,130)"/><circle cx="178" cy="166" r="6" transform="rotate(0,178,166)"/><circle cx="178" cy="190" r="6" transform="rotate(0,178,190)"/><circle cx="178" cy="214" r="6" transform="rotate(0,178,214)"/><circle cx="178" cy="226" r="6" transform="rotate(0,178,226)"/><circle cx="178" cy="310" r="6" transform="rotate(0,178,310)"/><circle cx="178" cy="322" r="6" transform="rotate(0,178,322)"/><circle cx="178" cy="358" r="6" transform="rotate(0,178,358)"/><circle cx="178" cy="394" r="6" transform="rotate(0,178,394)"/><circle cx="178" cy="406" r="6" transform="rotate(0,178,406)"/><circle cx="178" cy="454" r="6" transform="rotate(0,178,454)"/><circle cx="178" cy="466" r="6" transform="rotate(0,178,466)"/><circle cx="190" cy="34" r="6" transform="rotate(0,190,34)"/><circle cx="190" cy="46" r="6" transform="rotate(0,190,46)"/><circle cx="190" cy="58" r="6" transform="rotate(0,190,58)"/><circle cx="190" cy="82" r="6" transform="rotate(0,190,82)"/><circle cx="190" cy="118" r="6" transform="rotate(0,190,118)"/><circle cx="190" cy="130" r="6" transform="rotate(0,190,130)"/><circle cx="190" cy="142" r="6" transform="rotate(0,190,142)"/><circle cx="190" cy="166" r="6" transform="rotate(0,190,166)"/><circle cx="190" cy="202" r="6" transform="rotate(0,190,202)"/><circle cx="190" cy="238" r="6" transform="rotate(0,190,238)"/><circle cx="190" cy="250" r="6" transform="rotate(0,190,250)"/><circle cx="190" cy="274" r="6" transform="rotate(0,190,274)"/><circle cx="190" cy="310" r="6" transform="rotate(0,190,310)"/><circle cx="190" cy="358" r="6" transform="rotate(0,190,358)"/><circle cx="190" cy="370" r="6" transform="rotate(0,190,370)"/><circle cx="190" cy="382" r="6" transform="rotate(0,190,382)"/><circle cx="190" cy="406" r="6" transform="rotate(0,190,406)"/><circle cx="190" cy="442" r="6" transform="rotate(0,190,442)"/><circle cx="190" cy="454" r="6" transform="rotate(0,190,454)"/><circle cx="202" cy="70" r="6" transform="rotate(0,202,70)"/><circle cx="202" cy="82" r="6" transform="rotate(0,202,82)"/><circle cx="202" cy="94" r="6" transform="rotate(0,202,94)"/><circle cx="202" cy="106" r="6" transform="rotate(0,202,106)"/><circle cx="202" cy="130" r="6" transform="rotate(0,202,130)"/><circle cx="202" cy="142" r="6" transform="rotate(0,202,142)"/><circle cx="202" cy="166" r="6" transform="rotate(0,202,166)"/><circle cx="202" cy="214" r="6" transform="rotate(0,202,214)"/><circle cx="202" cy="226" r="6" transform="rotate(0,202,226)"/><circle cx="202" cy="250" r="6" transform="rotate(0,202,250)"/><circle cx="202" cy="262" r="6" transform="rotate(0,202,262)"/><circle cx="202" cy="286" r="6" transform="rotate(0,202,286)"/><circle cx="202" cy="346" r="6" transform="rotate(0,202,346)"/><circle cx="202" cy="358" r="6" transform="rotate(0,202,358)"/><circle cx="202" cy="370" r="6" transform="rotate(0,202,370)"/><circle cx="202" cy="394" r="6" transform="rotate(0,202,394)"/><circle cx="202" cy="418" r="6" transform="rotate(0,202,418)"/><circle cx="202" cy="430" r="6" transform="rotate(0,202,430)"/><circle cx="202" cy="454" r="6" transform="rotate(0,202,454)"/><circle cx="202" cy="466" r="6" transform="rotate(0,202,466)"/><circle cx="214" cy="34" r="6" transform="rotate(0,214,34)"/><circle cx="214" cy="70" r="6" transform="rotate(0,214,70)"/><circle cx="214" cy="94" r="6" transform="rotate(0,214,94)"/><circle cx="214" cy="142" r="6" transform="rotate(0,214,142)"/><circle cx="214" cy="178" r="6" transform="rotate(0,214,178)"/><circle cx="214" cy="238" r="6" transform="rotate(0,214,238)"/><circle cx="214" cy="262" r="6" transform="rotate(0,214,262)"/><circle cx="214" cy="274" r="6" transform="rotate(0,214,274)"/><circle cx="214" cy="394" r="6" transform="rotate(0,214,394)"/><circle cx="214" cy="418" r="6" transform="rotate(0,214,418)"/><circle cx="214" cy="430" r="6" transform="rotate(0,214,430)"/><circle cx="214" cy="442" r="6" transform="rotate(0,214,442)"/><circle cx="226" cy="46" r="6" transform="rotate(0,226,46)"/><circle cx="226" cy="58" r="6" transform="rotate(0,226,58)"/><circle cx="226" cy="94" r="6" transform="rotate(0,226,94)"/><circle cx="226" cy="106" r="6" transform="rotate(0,226,106)"/><circle cx="226" cy="118" r="6" transform="rotate(0,226,118)"/><circle cx="226" cy="130" r="6" transform="rotate(0,226,130)"/><circle cx="226" cy="142" r="6" transform="rotate(0,226,142)"/><circle cx="226" cy="154" r="6" transform="rotate(0,226,154)"/><circle cx="226" cy="166" r="6" transform="rotate(0,226,166)"/><circle cx="226" cy="202" r="6" transform="rotate(0,226,202)"/><circle cx="226" cy="226" r="6" transform="rotate(0,226,226)"/><circle cx="226" cy="250" r="6" transform="rotate(0,226,250)"/><circle cx="226" cy="274" r="6" transform="rotate(0,226,274)"/><circle cx="226" cy="286" r="6" transform="rotate(0,226,286)"/><circle cx="226" cy="310" r="6" transform="rotate(0,226,310)"/><circle cx="226" cy="334" r="6" transform="rotate(0,226,334)"/><circle cx="226" cy="346" r="6" transform="rotate(0,226,346)"/><circle cx="226" cy="382" r="6" transform="rotate(0,226,382)"/><circle cx="226" cy="394" r="6" transform="rotate(0,226,394)"/><circle cx="226" cy="406" r="6" transform="rotate(0,226,406)"/><circle cx="226" cy="418" r="6" transform="rotate(0,226,418)"/><circle cx="226" cy="442" r="6" transform="rotate(0,226,442)"/><circle cx="226" cy="454" r="6" transform="rotate(0,226,454)"/><circle cx="238" cy="34" r="6" transform="rotate(0,238,34)"/><circle cx="238" cy="46" r="6" transform="rotate(0,238,46)"/><circle cx="238" cy="58" r="6" transform="rotate(0,238,58)"/><circle cx="238" cy="70" r="6" transform="rotate(0,238,70)"/><circle cx="238" cy="118" r="6" transform="rotate(0,238,118)"/><circle cx="238" cy="154" r="6" transform="rotate(0,238,154)"/><circle cx="238" cy="166" r="6" transform="rotate(0,238,166)"/><circle cx="238" cy="190" r="6" transform="rotate(0,238,190)"/><circle cx="238" cy="238" r="6" transform="rotate(0,238,238)"/><circle cx="238" cy="250" r="6" transform="rotate(0,238,250)"/><circle cx="238" cy="262" r="6" transform="rotate(0,238,262)"/><circle cx="238" cy="298" r="6" transform="rotate(0,238,298)"/><circle cx="238" cy="322" r="6" transform="rotate(0,238,322)"/><circle cx="238" cy="334" r="6" transform="rotate(0,238,334)"/><circle cx="238" cy="358" r="6" transform="rotate(0,238,358)"/><circle cx="238" cy="370" r="6" transform="rotate(0,238,370)"/><circle cx="238" cy="382" r="6" transform="rotate(0,238,382)"/><circle cx="238" cy="406" r="6" transform="rotate(0,238,406)"/><circle cx="238" cy="430" r="6" transform="rotate(0,238,430)"/><circle cx="250" cy="58" r="6" transform="rotate(0,250,58)"/><circle cx="250" cy="70" r="6" transform="rotate(0,250,70)"/><circle cx="250" cy="82" r="6" transform="rotate(0,250,82)"/><circle cx="250" cy="106" r="6" transform="rotate(0,250,106)"/><circle cx="250" cy="118" r="6" transform="rotate(0,250,118)"/><circle cx="250" cy="130" r="6" transform="rotate(0,250,130)"/><circle cx="250" cy="166" r="6" transform="rotate(0,250,166)"/><circle cx="250" cy="190" r="6" transform="rotate(0,250,190)"/><circle cx="250" cy="286" r="6" transform="rotate(0,250,286)"/><circle cx="250" cy="298" r="6" transform="rotate(0,250,298)"/><circle cx="250" cy="310" r="6" transform="rotate(0,250,310)"/><circle cx="250" cy="358" r="6" transform="rotate(0,250,358)"/><circle cx="250" cy="442" r="6" transform="rotate(0,250,442)"/><circle cx="250" cy="466" r="6" transform="rotate(0,250,466)"/><circle cx="262" cy="58" r="6" transform="rotate(0,262,58)"/><circle cx="262" cy="70" r="6" transform="rotate(0,262,70)"/><circle cx="262" cy="82" r="6" transform="rotate(0,262,82)"/><circle cx="262" cy="118" r="6" transform="rotate(0,262,118)"/><circle cx="262" cy="130" r="6" transform="rotate(0,262,130)"/><circle cx="262" cy="154" r="6" transform="rotate(0,262,154)"/><circle cx="262" cy="190" r="6" transform="rotate(0,262,190)"/><circle cx="262" cy="202" r="6" transform="rotate(0,262,202)"/><circle cx="262" cy="250" r="6" transform="rotate(0,262,250)"/><circle cx="262" cy="274" r="6" transform="rotate(0,262,274)"/><circle cx="262" cy="298" r="6" transform="rotate(0,262,298)"/><circle cx="262" cy="322" r="6" transform="rotate(0,262,322)"/><circle cx="262" cy="346" r="6" transform="rotate(0,262,346)"/><circle cx="262" cy="358" r="6" transform="rotate(0,262,358)"/><circle cx="262" cy="370" r="6" transform="rotate(0,262,370)"/><circle cx="262" cy="394" r="6" transform="rotate(0,262,394)"/><circle cx="262" cy="406" r="6" transform="rotate(0,262,406)"/><circle cx="262" cy="418" r="6" transform="rotate(0,262,418)"/><circle cx="262" cy="430" r="6" transform="rotate(0,262,430)"/><circle cx="262" cy="466" r="6" transform="rotate(0,262,466)"/><circle cx="274" cy="34" r="6" transform="rotate(0,274,34)"/><circle cx="274" cy="46" r="6" transform="rotate(0,274,46)"/><circle cx="274" cy="58" r="6" transform="rotate(0,274,58)"/><circle cx="274" cy="82" r="6" transform="rotate(0,274,82)"/><circle cx="274" cy="94" r="6" transform="rotate(0,274,94)"/><circle cx="274" cy="106" r="6" transform="rotate(0,274,106)"/><circle cx="274" cy="142" r="6" transform="rotate(0,274,142)"/><circle cx="274" cy="166" r="6" transform="rotate(0,274,166)"/><circle cx="274" cy="178" r="6" transform="rotate(0,274,178)"/><circle cx="274" cy="190" r="6" transform="rotate(0,274,190)"/><circle cx="274" cy="202" r="6" transform="rotate(0,274,202)"/><circle cx="274" cy="238" r="6" transform="rotate(0,274,238)"/><circle cx="274" cy="262" r="6" transform="rotate(0,274,262)"/><circle cx="274" cy="298" r="6" transform="rotate(0,274,298)"/><circle cx="274" cy="322" r="6" transform="rotate(0,274,322)"/><circle cx="274" cy="334" r="6" transform="rotate(0,274,334)"/><circle cx="274" cy="346" r="6" transform="rotate(0,274,346)"/><circle cx="274" cy="382" r="6" transform="rotate(0,274,382)"/><circle cx="274" cy="394" r="6" transform="rotate(0,274,394)"/><circle cx="274" cy="406" r="6" transform="rotate(0,274,406)"/><circle cx="274" cy="418" r="6" transform="rotate(0,274,418)"/><circle cx="274" cy="430" r="6" transform="rotate(0,274,430)"/><circle cx="274" cy="442" r="6" transform="rotate(0,274,442)"/><circle cx="274" cy="466" r="6" transform="rotate(0,274,466)"/><circle cx="286" cy="118" r="6" transform="rotate(0,286,118)"/><circle cx="286" cy="130" r="6" transform="rotate(0,286,130)"/><circle cx="286" cy="142" r="6" transform="rotate(0,286,142)"/><circle cx="286" cy="154" r="6" transform="rotate(0,286,154)"/><circle cx="286" cy="178" r="6" transform="rotate(0,286,178)"/><circle cx="286" cy="190" r="6" transform="rotate(0,286,190)"/><circle cx="286" cy="202" r="6" transform="rotate(0,286,202)"/><circle cx="286" cy="226" r="6" transform="rotate(0,286,226)"/><circle cx="286" cy="238" r="6" transform="rotate(0,286,238)"/><circle cx="286" cy="298" r="6" transform="rotate(0,286,298)"/><circle cx="286" cy="310" r="6" transform="rotate(0,286,310)"/><circle cx="286" cy="322" r="6" transform="rotate(0,286,322)"/><circle cx="286" cy="346" r="6" transform="rotate(0,286,346)"/><circle cx="286" cy="358" r="6" transform="rotate(0,286,358)"/><circle cx="286" cy="370" r="6" transform="rotate(0,286,370)"/><circle cx="286" cy="406" r="6" transform="rotate(0,286,406)"/><circle cx="286" cy="418" r="6" transform="rotate(0,286,418)"/><circle cx="286" cy="430" r="6" transform="rotate(0,286,430)"/><circle cx="286" cy="442" r="6" transform="rotate(0,286,442)"/><circle cx="286" cy="454" r="6" transform="rotate(0,286,454)"/><circle cx="298" cy="46" r="6" transform="rotate(0,298,46)"/><circle cx="298" cy="94" r="6" transform="rotate(0,298,94)"/><circle cx="298" cy="106" r="6" transform="rotate(0,298,106)"/><circle cx="298" cy="142" r="6" transform="rotate(0,298,142)"/><circle cx="298" cy="154" r="6" transform="rotate(0,298,154)"/><circle cx="298" cy="166" r="6" transform="rotate(0,298,166)"/><circle cx="298" cy="190" r="6" transform="rotate(0,298,190)"/><circle cx="298" cy="202" r="6" transform="rotate(0,298,202)"/><circle cx="298" cy="214" r="6" transform="rotate(0,298,214)"/><circle cx="298" cy="238" r="6" transform="rotate(0,298,238)"/><circle cx="298" cy="250" r="6" transform="rotate(0,298,250)"/><circle cx="298" cy="262" r="6" transform="rotate(0,298,262)"/><circle cx="298" cy="274" r="6" transform="rotate(0,298,274)"/><circle cx="298" cy="322" r="6" transform="rotate(0,298,322)"/><circle cx="298" cy="358" r="6" transform="rotate(0,298,358)"/><circle cx="298" cy="394" r="6" transform="rotate(0,298,394)"/><circle cx="298" cy="430" r="6" transform="rotate(0,298,430)"/><circle cx="298" cy="454" r="6" transform="rotate(0,298,454)"/><circle cx="298" cy="466" r="6" transform="rotate(0,298,466)"/><circle cx="310" cy="46" r="6" transform="rotate(0,310,46)"/><circle cx="310" cy="70" r="6" transform="rotate(0,310,70)"/><circle cx="310" cy="94" r="6" transform="rotate(0,310,94)"/><circle cx="310" cy="130" r="6" transform="rotate(0,310,130)"/><circle cx="310" cy="166" r="6" transform="rotate(0,310,166)"/><circle cx="310" cy="178" r="6" transform="rotate(0,310,178)"/><circle cx="310" cy="238" r="6" transform="rotate(0,310,238)"/><circle cx="310" cy="250" r="6" transform="rotate(0,310,250)"/><circle cx="310" cy="274" r="6" transform="rotate(0,310,274)"/><circle cx="310" cy="346" r="6" transform="rotate(0,310,346)"/><circle cx="310" cy="358" r="6" transform="rotate(0,310,358)"/><circle cx="310" cy="382" r="6" transform="rotate(0,310,382)"/><circle cx="310" cy="394" r="6" transform="rotate(0,310,394)"/><circle cx="310" cy="406" r="6" transform="rotate(0,310,406)"/><circle cx="310" cy="430" r="6" transform="rotate(0,310,430)"/><circle cx="310" cy="454" r="6" transform="rotate(0,310,454)"/><circle cx="322" cy="70" r="6" transform="rotate(0,322,70)"/><circle cx="322" cy="94" r="6" transform="rotate(0,322,94)"/><circle cx="322" cy="106" r="6" transform="rotate(0,322,106)"/><circle cx="322" cy="118" r="6" transform="rotate(0,322,118)"/><circle cx="322" cy="142" r="6" transform="rotate(0,322,142)"/><circle cx="322" cy="166" r="6" transform="rotate(0,322,166)"/><circle cx="322" cy="190" r="6" transform="rotate(0,322,190)"/><circle cx="322" cy="202" r="6" transform="rotate(0,322,202)"/><circle cx="322" cy="214" r="6" transform="rotate(0,322,214)"/><circle cx="322" cy="226" r="6" transform="rotate(0,322,226)"/><circle cx="322" cy="238" r="6" transform="rotate(0,322,238)"/><circle cx="322" cy="250" r="6" transform="rotate(0,322,250)"/><circle cx="322" cy="310" r="6" transform="rotate(0,322,310)"/><circle cx="322" cy="334" r="6" transform="rotate(0,322,334)"/><circle cx="322" cy="346" r="6" transform="rotate(0,322,346)"/><circle cx="322" cy="370" r="6" transform="rotate(0,322,370)"/><circle cx="322" cy="382" r="6" transform="rotate(0,322,382)"/><circle cx="322" cy="394" r="6" transform="rotate(0,322,394)"/><circle cx="322" cy="406" r="6" transform="rotate(0,322,406)"/><circle cx="322" cy="418" r="6" transform="rotate(0,322,418)"/><circle cx="322" cy="430" r="6" transform="rotate(0,322,430)"/><circle cx="334" cy="34" r="6" transform="rotate(0,334,34)"/><circle cx="334" cy="46" r="6" transform="rotate(0,334,46)"/><circle cx="334" cy="82" r="6" transform="rotate(0,334,82)"/><circle cx="334" cy="94" r="6" transform="rotate(0,334,94)"/><circle cx="334" cy="142" r="6" transform="rotate(0,334,142)"/><circle cx="334" cy="154" r="6" transform="rotate(0,334,154)"/><circle cx="334" cy="166" r="6" transform="rotate(0,334,166)"/><circle cx="334" cy="178" r="6" transform="rotate(0,334,178)"/><circle cx="334" cy="214" r="6" transform="rotate(0,334,214)"/><circle cx="334" cy="226" r="6" transform="rotate(0,334,226)"/><circle cx="334" cy="274" r="6" transform="rotate(0,334,274)"/><circle cx="334" cy="286" r="6" transform="rotate(0,334,286)"/><circle cx="334" cy="310" r="6" transform="rotate(0,334,310)"/><circle cx="334" cy="346" r="6" transform="rotate(0,334,346)"/><circle cx="334" cy="370" r="6" transform="rotate(0,334,370)"/><circle cx="334" cy="382" r="6" transform="rotate(0,334,382)"/><circle cx="334" cy="394" r="6" transform="rotate(0,334,394)"/><circle cx="334" cy="454" r="6" transform="rotate(0,334,454)"/><circle cx="346" cy="34" r="6" transform="rotate(0,346,34)"/><circle cx="346" cy="106" r="6" transform="rotate(0,346,106)"/><circle cx="346" cy="118" r="6" transform="rotate(0,346,118)"/><circle cx="346" cy="130" r="6" transform="rotate(0,346,130)"/><circle cx="346" cy="142" r="6" transform="rotate(0,346,142)"/><circle cx="346" cy="154" r="6" transform="rotate(0,346,154)"/><circle cx="346" cy="166" r="6" transform="rotate(0,346,166)"/><circle cx="346" cy="214" r="6" transform="rotate(0,346,214)"/><circle cx="346" cy="226" r="6" transform="rotate(0,346,226)"/><circle cx="346" cy="274" r="6" transform="rotate(0,346,274)"/><circle cx="346" cy="298" r="6" transform="rotate(0,346,298)"/><circle cx="346" cy="322" r="6" transform="rotate(0,346,322)"/><circle cx="346" cy="394" r="6" transform="rotate(0,346,394)"/><circle cx="346" cy="406" r="6" transform="rotate(0,346,406)"/><circle cx="346" cy="418" r="6" transform="rotate(0,346,418)"/><circle cx="346" cy="442" r="6" transform="rotate(0,346,442)"/><circle cx="346" cy="454" r="6" transform="rotate(0,346,454)"/><circle cx="346" cy="466" r="6" transform="rotate(0,346,466)"/><circle cx="358" cy="34" r="6" transform="rotate(0,358,34)"/><circle cx="358" cy="70" r="6" transform="rotate(0,358,70)"/><circle cx="358" cy="82" r="6" transform="rotate(0,358,82)"/><circle cx="358" cy="94" r="6" transform="rotate(0,358,94)"/><circle cx="358" cy="130" r="6" transform="rotate(0,358,130)"/><circle cx="358" cy="154" r="6" transform="rotate(0,358,154)"/><circle cx="358" cy="166" r="6" transform="rotate(0,358,166)"/><circle cx="358" cy="178" r="6" transform="rotate(0,358,178)"/><circle cx="358" cy="190" r="6" transform="rotate(0,358,190)"/><circle cx="358" cy="202" r="6" transform="rotate(0,358,202)"/><circle cx="358" cy="214" r="6" transform="rotate(0,358,214)"/><circle cx="358" cy="238" r="6" transform="rotate(0,358,238)"/><circle cx="358" cy="358" r="6" transform="rotate(0,358,358)"/><circle cx="358" cy="382" r="6" transform="rotate(0,358,382)"/><circle cx="358" cy="406" r="6" transform="rotate(0,358,406)"/><circle cx="358" cy="442" r="6" transform="rotate(0,358,442)"/><circle cx="358" cy="454" r="6" transform="rotate(0,358,454)"/><circle cx="358" cy="466" r="6" transform="rotate(0,358,466)"/><circle cx="370" cy="34" r="6" transform="rotate(0,370,34)"/><circle cx="370" cy="58" r="6" transform="rotate(0,370,58)"/><circle cx="370" cy="82" r="6" transform="rotate(0,370,82)"/><circle cx="370" cy="94" r="6" transform="rotate(0,370,94)"/><circle cx="370" cy="106" r="6" transform="rotate(0,370,106)"/><circle cx="370" cy="118" r="6" transform="rotate(0,370,118)"/><circle cx="370" cy="154" r="6" transform="rotate(0,370,154)"/><circle cx="370" cy="166" r="6" transform="rotate(0,370,166)"/><circle cx="370" cy="226" r="6" transform="rotate(0,370,226)"/><circle cx="370" cy="262" r="6" transform="rotate(0,370,262)"/><circle cx="370" cy="298" r="6" transform="rotate(0,370,298)"/><circle cx="370" cy="322" r="6" transform="rotate(0,370,322)"/><circle cx="370" cy="334" r="6" transform="rotate(0,370,334)"/><circle cx="370" cy="346" r="6" transform="rotate(0,370,346)"/><circle cx="370" cy="370" r="6" transform="rotate(0,370,370)"/><circle cx="370" cy="382" r="6" transform="rotate(0,370,382)"/><circle cx="370" cy="394" r="6" transform="rotate(0,370,394)"/><circle cx="370" cy="406" r="6" transform="rotate(0,370,406)"/><circle cx="370" cy="418" r="6" transform="rotate(0,370,418)"/><circle cx="370" cy="430" r="6" transform="rotate(0,370,430)"/><circle cx="370" cy="442" r="6" transform="rotate(0,370,442)"/><circle cx="382" cy="130" r="6" transform="rotate(0,382,130)"/><circle cx="382" cy="154" r="6" transform="rotate(0,382,154)"/><circle cx="382" cy="202" r="6" transform="rotate(0,382,202)"/><circle cx="382" cy="250" r="6" transform="rotate(0,382,250)"/><circle cx="382" cy="262" r="6" transform="rotate(0,382,262)"/><circle cx="382" cy="286" r="6" transform="rotate(0,382,286)"/><circle cx="382" cy="310" r="6" transform="rotate(0,382,310)"/><circle cx="382" cy="370" r="6" transform="rotate(0,382,370)"/><circle cx="382" cy="418" r="6" transform="rotate(0,382,418)"/><circle cx="382" cy="430" r="6" transform="rotate(0,382,430)"/><circle cx="394" cy="130" r="6" transform="rotate(0,394,130)"/><circle cx="394" cy="166" r="6" transform="rotate(0,394,166)"/><circle cx="394" cy="190" r="6" transform="rotate(0,394,190)"/><circle cx="394" cy="202" r="6" transform="rotate(0,394,202)"/><circle cx="394" cy="214" r="6" transform="rotate(0,394,214)"/><circle cx="394" cy="226" r="6" transform="rotate(0,394,226)"/><circle cx="394" cy="238" r="6" transform="rotate(0,394,238)"/><circle cx="394" cy="310" r="6" transform="rotate(0,394,310)"/><circle cx="394" cy="346" r="6" transform="rotate(0,394,346)"/><circle cx="394" cy="370" r="6" transform="rotate(0,394,370)"/><circle cx="394" cy="394" r="6" transform="rotate(0,394,394)"/><circle cx="394" cy="418" r="6" transform="rotate(0,394,418)"/><circle cx="394" cy="430" r="6" transform="rotate(0,394,430)"/><circle cx="394" cy="442" r="6" transform="rotate(0,394,442)"/><circle cx="394" cy="454" r="6" transform="rotate(0,394,454)"/><circle cx="394" cy="466" r="6" transform="rotate(0,394,466)"/><circle cx="406" cy="166" r="6" transform="rotate(0,406,166)"/><circle cx="406" cy="178" r="6" transform="rotate(0,406,178)"/><circle cx="406" cy="238" r="6" transform="rotate(0,406,238)"/><circle cx="406" cy="250" r="6" transform="rotate(0,406,250)"/><circle cx="406" cy="286" r="6" transform="rotate(0,406,286)"/><circle cx="406" cy="322" r="6" transform="rotate(0,406,322)"/><circle cx="406" cy="346" r="6" transform="rotate(0,406,346)"/><circle cx="406" cy="370" r="6" transform="rotate(0,406,370)"/><circle cx="406" cy="418" r="6" transform="rotate(0,406,418)"/><circle cx="406" cy="430" r="6" transform="rotate(0,406,430)"/><circle cx="418" cy="154" r="6" transform="rotate(0,418,154)"/><circle cx="418" cy="166" r="6" transform="rotate(0,418,166)"/><circle cx="418" cy="202" r="6" transform="rotate(0,418,202)"/><circle cx="418" cy="214" r="6" transform="rotate(0,418,214)"/><circle cx="418" cy="238" r="6" transform="rotate(0,418,238)"/><circle cx="418" cy="250" r="6" transform="rotate(0,418,250)"/><circle cx="418" cy="274" r="6" transform="rotate(0,418,274)"/><circle cx="418" cy="286" r="6" transform="rotate(0,418,286)"/><circle cx="418" cy="298" r="6" transform="rotate(0,418,298)"/><circle cx="418" cy="310" r="6" transform="rotate(0,418,310)"/><circle cx="418" cy="322" r="6" transform="rotate(0,418,322)"/><circle cx="418" cy="334" r="6" transform="rotate(0,418,334)"/><circle cx="418" cy="346" r="6" transform="rotate(0,418,346)"/><circle cx="418" cy="358" r="6" transform="rotate(0,418,358)"/><circle cx="418" cy="370" r="6" transform="rotate(0,418,370)"/><circle cx="418" cy="382" r="6" transform="rotate(0,418,382)"/><circle cx="418" cy="394" r="6" transform="rotate(0,418,394)"/><circle cx="418" cy="406" r="6" transform="rotate(0,418,406)"/><circle cx="418" cy="418" r="6" transform="rotate(0,418,418)"/><circle cx="418" cy="442" r="6" transform="rotate(0,418,442)"/><circle cx="418" cy="466" r="6" transform="rotate(0,418,466)"/><circle cx="430" cy="166" r="6" transform="rotate(0,430,166)"/><circle cx="430" cy="190" r="6" transform="rotate(0,430,190)"/><circle cx="430" cy="214" r="6" transform="rotate(0,430,214)"/><circle cx="430" cy="226" r="6" transform="rotate(0,430,226)"/><circle cx="430" cy="250" r="6" transform="rotate(0,430,250)"/><circle cx="430" cy="274" r="6" transform="rotate(0,430,274)"/><circle cx="430" cy="298" r="6" transform="rotate(0,430,298)"/><circle cx="430" cy="358" r="6" transform="rotate(0,430,358)"/><circle cx="430" cy="370" r="6" transform="rotate(0,430,370)"/><circle cx="430" cy="394" r="6" transform="rotate(0,430,394)"/><circle cx="430" cy="454" r="6" transform="rotate(0,430,454)"/><circle cx="442" cy="154" r="6" transform="rotate(0,442,154)"/><circle cx="442" cy="166" r="6" transform="rotate(0,442,166)"/><circle cx="442" cy="214" r="6" transform="rotate(0,442,214)"/><circle cx="442" cy="226" r="6" transform="rotate(0,442,226)"/><circle cx="442" cy="238" r="6" transform="rotate(0,442,238)"/><circle cx="442" cy="250" r="6" transform="rotate(0,442,250)"/><circle cx="442" cy="274" r="6" transform="rotate(0,442,274)"/><circle cx="442" cy="310" r="6" transform="rotate(0,442,310)"/><circle cx="442" cy="322" r="6" transform="rotate(0,442,322)"/><circle cx="442" cy="334" r="6" transform="rotate(0,442,334)"/><circle cx="442" cy="346" r="6" transform="rotate(0,442,346)"/><circle cx="442" cy="382" r="6" transform="rotate(0,442,382)"/><circle cx="442" cy="406" r="6" transform="rotate(0,442,406)"/><circle cx="442" cy="442" r="6" transform="rotate(0,442,442)"/><circle cx="442" cy="466" r="6" transform="rotate(0,442,466)"/><circle cx="454" cy="130" r="6" transform="rotate(0,454,130)"/><circle cx="454" cy="142" r="6" transform="rotate(0,454,142)"/><circle cx="454" cy="166" r="6" transform="rotate(0,454,166)"/><circle cx="454" cy="178" r="6" transform="rotate(0,454,178)"/><circle cx="454" cy="190" r="6" transform="rotate(0,454,190)"/><circle cx="454" cy="202" r="6" transform="rotate(0,454,202)"/><circle cx="454" cy="214" r="6" transform="rotate(0,454,214)"/><circle cx="454" cy="226" r="6" transform="rotate(0,454,226)"/><circle cx="454" cy="238" r="6" transform="rotate(0,454,238)"/><circle cx="454" cy="310" r="6" transform="rotate(0,454,310)"/><circle cx="454" cy="370" r="6" transform="rotate(0,454,370)"/><circle cx="454" cy="394" r="6" transform="rotate(0,454,394)"/><circle cx="454" cy="406" r="6" transform="rotate(0,454,406)"/><circle cx="454" cy="466" r="6" transform="rotate(0,454,466)"/><circle cx="466" cy="142" r="6" transform="rotate(0,466,142)"/><circle cx="466" cy="154" r="6" transform="rotate(0,466,154)"/><circle cx="466" cy="166" r="6" transform="rotate(0,466,166)"/><circle cx="466" cy="178" r="6" transform="rotate(0,466,178)"/><circle cx="466" cy="214" r="6" transform="rotate(0,466,214)"/><circle cx="466" cy="250" r="6" transform="rotate(0,466,250)"/><circle cx="466" cy="262" r="6" transform="rotate(0,466,262)"/><circle cx="466" cy="274" r="6" transform="rotate(0,466,274)"/><circle cx="466" cy="370" r="6" transform="rotate(0,466,370)"/><circle cx="466" cy="382" r="6" transform="rotate(0,466,382)"/><circle cx="466" cy="406" r="6" transform="rotate(0,466,406)"/><circle cx="466" cy="418" r="6" transform="rotate(0,466,418)"/><circle cx="466" cy="430" r="6" transform="rotate(0,466,430)"/><circle cx="466" cy="466" r="6" transform="rotate(0,466,466)"/></clipPath><clipPath id="clip-path-corners-square-color-0-0"><path clip-rule="evenodd" d="M 70 28a 42 42 0 1 0 0.1 0zm 0 12a 30 30 0 1 1 -0.1 0Z" transform="rotate(0,70,70)"/></clipPath><clipPath id="clip-path-corners-dot-color-0-0"><circle cx="70" cy="70" r="18" transform="rotate(0,70,70)"/></clipPath><clipPath id="clip-path-corners-square-color-1-0"><path clip-rule="evenodd" d="M 430 28a 42 42 0 1 0 0.1 0zm 0 12a 30 30 0 1 1 -0.1 0Z" transform="rotate(90,430,70)"/></clipPath><clipPath id="clip-path-corners-dot-color-1-0"><circle cx="430" cy="70" r="18" transform="rotate(90,430,70)"/></clipPath><clipPath id="clip-path-corners-square-color-0-1"><path clip-rule="evenodd" d="M 70 388a 42 42 0 1 0 0.1 0zm 0 12a 30 30 0 1 1 -0.1 0Z" transform="rotate(-90,70,430)"/></clipPath><clipPath id="clip-path-corners-dot-color-0-1"><circle cx="70" cy="430" r="18" transform="rotate(-90,70,430)"/></clipPath></defs><rect x="0" y="0" height="500" width="500" clip-path="url('#clip-path-background-color')" fill="#fff"/><rect x="0" y="0" height="500" width="500" clip-path="url('#clip-path-dot-color')" fill="#000000"/><rect x="28" y="28" height="84" width="84" clip-path="url('#clip-path-corners-square-color-0-0')" fill="#000000"/><rect x="52" y="52" height="36" width="36" clip-path="url('#clip-path-corners-dot-color-0-0')" fill="#000000"/><rect x="388" y="28" height="84" width="84" clip-path="url('#clip-path-corners-square-color-1-0')" fill="#000000"/><rect x="412" y="52" height="36" width="36" clip-path="url('#clip-path-corners-dot-color-1-0')" fill="#000000"/><rect x="28" y="388" height="84" width="84" clip-path="url('#clip-path-corners-square-color-0-1')" fill="#000000"/><rect x="52" y="412" height="36" width="36" clip-path="url('#clip-path-corners-dot-color-0-1')" fill="#000000"/></svg>