<?xml version="1.0" standalone="no"?>
<svg xmlns="http://www.w3.org/2000/svg" width="500" height="500"><defs><clipPath id="clip-path-dot-color"><circle cx="34" cy="154" r="6" transform="rotate(0,34,154)"/><circle cx="34" cy="166" r="6" transform="rotate(0,34,166)"/><circle cx="34" cy="178" r="6" transform="rotate(0,34,178)"/><circle cx="34" cy="214" r="6" transform="rotate(0,34,214)"/><circle cx="34" cy="250" r="6" transform="rotate(0,34,250)"/><circle cx="34" cy="262" r="6" transform="rotate(0,34,262)"/><circle cx="34" cy="274" r="6" transform="rotate(0,34,274)"/><circle cx="34" cy="298" r="6" transform="rotate(0,34,298)"/><circle cx="34" cy="322" r="6" transform="rotate(0,34,322)"/><circle cx="34" cy="334" r="6" transform="rotate(0,34,334)"/><circle cx="34" cy="370" r="6" transform="rotate(0,34,370)"/><circle cx="46" cy="130" r="6" transform="rotate(0,46,130)"/><circle cx="46" cy="166" r="6" transform="rotate(0,46,166)"/><circle cx="46" cy="190" r="6" transform="rotate(0,46,190)"/><circle cx="46" cy="202" r="6" transform="rotate(0,46,202)"/><circle cx="46" cy="238" r="6" transform="rotate(0,46,238)"/><circle cx="46" cy="274" r="6" transform="rotate(0,46,274)"/><circle cx="46" cy="298" r="6" transform="rotate(0,46,298)"/><circle cx="46" cy="310" r="6" transform="rotate(0,46,310)"/><circle cx="46" cy="322" r="6" transform="rotate(0,46,322)"/><circle cx="58" cy="130" r="6" transform="rotate(0,58,130)"/><circle cx="58" cy="142" r="6" transform="rotate(0,58,142)"/><circle cx="58" cy="154" r="6" transform="rotate(0,58,154)"/><circle cx="58" cy="190" r="6" transform="rotate(0,58,190)"/><circle cx="58" cy="202" r="6" transform="rotate(0,58,202)"/><circle cx="58" cy="214" r="6" transform="rotate(0,58,214)"/><circle cx="58" cy="226" r="6" transform="rotate(0,58,226)"/><circle cx="58" cy="250" r="6" transform="rotate(0,58,250)"/><circle cx="58" cy="262" r="6" transform="rotate(0,58,262)"/><circle cx="58" cy="298" r="6" transform="rotate(0,58,298)"/><circle cx="58" cy="334" r="6" transform="rotate(0,58,334)"/><circle cx="58" cy="346" r="6" transform="rotate(0,58,346)"/><circle cx="58" cy="358" r="6" transform="rotate(0,58,358)"/><circle cx="58" cy="370" r="6" transform="rotate(0,58,370)"/><circle cx="70" cy="190" r="6" transform="rotate(0,70,190)"/><circle cx="70" cy="202" r="6" transform="rotate(0,70,202)"/><circle cx="70" cy="214" r="6" transform="rotate(0,70,214)"/><circle cx="70" cy="226" r="6" transform="rotate(0,70,226)"/><circle cx="70" cy="238" r="6" transform="rotate(0,70,238)"/><circle cx="70" cy="262" r="6" transform="rotate(0,70,262)"/><circle cx="70" cy="274" r="6" transform="rotate(0,70,274)"/><circle cx="70" cy="298" r="6" transform="rotate(0,70,298)"/><circle cx="70" cy="322" r="6" transform="rotate(0,70,322)"/><circle cx="70" cy="334" r="6" transform="rotate(0,70,334)"/><circle cx="70" cy="346" r="6" transform="rotate(0,70,346)"/><circle cx="82" cy="178" r="6" transform="rotate(0,82,178)"/><circle cx="82" cy="202" r="6" transform="rotate(0,82,202)"/><circle cx="82" cy="226" r="6" transform="rotate(0,82,226)"/><circle cx="82" cy="286" r="6" transform="rotate(0,82,286)"/><circle cx="82" cy="346" r="6" transform="rotate(0,82,346)"/><circle cx="82" cy="358" r="6" transform="rotate(0,82,358)"/><circle cx="94" cy="142" r="6" transform="rotate(0,94,142)"/><circle cx="94" cy="154" r="6" transform="rotate(0,94,154)"/><circle cx="94" cy="166" r="6" transform="rotate(0,94,166)"/><circle cx="94" cy="178" r="6" transform="rotate(0,94,178)"/><circle cx="94" cy="202" r="6" transform="rotate(0,94,202)"/><circle cx="94" cy="214" r="6" transform="rotate(0,94,214)"/><circle cx="94" cy="238" r="6" transform="rotate(0,94,238)"/><circle cx="94" cy="262" r="6" transform="rotate(0,94,262)"/><circle cx="94" cy="274" r="6" transform="rotate(0,94,274)"/><circle cx="94" cy="286" r="6" transform="rotate(0,94,286)"/><circle cx="94" cy="322" r="6" transform="rotate(0,94,322)"/><circle cx="94" cy="334" r="6" transform="rotate(0,94,334)"/><circle cx="106" cy="130" r="6" transform="rotate(0,106,130)"/><circle cx="106" cy="154" r="6" transform="rotate(0,106,154)"/><circle cx="106" cy="178" r="6" transform="rotate(0,106,178)"/><circle cx="106" cy="202" r="6" transform="rotate(0,106,202)"/><circle cx="106" cy="226" r="6" transform="rotate(0,106,226)"/><circle cx="106" cy="250" r="6" transform="rotate(0,106,250)"/><circle cx="106" cy="274" r="6" transform="rotate(0,106,274)"/><circle cx="106" cy="298" r="6" transform="rotate(0,106,298)"/><circle cx="106" cy="322" r="6" transform="rotate(0,106,322)"/><circle cx="106" cy="346" r="6" transform="rotate(0,106,346)"/><circle cx="106" cy="370" r="6" transform="rotate(0,106,370)"/><circle cx="118" cy="166" r="6" transform="rotate(0,118,166)"/><circle cx="118" cy="178" r="6" transform="rotate(0,118,178)"/><circle cx="118" cy="214" r="6" transform="rotate(0,118,214)"/><circle cx="118" cy="226" r="6" transform="rotate(0,118,226)"/><circle cx="118" cy="238" r="6" transform="rotate(0,118,238)"/><circle cx="118" cy="250" r="6" transform="rotate(0,118,250)"/><circle cx="118" cy="262" r="6" transform="rotate(0,118,262)"/><circle cx="118" cy="274" r="6" transform="rotate(0,118,274)"/><circle cx="118" cy="298" r="6" transform="rotate(0,118,298)"/><circle cx="118" cy="310" r="6" transform="rotate(0,118,310)"/><circle cx="118" cy="322" r="6" transform="rotate(0,118,322)"/><circle cx="118" cy="358" r="6" transform="rotate(0,118,358)"/><circle cx="118" cy="370" r="6" transform="rotate(0,118,370)"/><circle cx="130" cy="46" r="6" transform="rotate(0,130,46)"/><circle cx="130" cy="58" r="6" transform="rotate(0,130,58)"/><circle cx="130" cy="70" r="6" transform="rotate(0,130,70)"/><circle cx="130" cy="94" r="6" transform="rotate(0,130,94)"/><circle cx="130" cy="106" r="6" transform="rotate(0,130,106)"/><circle cx="130" cy="154" r="6" transform="rotate(0,130,154)"/><circle cx="130" cy="214" r="6" transform="rotate(0,130,214)"/><circle cx="130" cy="226" r="6" transform="rotate(0,130,226)"/><circle cx="130" cy="238" r="6" transform="rotate(0,130,238)"/><circle cx="130" cy="250" r="6" transform="rotate(0,130,250)"/><circle cx="130" cy="262" r="6" transform="rotate(0,130,262)"/><circle cx="130" cy="274" r="6" transform="rotate(0,130,274)"/><circle cx="130" cy="286" r="6" transform="rotate(0,130,286)"/><circle cx="130" cy="346" r="6" transform="rotate(0,130,346)"/><circle cx="130" cy="358" r="6" transform="rotate(0,130,358)"/><circle cx="130" cy="370" r="6" transform="rotate(0,130,370)"/><circle cx="130" cy="442" r="6" transform="rotate(0,130,442)"/><circle cx="130" cy="454" r="6" transform="rotate(0,130,454)"/><circle cx="142" cy="34" r="6" transform="rotate(0,142,34)"/><circle cx="142" cy="58" r="6" transform="rotate(0,142,58)"/><circle cx="142" cy="70" r="6" transform="rotate(0,142,70)"/><circle cx="142" cy="82" r="6" transform="rotate(0,142,82)"/><circle cx="142" cy="118" r="6" transform="rotate(0,142,118)"/><circle cx="142" cy="130" r="6" transform="rotate(0,142,130)"/><circle cx="142" cy="142" r="6" transform="rotate(0,142,142)"/><circle cx="142" cy="166" r="6" transform="rotate(0,142,166)"/><circle cx="142" cy="214" r="6" transform="rotate(0,142,214)"/><circle cx="142" cy="226" r="6" transform="rotate(0,142,226)"/><circle cx="142" cy="238" r="6" transform="rotate(0,142,238)"/><circle cx="142" cy="262" r="6" transform="rotate(0,142,262)"/><circle cx="142" cy="298" r="6" transform="rotate(0,142,298)"/><circle cx="142" cy="310" r="6" transform="rotate(0,142,310)"/><circle cx="142" cy="322" r="6" transform="rotate(0,142,322)"/><circle cx="142" cy="334" r="6" transform="rotate(0,142,334)"/><circle cx="142" cy="370" r="6" transform="rotate(0,142,370)"/><circle cx="142" cy="406" r="6" transform="rotate(0,142,406)"/><circle cx="142" cy="430" r="6" transform="rotate(0,142,430)"/><circle cx="142" cy="454" r="6" transform="rotate(0,142,454)"/><circle cx="154" cy="58" r="6" transform="rotate(0,154,58)"/><circle cx="154" cy="70" r="6" transform="rotate(0,154,70)"/><circle cx="154" cy="82" r="6" transform="rotate(0,154,82)"/><circle cx="154" cy="94" r="6" transform="rotate(0,154,94)"/><circle cx="154" cy="106" r="6" transform="rotate(0,154,106)"/><circle cx="154" cy="130" r="6" transform="rotate(0,154,130)"/><circle cx="154" cy="142" r="6" transform="rotate(0,154,142)"/><circle cx="154" cy="202" r="6" transform="rotate(0,154,202)"/><circle cx="154" cy="214" r="6" transform="rotate(0,154,214)"/><circle cx="154" cy="238" r="6" transform="rotate(0,154,238)"/><circle cx="154" cy="298" r="6" transform="rotate(0,154,298)"/><circle cx="154" cy="310" r="6" transform="rotate(0,154,310)"/><circle cx="154" cy="322" r="6" transform="rotate(0,154,322)"/><circle cx="154" cy="334" r="6" transform="rotate(0,154,334)"/><circle cx="154" cy="370" r="6" transform="rotate(0,154,370)"/><circle cx="154" cy="382" r="6" transform="rotate(0,154,382)"/><circle cx="154" cy="418" r="6" transform="rotate(0,154,418)"/><circle cx="154" cy="430" r="6" transform="rotate(0,154,430)"/><circle cx="166" cy="70" r="6" transform="rotate(0,166,70)"/><circle cx="166" cy="82" r="6" transform="rotate(0,166,82)"/><circle cx="166" cy="94" r="6" transform="rotate(0,166,94)"/><circle cx="166" cy="142" r="6" transform="rotate(0,166,142)"/><circle cx="166" cy="166" r="6" transform="rotate(0,166,166)"/><circle cx="166" cy="178" r="6" transform="rotate(0,166,178)"/><circle cx="166" cy="310" r="6" transform="rotate(0,166,310)"/><circle cx="166" cy="334" r="6" transform="rotate(0,166,334)"/><circle cx="166" cy="346" r="6" transform="rotate(0,166,346)"/><circle cx="166" cy="370" r="6" transform="rotate(0,166,370)"/><circle cx="166" cy="430" r="6" transform="rotate(0,166,430)"/><circle cx="166" cy="442" r="6" transform="rotate(0,166,442)"/><circle cx="178" cy="70" r="6" transform="rotate(0,178,70)"/><circle cx="178" cy="82" r="6" transform="rotate(0,178,82)"/><circle cx="178" cy="94" r="6" transform="rotate(0,178,94)"/><circle cx="178" cy="106" r="6" transform="rotate(0,178,106)"/><circle cx="178" cy="118" r="6" transform="rotate(0,178,118)"/><circle cx="178" cy="130" r="6" transform="rotate(0,178,130)"/><circle cx="178" cy="142" r="6" transform="rotate(0,178,142)"/><circle cx="178" cy="166" r="6" transform="rotate(0,178,166)"/><circle cx="178" cy="178" r="6" transform="rotate(0,178,178)"/><circle cx="178" cy="238" r="6" transform="rotate(0,178,238)"/><circle cx="178" cy="250" r="6" transform="rotate(0,178,250)"/><circle cx="178" cy="274" r="6" transform="rotate(0,178,274)"/><circle cx="178" cy="298" r="6" transform="rotate(0,178,298)"/><circle cx="178" cy="322" r="6" transform="rotate(0,178,322)"/><circle cx="178" cy="334" r="6" transform="rotate(0,178,334)"/><circle cx="178" cy="346" r="6" transform="rotate(0,178,346)"/><circle cx="178" cy="382" r="6" transform="rotate(0,178,382)"/><circle cx="178" cy="394" r="6" transform="rotate(0,178,394)"/><circle cx="178" cy="406" r="6" transform="rotate(0,178,406)"/><circle cx="178" cy="418" r="6" transform="rotate(0,178,418)"/><circle cx="178" cy="430" r="6" transform="rotate(0,178,430)"/><circle cx="178" cy="442" r="6" transform="rotate(0,178,442)"/><circle cx="178" cy="466" r="6" transform="rotate(0,178,466)"/><circle cx="190" cy="46" r="6" transform="rotate(0,190,46)"/><circle cx="190" cy="58" r="6" transform="rotate(0,190,58)"/><circle cx="190" cy="82" r="6" transform="rotate(0,190,82)"/><circle cx="190" cy="130" r="6" transform="rotate(0,190,130)"/><circle cx="190" cy="154" r="6" transform="rotate(0,190,154)"/><circle cx="190" cy="190" r="6" transform="rotate(0,190,190)"/><circle cx="190" cy="202" r="6" transform="rotate(0,190,202)"/><circle cx="190" cy="214" r="6" transform="rotate(0,190,214)"/><circle cx="190" cy="226" r="6" transform="rotate(0,190,226)"/><circle cx="190" cy="250" r="6" transform="rotate(0,190,250)"/><circle cx="190" cy="262" r="6" transform="rotate(0,190,262)"/><circle cx="190" cy="274" r="6" transform="rotate(0,190,274)"/><circle cx="190" cy="286" r="6" transform="rotate(0,190,286)"/><circle cx="190" cy="322" r="6" transform="rotate(0,190,322)"/><circle cx="190" cy="346" r="6" transform="rotate(0,190,346)"/><circle cx="190" cy="358" r="6" transform="rotate(0,190,358)"/><circle cx="190" cy="370" r="6" transform="rotate(0,190,370)"/><circle cx="190" cy="394" r="6" transform="rotate(0,190,394)"/><circle cx="190" cy="406" r="6" transform="rotate(0,190,406)"/><circle cx="190" cy="418" r="6" transform="rotate(0,190,418)"/><circle cx="190" cy="442" r="6" transform="rotate(0,190,442)"/><circle cx="190" cy="466" r="6" transform="rotate(0,190,466)"/><circle cx="202" cy="34" r="6" transform="rotate(0,202,34)"/><circle cx="202" cy="46" r="6" transform="rotate(0,202,46)"/><circle cx="202" cy="58" r="6" transform="rotate(0,202,58)"/><circle cx="202" cy="70" r="6" transform="rotate(0,202,70)"/><circle cx="202" cy="82" r="6" transform="rotate(0,202,82)"/><circle cx="202" cy="106" r="6" transform="rotate(0,202,106)"/><circle cx="202" cy="118" r="6" transform="rotate(0,202,118)"/><circle cx="202" cy="130" r="6" transform="rotate(0,202,130)"/><circle cx="202" cy="142" r="6" transform="rotate(0,202,142)"/><circle cx="202" cy="154" r="6" transform="rotate(0,202,154)"/><circle cx="202" cy="190" r="6" transform="rotate(0,202,190)"/><circle cx="202" cy="202" r="6" transform="rotate(0,202,202)"/><circle cx="202" cy="214" r="6" transform="rotate(0,202,214)"/><circle cx="202" cy="238" r="6" transform="rotate(0,202,238)"/><circle cx="202" cy="286" r="6" transform="rotate(0,202,286)"/><circle cx="202" cy="322" r="6" transform="rotate(0,202,322)"/><circle cx="202" cy="334" r="6" transform="rotate(0,202,334)"/><circle cx="202" cy="346" r="6" transform="rotate(0,202,346)"/><circle cx="202" cy="418" r="6" transform="rotate(0,202,418)"/><circle cx="202" cy="442" r="6" transform="rotate(0,202,442)"/><circle cx="202" cy="454" r="6" transform="rotate(0,202,454)"/><circle cx="214" cy="46" r="6" transform="rotate(0,214,46)"/><circle cx="214" cy="70" r="6" transform="rotate(0,214,70)"/><circle cx="214" cy="82" r="6" transform="rotate(0,214,82)"/><circle cx="214" cy="94" r="6" transform="rotate(0,214,94)"/><circle cx="214" cy="130" r="6" transform="rotate(0,214,130)"/><circle cx="214" cy="190" r="6" transform="rotate(0,214,190)"/><circle cx="214" cy="262" r="6" transform="rotate(0,214,262)"/><circle cx="214" cy="274" r="6" transform="rotate(0,214,274)"/><circle cx="214" cy="346" r="6" transform="rotate(0,214,346)"/><circle cx="214" cy="358" r="6" transform="rotate(0,214,358)"/><circle cx="214" cy="370" r="6" transform="rotate(0,214,370)"/><circle cx="214" cy="394" r="6" transform="rotate(0,214,394)"/><circle cx="214" cy="406" r="6" transform="rotate(0,214,406)"/><circle cx="226" cy="106" r="6" transform="rotate(0,226,106)"/><circle cx="226" cy="154" r="6" transform="rotate(0,226,154)"/><circle cx="226" cy="178" r="6" transform="rotate(0,226,178)"/><circle cx="226" cy="190" r="6" transform="rotate(0,226,190)"/><circle cx="226" cy="202" r="6" transform="rotate(0,226,202)"/><circle cx="226" cy="214" r="6" transform="rotate(0,226,214)"/><circle cx="226" cy="238" r="6" transform="rotate(0,226,238)"/><circle cx="226" cy="250" r="6" transform="rotate(0,226,250)"/><circle cx="226" cy="262" r="6" transform="rotate(0,226,262)"/><circle cx="226" cy="274" r="6" transform="rotate(0,226,274)"/><circle cx="226" cy="298" r="6" transform="rotate(0,226,298)"/><circle cx="226" cy="334" r="6" transform="rotate(0,226,334)"/><circle cx="226" cy="358" r="6" transform="rotate(0,226,358)"/><circle cx="226" cy="406" r="6" transform="rotate(0,226,406)"/><circle cx="226" cy="430" r="6" transform="rotate(0,226,430)"/><circle cx="226" cy="442" r="6" transform="rotate(0,226,442)"/><circle cx="226" cy="466" r="6" transform="rotate(0,226,466)"/><circle cx="238" cy="34" r="6" transform="rotate(0,238,34)"/><circle cx="238" cy="46" r="6" transform="rotate(0,238,46)"/><circle cx="238" cy="94" r="6" transform="rotate(0,238,94)"/><circle cx="238" cy="118" r="6" transform="rotate(0,238,118)"/><circle cx="238" cy="166" r="6" transform="rotate(0,238,166)"/><circle cx="238" cy="190" r="6" transform="rotate(0,238,190)"/><circle cx="238" cy="238" r="6" transform="rotate(0,238,238)"/><circle cx="238" cy="262" r="6" transform="rotate(0,238,262)"/><circle cx="238" cy="298" r="6" transform="rotate(0,238,298)"/><circle cx="238" cy="322" r="6" transform="rotate(0,238,322)"/><circle cx="238" cy="334" r="6" transform="rotate(0,238,334)"/><circle cx="238" cy="358" r="6" transform="rotate(0,238,358)"/><circle cx="238" cy="382" r="6" transform="rotate(0,238,382)"/><circle cx="238" cy="394" r="6" transform="rotate(0,238,394)"/><circle cx="238" cy="430" r="6" transform="rotate(0,238,430)"/><circle cx="238" cy="442" r="6" transform="rotate(0,238,442)"/><circle cx="238" cy="466" r="6" transform="rotate(0,238,466)"/><circle cx="250" cy="46" r="6" transform="rotate(0,250,46)"/><circle cx="250" cy="58" r="6" transform="rotate(0,250,58)"/><circle cx="250" cy="70" r="6" transform="rotate(0,250,70)"/><circle cx="250" cy="82" r="6" transform="rotate(0,250,82)"/><circle cx="250" cy="106" r="6" transform="rotate(0,250,106)"/><circle cx="250" cy="130" r="6" transform="rotate(0,250,130)"/><circle cx="250" cy="142" r="6" transform="rotate(0,250,142)"/><circle cx="250" cy="166" r="6" transform="rotate(0,250,166)"/><circle cx="250" cy="202" r="6" transform="rotate(0,250,202)"/><circle cx="250" cy="214" r="6" transform="rotate(0,250,214)"/><circle cx="250" cy="262" r="6" transform="rotate(0,250,262)"/><circle cx="250" cy="274" r="6" transform="rotate(0,250,274)"/><circle cx="250" cy="286" r="6" transform="rotate(0,250,286)"/><circle cx="250" cy="310" r="6" transform="rotate(0,250,310)"/><circle cx="250" cy="322" r="6" transform="rotate(0,250,322)"/><circle cx="250" cy="358" r="6" transform="rotate(0,250,358)"/><circle cx="250" cy="370" r="6" transform="rotate(0,250,370)"/><circle cx="250" cy="394" r="6" transform="rotate(0,250,394)"/><circle cx="250" cy="406" r="6" transform="rotate(0,250,406)"/><circle cx="250" cy="418" r="6" transform="rotate(0,250,418)"/><circle cx="250" cy="454" r="6" transform="rotate(0,250,454)"/><circle cx="250" cy="466" r="6" transform="rotate(0,250,466)"/><circle cx="262" cy="34" r="6" transform="rotate(0,262,34)"/><circle cx="262" cy="82" r="6" transform="rotate(0,262,82)"/><circle cx="262" cy="154" r="6" transform="rotate(0,262,154)"/><circle cx="262" cy="166" r="6" transform="rotate(0,262,166)"/><circle cx="262" cy="178" r="6" transform="rotate(0,262,178)"/><circle cx="262" cy="214" r="6" transform="rotate(0,262,214)"/><circle cx="262" cy="226" r="6" transform="rotate(0,262,226)"/><circle cx="262" cy="238" r="6" transform="rotate(0,262,238)"/><circle cx="262" cy="250" r="6" transform="rotate(0,262,250)"/><circle cx="262" cy="262" r="6" transform="rotate(0,262,262)"/><circle cx="262" cy="274" r="6" transform="rotate(0,262,274)"/><circle cx="262" cy="298" r="6" transform="rotate(0,262,298)"/><circle cx="262" cy="322" r="6" transform="rotate(0,262,322)"/><circle cx="262" cy="358" r="6" transform="rotate(0,262,358)"/><circle cx="262" cy="370" r="6" transform="rotate(0,262,370)"/><circle cx="262" cy="382" r="6" transform="rotate(0,262,382)"/><circle cx="262" cy="394" r="6" transform="rotate(0,262,394)"/><circle cx="262" cy="406" r="6" transform="rotate(0,262,406)"/><circle cx="262" cy="430" r="6" transform="rotate(0,262,430)"/><circle cx="262" cy="466" r="6" transform="rotate(0,262,466)"/><circle cx="274" cy="46" r="6" transform="rotate(0,274,46)"/><circle cx="274" cy="70" r="6" transform="rotate(0,274,70)"/><circle cx="274" cy="106" r="6" transform="rotate(0,274,106)"/><circle cx="274" cy="118" r="6" transform="rotate(0,274,118)"/><circle cx="274" cy="130" r="6" transform="rotate(0,274,130)"/><circle cx="274" cy="154" r="6" transform="rotate(0,274,154)"/><circle cx="274" cy="202" r="6" transform="rotate(0,274,202)"/><circle cx="274" cy="214" r="6" transform="rotate(0,274,214)"/><circle cx="274" cy="238" r="6" transform="rotate(0,274,238)"/><circle cx="274" cy="262" r="6" transform="rotate(0,274,262)"/><circle cx="274" cy="286" r="6" transform="rotate(0,274,286)"/><circle cx="274" cy="310" r="6" transform="rotate(0,274,310)"/><circle cx="274" cy="346" r="6" transform="rotate(0,274,346)"/><circle cx="274" cy="358" r="6" transform="rotate(0,274,358)"/><circle cx="274" cy="370" r="6" transform="rotate(0,274,370)"/><circle cx="274" cy="382" r="6" transform="rotate(0,274,382)"/><circle cx="274" cy="418" r="6" transform="rotate(0,274,418)"/><circle cx="274" cy="454" r="6" transform="rotate(0,274,454)"/><circle cx="286" cy="34" r="6" transform="rotate(0,286,34)"/><circle cx="286" cy="58" r="6" transform="rotate(0,286,58)"/><circle cx="286" cy="70" r="6" transform="rotate(0,286,70)"/><circle cx="286" cy="118" r="6" transform="rotate(0,286,118)"/><circle cx="286" cy="154" r="6" transform="rotate(0,286,154)"/><circle cx="286" cy="166" r="6" transform="rotate(0,286,166)"/><circle cx="286" cy="190" r="6" transform="rotate(0,286,190)"/><circle cx="286" cy="214" r="6" transform="rotate(0,286,214)"/><circle cx="286" cy="226" r="6" transform="rotate(0,286,226)"/><circle cx="286" cy="250" r="6" transform="rotate(0,286,250)"/><circle cx="286" cy="262" r="6" transform="rotate(0,286,262)"/><circle cx="286" cy="286" r="6" transform="rotate(0,286,286)"/><circle cx="286" cy="310" r="6" transform="rotate(0,286,310)"/><circle cx="286" cy="334" r="6" transform="rotate(0,286,334)"/><circle cx="286" cy="406" r="6" transform="rotate(0,286,406)"/><circle cx="286" cy="430" r="6" transform="rotate(0,286,430)"/><circle cx="298" cy="46" r="6" transform="rotate(0,298,46)"/><circle cx="298" cy="70" r="6" transform="rotate(0,298,70)"/><circle cx="298" cy="82" r="6" transform="rotate(0,298,82)"/><circle cx="298" cy="106" r="6" transform="rotate(0,298,106)"/><circle cx="298" cy="118" r="6" transform="rotate(0,298,118)"/><circle cx="298" cy="142" r="6" transform="rotate(0,298,142)"/><circle cx="298" cy="154" r="6" transform="rotate(0,298,154)"/><circle cx="298" cy="190" r="6" transform="rotate(0,298,190)"/><circle cx="298" cy="202" r="6" transform="rotate(0,298,202)"/><circle cx="298" cy="214" r="6" transform="rotate(0,298,214)"/><circle cx="298" cy="226" r="6" transform="rotate(0,298,226)"/><circle cx="298" cy="250" r="6" transform="rotate(0,298,250)"/><circle cx="298" cy="262" r="6" transform="rotate(0,298,262)"/><circle cx="298" cy="286" r="6" transform="rotate(0,298,286)"/><circle cx="298" cy="310" r="6" transform="rotate(0,298,310)"/><circle cx="298" cy="418" r="6" transform="rotate(0,298,418)"/><circle cx="298" cy="442" r="6" transform="rotate(0,298,442)"/><circle cx="310" cy="58" r="6" transform="rotate(0,310,58)"/><circle cx="310" cy="82" r="6" transform="rotate(0,310,82)"/><circle cx="310" cy="118" r="6" transform="rotate(0,310,118)"/><circle cx="310" cy="166" r="6" transform="rotate(0,310,166)"/><circle cx="310" cy="178" r="6" transform="rotate(0,310,178)"/><circle cx="310" cy="202" r="6" transform="rotate(0,310,202)"/><circle cx="310" cy="214" r="6" transform="rotate(0,310,214)"/><circle cx="310" cy="226" r="6" transform="rotate(0,310,226)"/><circle cx="310" cy="238" r="6" transform="rotate(0,310,238)"/><circle cx="310" cy="298" r="6" transform="rotate(0,310,298)"/><circle cx="310" cy="322" r="6" transform="rotate(0,310,322)"/><circle cx="310" cy="334" r="6" transform="rotate(0,310,334)"/><circle cx="310" cy="358" r="6" transform="rotate(0,310,358)"/><circle cx="310" cy="370" r="6" transform="rotate(0,310,370)"/><circle cx="310" cy="382" r="6" transform="rotate(0,310,382)"/><circle cx="310" cy="430" r="6" transform="rotate(0,310,430)"/><circle cx="310" cy="442" r="6" transform="rotate(0,310,442)"/><circle cx="322" cy="34" r="6" transform="rotate(0,322,34)"/><circle cx="322" cy="46" r="6" transform="rotate(0,322,46)"/><circle cx="322" cy="70" r="6" transform="rotate(0,322,70)"/><circle cx="322" cy="82" r="6" transform="rotate(0,322,82)"/><circle cx="322" cy="106" r="6" transform="rotate(0,322,106)"/><circle cx="322" cy="118" r="6" transform="rotate(0,322,118)"/><circle cx="322" cy="130" r="6" transform="rotate(0,322,130)"/><circle cx="322" cy="154" r="6" transform="rotate(0,322,154)"/><circle cx="322" cy="202" r="6" transform="rotate(0,322,202)"/><circle cx="322" cy="226" r="6" transform="rotate(0,322,226)"/><circle cx="322" cy="262" r="6" transform="rotate(0,322,262)"/><circle cx="322" cy="274" r="6" transform="rotate(0,322,274)"/><circle cx="322" cy="298" r="6" transform="rotate(0,322,298)"/><circle cx="322" cy="310" r="6" transform="rotate(0,322,310)"/><circle cx="322" cy="334" r="6" transform="rotate(0,322,334)"/><circle cx="322" cy="382" r="6" transform="rotate(0,322,382)"/><circle cx="322" cy="394" r="6" transform="rotate(0,322,394)"/><circle cx="322" cy="406" r="6" transform="rotate(0,322,406)"/><circle cx="322" cy="418" r="6" transform="rotate(0,322,418)"/><circle cx="322" cy="430" r="6" transform="rotate(0,322,430)"/><circle cx="322" cy="442" r="6" transform="rotate(0,322,442)"/><circle cx="322" cy="454" r="6" transform="rotate(0,322,454)"/><circle cx="322" cy="466" r="6" transform="rotate(0,322,466)"/><circle cx="334" cy="46" r="6" transform="rotate(0,334,46)"/><circle cx="334" cy="70" r="6" transform="rotate(0,334,70)"/><circle cx="334" cy="82" r="6" transform="rotate(0,334,82)"/><circle cx="334" cy="118" r="6" transform="rotate(0,334,118)"/><circle cx="334" cy="130" r="6" transform="rotate(0,334,130)"/><circle cx="334" cy="154" r="6" transform="rotate(0,334,154)"/><circle cx="334" cy="190" r="6" transform="rotate(0,334,190)"/><circle cx="334" cy="226" r="6" transform="rotate(0,334,226)"/><circle cx="334" cy="274" r="6" transform="rotate(0,334,274)"/><circle cx="334" cy="286" r="6" transform="rotate(0,334,286)"/><circle cx="334" cy="322" r="6" transform="rotate(0,334,322)"/><circle cx="334" cy="346" r="6" transform="rotate(0,334,346)"/><circle cx="334" cy="358" r="6" transform="rotate(0,334,358)"/><circle cx="334" cy="370" r="6" transform="rotate(0,334,370)"/><circle cx="334" cy="394" r="6" transform="rotate(0,334,394)"/><circle cx="334" cy="406" r="6" transform="rotate(0,334,406)"/><circle cx="334" cy="418" r="6" transform="rotate(0,334,418)"/><circle cx="334" cy="430" r="6" transform="rotate(0,334,430)"/><circle cx="334" cy="442" r="6" transform="rotate(0,334,442)"/><circle cx="334" cy="466" r="6" transform="rotate(0,334,466)"/><circle cx="346" cy="46" r="6" transform="rotate(0,346,46)"/><circle cx="346" cy="70" r="6" transform="rotate(0,346,70)"/><circle cx="346" cy="82" r="6" transform="rotate(0,346,82)"/><circle cx="346" cy="94" r="6" transform="rotate(0,346,94)"/><circle cx="346" cy="106" r="6" transform="rotate(0,346,106)"/><circle cx="346" cy="130" r="6" transform="rotate(0,346,130)"/><circle cx="346" cy="166" r="6" transform="rotate(0,346,166)"/><circle cx="346" cy="178" r="6" transform="rotate(0,346,178)"/><circle cx="346" cy="226" r="6" transform="rotate(0,346,226)"/><circle cx="346" cy="238" r="6" transform="rotate(0,346,238)"/><circle cx="346" cy="262" r="6" transform="rotate(0,346,262)"/><circle cx="346" cy="274" r="6" transform="rotate(0,346,274)"/><circle cx="346" cy="334" r="6" transform="rotate(0,346,334)"/><circle cx="346" cy="370" r="6" transform="rotate(0,346,370)"/><circle cx="346" cy="430" r="6" transform="rotate(0,346,430)"/><circle cx="346" cy="442" r="6" transform="rotate(0,346,442)"/><circle cx="346" cy="454" r="6" transform="rotate(0,346,454)"/><circle cx="358" cy="34" r="6" transform="rotate(0,358,34)"/><circle cx="358" cy="58" r="6" transform="rotate(0,358,58)"/><circle cx="358" cy="82" r="6" transform="rotate(0,358,82)"/><circle cx="358" cy="94" r="6" transform="rotate(0,358,94)"/><circle cx="358" cy="118" r="6" transform="rotate(0,358,118)"/><circle cx="358" cy="130" r="6" transform="rotate(0,358,130)"/><circle cx="358" cy="154" r="6" transform="rotate(0,358,154)"/><circle cx="358" cy="202" r="6" transform="rotate(0,358,202)"/><circle cx="358" cy="214" r="6" transform="rotate(0,358,214)"/><circle cx="358" cy="226" r="6" transform="rotate(0,358,226)"/><circle cx="358" cy="238" r="6" transform="rotate(0,358,238)"/><circle cx="358" cy="250" r="6" transform="rotate(0,358,250)"/><circle cx="358" cy="274" r="6" transform="rotate(0,358,274)"/><circle cx="358" cy="286" r="6" transform="rotate(0,358,286)"/><circle cx="358" cy="298" r="6" transform="rotate(0,358,298)"/><circle cx="358" cy="346" r="6" transform="rotate(0,358,346)"/><circle cx="358" cy="382" r="6" transform="rotate(0,358,382)"/><circle cx="358" cy="454" r="6" transform="rotate(0,358,454)"/><circle cx="358" cy="466" r="6" transform="rotate(0,358,466)"/><circle cx="370" cy="82" r="6" transform="rotate(0,370,82)"/><circle cx="370" cy="94" r="6" transform="rotate(0,370,94)"/><circle cx="370" cy="106" r="6" transform="rotate(0,370,106)"/><circle cx="370" cy="118" r="6" transform="rotate(0,370,118)"/><circle cx="370" cy="142" r="6" transform="rotate(0,370,142)"/><circle cx="370" cy="154" r="6" transform="rotate(0,370,154)"/><circle cx="370" cy="178" r="6" transform="rotate(0,370,178)"/><circle cx="370" cy="202" r="6" transform="rotate(0,370,202)"/><circle cx="370" cy="214" r="6" transform="rotate(0,370,214)"/><circle cx="370" cy="226" r="6" transform="rotate(0,370,226)"/><circle cx="370" cy="238" r="6" transform="rotate(0,370,238)"/><circle cx="370" cy="250" r="6" transform="rotate(0,370,250)"/><circle cx="370" cy="262" r="6" transform="rotate(0,370,262)"/><circle cx="370" cy="286" r="6" transform="rotate(0,370,286)"/><circle cx="370" cy="298" r="6" transform="rotate(0,370,298)"/><circle cx="370" cy="310" r="6" transform="rotate(0,370,310)"/><circle cx="370" cy="334" r="6" transform="rotate(0,370,334)"/><circle cx="370" cy="370" r="6" transform="rotate(0,370,370)"/><circle cx="370" cy="382" r="6" transform="rotate(0,370,382)"/><circle cx="370" cy="394" r="6" transform="rotate(0,370,394)"/><circle cx="370" cy="406" r="6" transform="rotate(0,370,406)"/><circle cx="370" cy="418" r="6" transform="rotate(0,370,418)"/><circle cx="370" cy="442" r="6" transform="rotate(0,370,442)"/><circle cx="382" cy="130" r="6" transform="rotate(0,382,130)"/><circle cx="382" cy="142" r="6" transform="rotate(0,382,142)"/><circle cx="382" cy="154" r="6" transform="rotate(0,382,154)"/><circle cx="382" cy="166" r="6" transform="rotate(0,382,166)"/><circle cx="382" cy="202" r="6" transform="rotate(0,382,202)"/><circle cx="382" cy="250" r="6" transform="rotate(0,382,250)"/><circle cx="382" cy="274" r="6" transform="rotate(0,382,274)"/><circle cx="382" cy="298" r="6" transform="rotate(0,382,298)"/><circle cx="382" cy="310" r="6" transform="rotate(0,382,310)"/><circle cx="382" cy="322" r="6" transform="rotate(0,382,322)"/><circle cx="382" cy="334" r="6" transform="rotate(0,382,334)"/><circle cx="382" cy="370" r="6" transform="rotate(0,382,370)"/><circle cx="382" cy="418" r="6" transform="rotate(0,382,418)"/><circle cx="382" cy="430" r="6" transform="rotate(0,382,430)"/><circle cx="382" cy="442" r="6" transform="rotate(0,382,442)"/><circle cx="382" cy="466" r="6" transform="rotate(0,382,466)"/><circle cx="394" cy="142" r="6" transform="rotate(0,394,142)"/><circle cx="394" cy="154" r="6" transform="rotate(0,394,154)"/><circle cx="394" cy="178" r="6" transform="rotate(0,394,178)"/><circle cx="394" cy="190" r="6" transform="rotate(0,394,190)"/><circle cx="394" cy="202" r="6" transform="rotate(0,394,202)"/><circle cx="394" cy="214" r="6" transform="rotate(0,394,214)"/><circle cx="394" cy="250" r="6" transform="rotate(0,394,250)"/><circle cx="394" cy="262" r="6" transform="rotate(0,394,262)"/><circle cx="394" cy="286" r="6" transform="rotate(0,394,286)"/><circle cx="394" cy="334" r="6" transform="rotate(0,394,334)"/><circle cx="394" cy="370" r="6" transform="rotate(0,394,370)"/><circle cx="394" cy="394" r="6" transform="rotate(0,394,394)"/><circle cx="394" cy="418" r="6" transform="rotate(0,394,418)"/><circle cx="394" cy="430" r="6" transform="rotate(0,394,430)"/><circle cx="394" cy="466" r="6" transform="rotate(0,394,466)"/><circle cx="406" cy="130" r="6" transform="rotate(0,406,130)"/><circle cx="406" cy="142" r="6" transform="rotate(0,406,142)"/><circle cx="406" cy="154" r="6" transform="rotate(0,406,154)"/><circle cx="406" cy="190" r="6" transform="rotate(0,406,190)"/><circle cx="406" cy="202" r="6" transform="rotate(0,406,202)"/><circle cx="406" cy="226" r="6" transform="rotate(0,406,226)"/><circle cx="406" cy="238" r="6" transform="rotate(0,406,238)"/><circle cx="406" cy="274" r="6" transform="rotate(0,406,274)"/><circle cx="406" cy="298" r="6" transform="rotate(0,406,298)"/><circle cx="406" cy="310" r="6" transform="rotate(0,406,310)"/><circle cx="406" cy="358" r="6" transform="rotate(0,406,358)"/><circle cx="406" cy="370" r="6" transform="rotate(0,406,370)"/><circle cx="406" cy="418" r="6" transform="rotate(0,406,418)"/><circle cx="406" cy="430" r="6" transform="rotate(0,406,430)"/><circle cx="406" cy="454" r="6" transform="rotate(0,406,454)"/><circle cx="406" cy="466" r="6" transform="rotate(0,406,466)"/><circle cx="418" cy="190" r="6" transform="rotate(0,418,190)"/><circle cx="418" cy="202" r="6" transform="rotate(0,418,202)"/><circle cx="418" cy="214" r="6" transform="rotate(0,418,214)"/><circle cx="418" cy="298" r="6" transform="rotate(0,418,298)"/><circle cx="418" cy="310" r="6" transform="rotate(0,418,310)"/><circle cx="418" cy="346" r="6" transform="rotate(0,418,346)"/><circle cx="418" cy="370" r="6" transform="rotate(0,418,370)"/><circle cx="418" cy="382" r="6" transform="rotate(0,418,382)"/><circle cx="418" cy="394" r="6" transform="rotate(0,418,394)"/><circle cx="418" cy="406" r="6" transform="rotate(0,418,406)"/><circle cx="418" cy="418" r="6" transform="rotate(0,418,418)"/><circle cx="418" cy="430" r="6" transform="rotate(0,418,430)"/><circle cx="430" cy="130" r="6" transform="rotate(0,430,130)"/><circle cx="430" cy="142" r="6" transform="rotate(0,430,142)"/><circle cx="430" cy="178" r="6" transform="rotate(0,430,178)"/><circle cx="430" cy="214" r="6" transform="rotate(0,430,214)"/><circle cx="430" cy="226" r="6" transform="rotate(0,430,226)"/><circle cx="430" cy="250" r="6" transform="rotate(0,430,250)"/><circle cx="430" cy="274" r="6" transform="rotate(0,430,274)"/><circle cx="430" cy="286" r="6" transform="rotate(0,430,286)"/><circle cx="430" cy="298" r="6" transform="rotate(0,430,298)"/><circle cx="430" cy="322" r="6" transform="rotate(0,430,322)"/><circle cx="430" cy="346" r="6" transform="rotate(0,430,346)"/><circle cx="430" cy="394" r="6" transform="rotate(0,430,394)"/><circle cx="430" cy="418" r="6" transform="rotate(0,430,418)"/><circle cx="430" cy="430" r="6" transform="rotate(0,430,430)"/><circle cx="430" cy="442" r="6" transform="rotate(0,430,442)"/><circle cx="430" cy="454" r="6" transform="rotate(0,430,454)"/><circle cx="442" cy="130" r="6" transform="rotate(0,442,130)"/><circle cx="442" cy="166" r="6" transform="rotate(0,442,166)"/><circle cx="442" cy="226" r="6" transform="rotate(0,442,226)"/><circle cx="442" cy="238" r="6" transform="rotate(0,442,238)"/><circle cx="442" cy="250" r="6" transform="rotate(0,442,250)"/><circle cx="442" cy="262" r="6" transform="rotate(0,442,262)"/><circle cx="442" cy="274" r="6" transform="rotate(0,442,274)"/><circle cx="442" cy="298" r="6" transform="rotate(0,442,298)"/><circle cx="442" cy="310" r="6" transform="rotate(0,442,310)"/><circle cx="442" cy="322" r="6" transform="rotate(0,442,322)"/><circle cx="442" cy="334" r="6" transform="rotate(0,442,334)"/><circle cx="442" cy="346" r="6" transform="rotate(0,442,346)"/><circle cx="442" cy="394" r="6" transform="rotate(0,442,394)"/><circle cx="442" cy="406" r="6" transform="rotate(0,442,406)"/><circle cx="442" cy="418" r="6" transform="rotate(0,442,418)"/><circle cx="442" cy="430" r="6" transform="rotate(0,442,430)"/><circle cx="442" cy="442" r="6" transform="rotate(0,442,442)"/><circle cx="442" cy="454" r="6" transform="rotate(0,442,454)"/><circle cx="454" cy="130" r="6" transform="rotate(0,454,130)"/><circle cx="454" cy="166" r="6" transform="rotate(0,454,166)"/><circle cx="454" cy="202" r="6" transform="rotate(0,454,202)"/><circle cx="454" cy="214" r="6" transform="rotate(0,454,214)"/><circle cx="454" cy="250" r="6" transform="rotate(0,454,250)"/><circle cx="454" cy="274" r="6" transform="rotate(0,454,274)"/><circle cx="454" cy="310" r="6" transform="rotate(0,454,310)"/><circle cx="454" cy="322" r="6" transform="rotate(0,454,322)"/><circle cx="454" cy="334" r="6" transform="rotate(0,454,334)"/><circle cx="454" cy="418" r="6" transform="rotate(0,454,418)"/><circle cx="454" cy="442" r="6" transform="rotate(0,454,442)"/><circle cx="466" cy="142" r="6" transform="rotate(0,466,142)"/><circle cx="466" cy="166" r="6" transform="rotate(0,466,166)"/><circle cx="466" cy="178" r="6" transform="rotate(0,466,178)"/><circle cx="466" cy="190" r="6" transform="rotate(0,466,190)"/><circle cx="466" cy="202" r="6" transform="rotate(0,466,202)"/><circle cx="466" cy="214" r="6" transform="rotate(0,466,214)"/><circle cx="466" cy="226" r="6" transform="rotate(0,466,226)"/><circle cx="466" cy="238" r="6" transform="rotate(0,466,238)"/><circle cx="466" cy="262" r="6" transform="rotate(0,466,262)"/><circle cx="466" cy="274" r="6" transform="rotate(0,466,274)"/><circle cx="466" cy="298" r="6" transform="rotate(0,466,298)"/><circle cx="466" cy="310" r="6" transform="rotate(0,466,310)"/><circle cx="466" cy="322" r="6" transform="rotate(0,466,322)"/><circle cx="466" cy="334" r="6" transform="rotate(0,466,334)"/><circle cx="466" cy="346" r="6" transform="rotate(0,466,346)"/><circle cx="466" cy="406" r="6" transform="rotate(0,466,406)"/><circle cx="466" cy="418" r="6" transform="rotate(0,466,418)"/><circle cx="466" cy="430" r="6" transform="rotate(0,466,430)"/><circle cx="466" cy="442" r="6" transform="rotate(0,466,442)"/><circle cx="466" cy="454" r="6" transform="rotate(0,466,454)"/><circle cx="466" cy="466" r="6" transform="rotate(0,466,466)"/></clipPath><clipPath id="clip-path-corners-square-color-0-0"><path clip-rule="evenodd" d="M 70 28a 42 42 0 1 0 0.1 0zm 0 12a 30 30 0 1 1 -0.1 0Z" transform="rotate(0,70,70)"/></clipPath><clipPath id="clip-path-corners-dot-color-0-0"><circle cx="70" cy="70" r="18" transform="rotate(0,70,70)"/></clipPath><clipPath id="clip-path-corners-square-color-1-0"><path clip-rule="evenodd" d="M 430 28a 42 42 0 1 0 0.1 0zm 0 12a 30 30 0 1 1 -0.1 0Z" transform="rotate(90,430,70)"/></clipPath><clipPath id="clip-path-corners-dot-color-1-0"><circle cx="430" cy="70" r="18" transform="rotate(90,430,70)"/></clipPath><clipPath id="clip-path-corners-square-color-0-1"><path clip-rule="evenodd" d="M 70 388a 42 42 0 1 0 0.1 0zm 0 12a 30 30 0 1 1 -0.1 0Z" transform="rotate(-90,70,430)"/></clipPath><clipPath id="clip-path-corners-dot-color-0-1"><circle cx="70" cy="430" r="18" transform="rotate(-90,70,430)"/></clipPath></defs><rect x="0" y="0" height="500" width="500" clip-path="url('#clip-path-background-color')" fill="#fff"/><rect x="0" y="0" height="500" width="500" clip-path="url('#clip-path-dot-color')" fill="#000000"/><rect x="28" y="28" height="84" width="84" clip-path="url('#clip-path-corners-square-color-0-0')" fill="#000000"/><rect x="52" y="52" height="36" width="36" clip-path="url('#clip-path-corners-dot-color-0-0')" fill="#000000"/><rect x="388" y="28" height="84" width="84" clip-path="url('#clip-path-corners-square-color-1-0')" fill="#000000"/><rect x="412" y="52" height="36" width="36" clip-path="url('#clip-path-corners-dot-color-1-0')" fill="#000000"/><rect x="28" y="388" height="84" width="84" clip-path="url('#clip-path-corners-square-color-0-1')" fill="#000000"/><rect x="52" y="412" height="36" width="36" clip-path="url('#clip-path-corners-dot-color-0-1')" fill="#000000"/></svg>