<?xml version="1.0" standalone="no"?>
<svg xmlns="http://www.w3.org/2000/svg" width="500" height="500"><defs><clipPath id="clip-path-dot-color"><circle cx="29.5" cy="117.5" r="5.5" transform="rotate(0,29.5,117.5)"/><circle cx="29.5" cy="172.5" r="5.5" transform="rotate(0,29.5,172.5)"/><circle cx="29.5" cy="183.5" r="5.5" transform="rotate(0,29.5,183.5)"/><circle cx="29.5" cy="205.5" r="5.5" transform="rotate(0,29.5,205.5)"/><circle cx="29.5" cy="216.5" r="5.5" transform="rotate(0,29.5,216.5)"/><circle cx="29.5" cy="238.5" r="5.5" transform="rotate(0,29.5,238.5)"/><circle cx="29.5" cy="249.5" r="5.5" transform="rotate(0,29.5,249.5)"/><circle cx="29.5" cy="260.5" r="5.5" transform="rotate(0,29.5,260.5)"/><circle cx="29.5" cy="271.5" r="5.5" transform="rotate(0,29.5,271.5)"/><circle cx="29.5" cy="293.5" r="5.5" transform="rotate(0,29.5,293.5)"/><circle cx="29.5" cy="315.5" r="5.5" transform="rotate(0,29.5,315.5)"/><circle cx="29.5" cy="326.5" r="5.5" transform="rotate(0,29.5,326.5)"/><circle cx="29.5" cy="348.5" r="5.5" transform="rotate(0,29.5,348.5)"/><circle cx="29.5" cy="359.5" r="5.5" transform="rotate(0,29.5,359.5)"/><circle cx="29.5" cy="370.5" r="5.5" transform="rotate(0,29.5,370.5)"/><circle cx="40.5" cy="128.5" r="5.5" transform="rotate(0,40.5,128.5)"/><circle cx="40.5" cy="150.5" r="5.5" transform="rotate(0,40.5,150.5)"/><circle cx="40.5" cy="161.5" r="5.5" transform="rotate(0,40.5,161.5)"/><circle cx="40.5" cy="183.5" r="5.5" transform="rotate(0,40.5,183.5)"/><circle cx="40.5" cy="194.5" r="5.5" transform="rotate(0,40.5,194.5)"/><circle cx="40.5" cy="227.5" r="5.5" transform="rotate(0,40.5,227.5)"/><circle cx="40.5" cy="249.5" r="5.5" transform="rotate(0,40.5,249.5)"/><circle cx="40.5" cy="260.5" r="5.5" transform="rotate(0,40.5,260.5)"/><circle cx="40.5" cy="282.5" r="5.5" transform="rotate(0,40.5,282.5)"/><circle cx="40.5" cy="326.5" r="5.5" transform="rotate(0,40.5,326.5)"/><circle cx="40.5" cy="359.5" r="5.5" transform="rotate(0,40.5,359.5)"/><circle cx="40.5" cy="381.5" r="5.5" transform="rotate(0,40.5,381.5)"/><circle cx="51.5" cy="117.5" r="5.5" transform="rotate(0,51.5,117.5)"/><circle cx="51.5" cy="128.5" r="5.5" transform="rotate(0,51.5,128.5)"/><circle cx="51.5" cy="172.5" r="5.5" transform="rotate(0,51.5,172.5)"/><circle cx="51.5" cy="183.5" r="5.5" transform="rotate(0,51.5,183.5)"/><circle cx="51.5" cy="194.5" r="5.5" transform="rotate(0,51.5,194.5)"/><circle cx="51.5" cy="205.5" r="5.5" transform="rotate(0,51.5,205.5)"/><circle cx="51.5" cy="227.5" r="5.5" transform="rotate(0,51.5,227.5)"/><circle cx="51.5" cy="315.5" r="5.5" transform="rotate(0,51.5,315.5)"/><circle cx="51.5" cy="359.5" r="5.5" transform="rotate(0,51.5,359.5)"/><circle cx="62.5" cy="117.5" r="5.5" transform="rotate(0,62.5,117.5)"/><circle cx="62.5" cy="139.5" r="5.5" transform="rotate(0,62.5,139.5)"/><circle cx="62.5" cy="150.5" r="5.5" transform="rotate(0,62.5,150.5)"/><circle cx="62.5" cy="172.5" r="5.5" transform="rotate(0,62.5,172.5)"/><circle cx="62.5" cy="194.5" r="5.5" transform="rotate(0,62.5,194.5)"/><circle cx="62.5" cy="216.5" r="5.5" transform="rotate(0,62.5,216.5)"/><circle cx="62.5" cy="227.5" r="5.5" transform="rotate(0,62.5,227.5)"/><circle cx="62.5" cy="238.5" r="5.5" transform="rotate(0,62.5,238.5)"/><circle cx="62.5" cy="249.5" r="5.5" transform="rotate(0,62.5,249.5)"/><circle cx="62.5" cy="271.5" r="5.5" transform="rotate(0,62.5,271.5)"/><circle cx="62.5" cy="304.5" r="5.5" transform="rotate(0,62.5,304.5)"/><circle cx="62.5" cy="337.5" r="5.5" transform="rotate(0,62.5,337.5)"/><circle cx="62.5" cy="348.5" r="5.5" transform="rotate(0,62.5,348.5)"/><circle cx="62.5" cy="359.5" r="5.5" transform="rotate(0,62.5,359.5)"/><circle cx="62.5" cy="370.5" r="5.5" transform="rotate(0,62.5,370.5)"/><circle cx="62.5" cy="381.5" r="5.5" transform="rotate(0,62.5,381.5)"/><circle cx="73.5" cy="139.5" r="5.5" transform="rotate(0,73.5,139.5)"/><circle cx="73.5" cy="183.5" r="5.5" transform="rotate(0,73.5,183.5)"/><circle cx="73.5" cy="194.5" r="5.5" transform="rotate(0,73.5,194.5)"/><circle cx="73.5" cy="205.5" r="5.5" transform="rotate(0,73.5,205.5)"/><circle cx="73.5" cy="216.5" r="5.5" transform="rotate(0,73.5,216.5)"/><circle cx="73.5" cy="227.5" r="5.5" transform="rotate(0,73.5,227.5)"/><circle cx="73.5" cy="249.5" r="5.5" transform="rotate(0,73.5,249.5)"/><circle cx="73.5" cy="304.5" r="5.5" transform="rotate(0,73.5,304.5)"/><circle cx="73.5" cy="326.5" r="5.5" transform="rotate(0,73.5,326.5)"/><circle cx="73.5" cy="337.5" r="5.5" transform="rotate(0,73.5,337.5)"/><circle cx="73.5" cy="359.5" r="5.5" transform="rotate(0,73.5,359.5)"/><circle cx="84.5" cy="117.5" r="5.5" transform="rotate(0,84.5,117.5)"/><circle cx="84.5" cy="139.5" r="5.5" transform="rotate(0,84.5,139.5)"/><circle cx="84.5" cy="150.5" r="5.5" transform="rotate(0,84.5,150.5)"/><circle cx="84.5" cy="161.5" r="5.5" transform="rotate(0,84.5,161.5)"/><circle cx="84.5" cy="172.5" r="5.5" transform="rotate(0,84.5,172.5)"/><circle cx="84.5" cy="238.5" r="5.5" transform="rotate(0,84.5,238.5)"/><circle cx="84.5" cy="249.5" r="5.5" transform="rotate(0,84.5,249.5)"/><circle cx="84.5" cy="260.5" r="5.5" transform="rotate(0,84.5,260.5)"/><circle cx="84.5" cy="271.5" r="5.5" transform="rotate(0,84.5,271.5)"/><circle cx="84.5" cy="282.5" r="5.5" transform="rotate(0,84.5,282.5)"/><circle cx="84.5" cy="293.5" r="5.5" transform="rotate(0,84.5,293.5)"/><circle cx="84.5" cy="315.5" r="5.5" transform="rotate(0,84.5,315.5)"/><circle cx="84.5" cy="326.5" r="5.5" transform="rotate(0,84.5,326.5)"/><circle cx="84.5" cy="337.5" r="5.5" transform="rotate(0,84.5,337.5)"/><circle cx="84.5" cy="370.5" r="5.5" transform="rotate(0,84.5,370.5)"/><circle cx="95.5" cy="117.5" r="5.5" transform="rotate(0,95.5,117.5)"/><circle cx="95.5" cy="139.5" r="5.5" transform="rotate(0,95.5,139.5)"/><circle cx="95.5" cy="161.5" r="5.5" transform="rotate(0,95.5,161.5)"/><circle cx="95.5" cy="183.5" r="5.5" transform="rotate(0,95.5,183.5)"/><circle cx="95.5" cy="205.5" r="5.5" transform="rotate(0,95.5,205.5)"/><circle cx="95.5" cy="227.5" r="5.5" transform="rotate(0,95.5,227.5)"/><circle cx="95.5" cy="249.5" r="5.5" transform="rotate(0,95.5,249.5)"/><circle cx="95.5" cy="271.5" r="5.5" transform="rotate(0,95.5,271.5)"/><circle cx="95.5" cy="293.5" r="5.5" transform="rotate(0,95.5,293.5)"/><circle cx="95.5" cy="315.5" r="5.5" transform="rotate(0,95.5,315.5)"/><circle cx="95.5" cy="337.5" r="5.5" transform="rotate(0,95.5,337.5)"/><circle cx="95.5" cy="359.5" r="5.5" transform="rotate(0,95.5,359.5)"/><circle cx="95.5" cy="381.5" r="5.5" transform="rotate(0,95.5,381.5)"/><circle cx="106.5" cy="117.5" r="5.5" transform="rotate(0,106.5,117.5)"/><circle cx="106.5" cy="139.5" r="5.5" transform="rotate(0,106.5,139.5)"/><circle cx="106.5" cy="161.5" r="5.5" transform="rotate(0,106.5,161.5)"/><circle cx="106.5" cy="172.5" r="5.5" transform="rotate(0,106.5,172.5)"/><circle cx="106.5" cy="183.5" r="5.5" transform="rotate(0,106.5,183.5)"/><circle cx="106.5" cy="194.5" r="5.5" transform="rotate(0,106.5,194.5)"/><circle cx="106.5" cy="205.5" r="5.5" transform="rotate(0,106.5,205.5)"/><circle cx="106.5" cy="216.5" r="5.5" transform="rotate(0,106.5,216.5)"/><circle cx="106.5" cy="249.5" r="5.5" transform="rotate(0,106.5,249.5)"/><circle cx="106.5" cy="293.5" r="5.5" transform="rotate(0,106.5,293.5)"/><circle cx="106.5" cy="326.5" r="5.5" transform="rotate(0,106.5,326.5)"/><circle cx="106.5" cy="348.5" r="5.5" transform="rotate(0,106.5,348.5)"/><circle cx="106.5" cy="359.5" r="5.5" transform="rotate(0,106.5,359.5)"/><circle cx="106.5" cy="370.5" r="5.5" transform="rotate(0,106.5,370.5)"/><circle cx="106.5" cy="381.5" r="5.5" transform="rotate(0,106.5,381.5)"/><circle cx="117.5" cy="40.5" r="5.5" transform="rotate(0,117.5,40.5)"/><circle cx="117.5" cy="62.5" r="5.5" transform="rotate(0,117.5,62.5)"/><circle cx="117.5" cy="84.5" r="5.5" transform="rotate(0,117.5,84.5)"/><circle cx="117.5" cy="95.5" r="5.5" transform="rotate(0,117.5,95.5)"/><circle cx="117.5" cy="106.5" r="5.5" transform="rotate(0,117.5,106.5)"/><circle cx="117.5" cy="117.5" r="5.5" transform="rotate(0,117.5,117.5)"/><circle cx="117.5" cy="128.5" r="5.5" transform="rotate(0,117.5,128.5)"/><circle cx="117.5" cy="172.5" r="5.5" transform="rotate(0,117.5,172.5)"/><circle cx="117.5" cy="183.5" r="5.5" transform="rotate(0,117.5,183.5)"/><circle cx="117.5" cy="194.5" r="5.5" transform="rotate(0,117.5,194.5)"/><circle cx="117.5" cy="260.5" r="5.5" transform="rotate(0,117.5,260.5)"/><circle cx="117.5" cy="293.5" r="5.5" transform="rotate(0,117.5,293.5)"/><circle cx="117.5" cy="304.5" r="5.5" transform="rotate(0,117.5,304.5)"/><circle cx="117.5" cy="337.5" r="5.5" transform="rotate(0,117.5,337.5)"/><circle cx="117.5" cy="370.5" r="5.5" transform="rotate(0,117.5,370.5)"/><circle cx="117.5" cy="392.5" r="5.5" transform="rotate(0,117.5,392.5)"/><circle cx="117.5" cy="403.5" r="5.5" transform="rotate(0,117.5,403.5)"/><circle cx="117.5" cy="414.5" r="5.5" transform="rotate(0,117.5,414.5)"/><circle cx="117.5" cy="436.5" r="5.5" transform="rotate(0,117.5,436.5)"/><circle cx="117.5" cy="447.5" r="5.5" transform="rotate(0,117.5,447.5)"/><circle cx="117.5" cy="469.5" r="5.5" transform="rotate(0,117.5,469.5)"/><circle cx="128.5" cy="73.5" r="5.5" transform="rotate(0,128.5,73.5)"/><circle cx="128.5" cy="84.5" r="5.5" transform="rotate(0,128.5,84.5)"/><circle cx="128.5" cy="128.5" r="5.5" transform="rotate(0,128.5,128.5)"/><circle cx="128.5" cy="150.5" r="5.5" transform="rotate(0,128.5,150.5)"/><circle cx="128.5" cy="161.5" r="5.5" transform="rotate(0,128.5,161.5)"/><circle cx="128.5" cy="172.5" r="5.5" transform="rotate(0,128.5,172.5)"/><circle cx="128.5" cy="205.5" r="5.5" transform="rotate(0,128.5,205.5)"/><circle cx="128.5" cy="216.5" r="5.5" transform="rotate(0,128.5,216.5)"/><circle cx="128.5" cy="227.5" r="5.5" transform="rotate(0,128.5,227.5)"/><circle cx="128.5" cy="238.5" r="5.5" transform="rotate(0,128.5,238.5)"/><circle cx="128.5" cy="249.5" r="5.5" transform="rotate(0,128.5,249.5)"/><circle cx="128.5" cy="282.5" r="5.5" transform="rotate(0,128.5,282.5)"/><circle cx="128.5" cy="304.5" r="5.5" transform="rotate(0,128.5,304.5)"/><circle cx="128.5" cy="337.5" r="5.5" transform="rotate(0,128.5,337.5)"/><circle cx="128.5" cy="348.5" r="5.5" transform="rotate(0,128.5,348.5)"/><circle cx="128.5" cy="381.5" r="5.5" transform="rotate(0,128.5,381.5)"/><circle cx="128.5" cy="403.5" r="5.5" transform="rotate(0,128.5,403.5)"/><circle cx="128.5" cy="436.5" r="5.5" transform="rotate(0,128.5,436.5)"/><circle cx="128.5" cy="447.5" r="5.5" transform="rotate(0,128.5,447.5)"/><circle cx="128.5" cy="458.5" r="5.5" transform="rotate(0,128.5,458.5)"/><circle cx="128.5" cy="469.5" r="5.5" transform="rotate(0,128.5,469.5)"/><circle cx="139.5" cy="29.5" r="5.5" transform="rotate(0,139.5,29.5)"/><circle cx="139.5" cy="51.5" r="5.5" transform="rotate(0,139.5,51.5)"/><circle cx="139.5" cy="73.5" r="5.5" transform="rotate(0,139.5,73.5)"/><circle cx="139.5" cy="95.5" r="5.5" transform="rotate(0,139.5,95.5)"/><circle cx="139.5" cy="128.5" r="5.5" transform="rotate(0,139.5,128.5)"/><circle cx="139.5" cy="150.5" r="5.5" transform="rotate(0,139.5,150.5)"/><circle cx="139.5" cy="183.5" r="5.5" transform="rotate(0,139.5,183.5)"/><circle cx="139.5" cy="249.5" r="5.5" transform="rotate(0,139.5,249.5)"/><circle cx="139.5" cy="260.5" r="5.5" transform="rotate(0,139.5,260.5)"/><circle cx="139.5" cy="271.5" r="5.5" transform="rotate(0,139.5,271.5)"/><circle cx="139.5" cy="315.5" r="5.5" transform="rotate(0,139.5,315.5)"/><circle cx="139.5" cy="337.5" r="5.5" transform="rotate(0,139.5,337.5)"/><circle cx="139.5" cy="370.5" r="5.5" transform="rotate(0,139.5,370.5)"/><circle cx="139.5" cy="414.5" r="5.5" transform="rotate(0,139.5,414.5)"/><circle cx="139.5" cy="425.5" r="5.5" transform="rotate(0,139.5,425.5)"/><circle cx="139.5" cy="436.5" r="5.5" transform="rotate(0,139.5,436.5)"/><circle cx="139.5" cy="447.5" r="5.5" transform="rotate(0,139.5,447.5)"/><circle cx="139.5" cy="458.5" r="5.5" transform="rotate(0,139.5,458.5)"/><circle cx="150.5" cy="62.5" r="5.5" transform="rotate(0,150.5,62.5)"/><circle cx="150.5" cy="84.5" r="5.5" transform="rotate(0,150.5,84.5)"/><circle cx="150.5" cy="106.5" r="5.5" transform="rotate(0,150.5,106.5)"/><circle cx="150.5" cy="128.5" r="5.5" transform="rotate(0,150.5,128.5)"/><circle cx="150.5" cy="172.5" r="5.5" transform="rotate(0,150.5,172.5)"/><circle cx="150.5" cy="216.5" r="5.5" transform="rotate(0,150.5,216.5)"/><circle cx="150.5" cy="227.5" r="5.5" transform="rotate(0,150.5,227.5)"/><circle cx="150.5" cy="260.5" r="5.5" transform="rotate(0,150.5,260.5)"/><circle cx="150.5" cy="271.5" r="5.5" transform="rotate(0,150.5,271.5)"/><circle cx="150.5" cy="293.5" r="5.5" transform="rotate(0,150.5,293.5)"/><circle cx="150.5" cy="304.5" r="5.5" transform="rotate(0,150.5,304.5)"/><circle cx="150.5" cy="315.5" r="5.5" transform="rotate(0,150.5,315.5)"/><circle cx="150.5" cy="326.5" r="5.5" transform="rotate(0,150.5,326.5)"/><circle cx="150.5" cy="425.5" r="5.5" transform="rotate(0,150.5,425.5)"/><circle cx="150.5" cy="447.5" r="5.5" transform="rotate(0,150.5,447.5)"/><circle cx="150.5" cy="458.5" r="5.5" transform="rotate(0,150.5,458.5)"/><circle cx="161.5" cy="29.5" r="5.5" transform="rotate(0,161.5,29.5)"/><circle cx="161.5" cy="40.5" r="5.5" transform="rotate(0,161.5,40.5)"/><circle cx="161.5" cy="73.5" r="5.5" transform="rotate(0,161.5,73.5)"/><circle cx="161.5" cy="95.5" r="5.5" transform="rotate(0,161.5,95.5)"/><circle cx="161.5" cy="128.5" r="5.5" transform="rotate(0,161.5,128.5)"/><circle cx="161.5" cy="161.5" r="5.5" transform="rotate(0,161.5,161.5)"/><circle cx="161.5" cy="183.5" r="5.5" transform="rotate(0,161.5,183.5)"/><circle cx="161.5" cy="194.5" r="5.5" transform="rotate(0,161.5,194.5)"/><circle cx="161.5" cy="216.5" r="5.5" transform="rotate(0,161.5,216.5)"/><circle cx="161.5" cy="227.5" r="5.5" transform="rotate(0,161.5,227.5)"/><circle cx="161.5" cy="238.5" r="5.5" transform="rotate(0,161.5,238.5)"/><circle cx="161.5" cy="271.5" r="5.5" transform="rotate(0,161.5,271.5)"/><circle cx="161.5" cy="304.5" r="5.5" transform="rotate(0,161.5,304.5)"/><circle cx="161.5" cy="337.5" r="5.5" transform="rotate(0,161.5,337.5)"/><circle cx="161.5" cy="348.5" r="5.5" transform="rotate(0,161.5,348.5)"/><circle cx="161.5" cy="370.5" r="5.5" transform="rotate(0,161.5,370.5)"/><circle cx="161.5" cy="381.5" r="5.5" transform="rotate(0,161.5,381.5)"/><circle cx="161.5" cy="392.5" r="5.5" transform="rotate(0,161.5,392.5)"/><circle cx="161.5" cy="403.5" r="5.5" transform="rotate(0,161.5,403.5)"/><circle cx="161.5" cy="436.5" r="5.5" transform="rotate(0,161.5,436.5)"/><circle cx="161.5" cy="458.5" r="5.5" transform="rotate(0,161.5,458.5)"/><circle cx="161.5" cy="469.5" r="5.5" transform="rotate(0,161.5,469.5)"/><circle cx="172.5" cy="40.5" r="5.5" transform="rotate(0,172.5,40.5)"/><circle cx="172.5" cy="106.5" r="5.5" transform="rotate(0,172.5,106.5)"/><circle cx="172.5" cy="150.5" r="5.5" transform="rotate(0,172.5,150.5)"/><circle cx="172.5" cy="227.5" r="5.5" transform="rotate(0,172.5,227.5)"/><circle cx="172.5" cy="249.5" r="5.5" transform="rotate(0,172.5,249.5)"/><circle cx="172.5" cy="260.5" r="5.5" transform="rotate(0,172.5,260.5)"/><circle cx="172.5" cy="271.5" r="5.5" transform="rotate(0,172.5,271.5)"/><circle cx="172.5" cy="282.5" r="5.5" transform="rotate(0,172.5,282.5)"/><circle cx="172.5" cy="326.5" r="5.5" transform="rotate(0,172.5,326.5)"/><circle cx="172.5" cy="348.5" r="5.5" transform="rotate(0,172.5,348.5)"/><circle cx="172.5" cy="392.5" r="5.5" transform="rotate(0,172.5,392.5)"/><circle cx="172.5" cy="458.5" r="5.5" transform="rotate(0,172.5,458.5)"/><circle cx="183.5" cy="29.5" r="5.5" transform="rotate(0,183.5,29.5)"/><circle cx="183.5" cy="40.5" r="5.5" transform="rotate(0,183.5,40.5)"/><circle cx="183.5" cy="95.5" r="5.5" transform="rotate(0,183.5,95.5)"/><circle cx="183.5" cy="106.5" r="5.5" transform="rotate(0,183.5,106.5)"/><circle cx="183.5" cy="117.5" r="5.5" transform="rotate(0,183.5,117.5)"/><circle cx="183.5" cy="128.5" r="5.5" transform="rotate(0,183.5,128.5)"/><circle cx="183.5" cy="139.5" r="5.5" transform="rotate(0,183.5,139.5)"/><circle cx="183.5" cy="150.5" r="5.5" transform="rotate(0,183.5,150.5)"/><circle cx="183.5" cy="172.5" r="5.5" transform="rotate(0,183.5,172.5)"/><circle cx="183.5" cy="194.5" r="5.5" transform="rotate(0,183.5,194.5)"/><circle cx="183.5" cy="216.5" r="5.5" transform="rotate(0,183.5,216.5)"/><circle cx="183.5" cy="249.5" r="5.5" transform="rotate(0,183.5,249.5)"/><circle cx="183.5" cy="271.5" r="5.5" transform="rotate(0,183.5,271.5)"/><circle cx="183.5" cy="282.5" r="5.5" transform="rotate(0,183.5,282.5)"/><circle cx="183.5" cy="315.5" r="5.5" transform="rotate(0,183.5,315.5)"/><circle cx="183.5" cy="326.5" r="5.5" transform="rotate(0,183.5,326.5)"/><circle cx="183.5" cy="337.5" r="5.5" transform="rotate(0,183.5,337.5)"/><circle cx="183.5" cy="359.5" r="5.5" transform="rotate(0,183.5,359.5)"/><circle cx="183.5" cy="381.5" r="5.5" transform="rotate(0,183.5,381.5)"/><circle cx="183.5" cy="403.5" r="5.5" transform="rotate(0,183.5,403.5)"/><circle cx="183.5" cy="425.5" r="5.5" transform="rotate(0,183.5,425.5)"/><circle cx="183.5" cy="447.5" r="5.5" transform="rotate(0,183.5,447.5)"/><circle cx="183.5" cy="469.5" r="5.5" transform="rotate(0,183.5,469.5)"/><circle cx="194.5" cy="40.5" r="5.5" transform="rotate(0,194.5,40.5)"/><circle cx="194.5" cy="106.5" r="5.5" transform="rotate(0,194.5,106.5)"/><circle cx="194.5" cy="128.5" r="5.5" transform="rotate(0,194.5,128.5)"/><circle cx="194.5" cy="139.5" r="5.5" transform="rotate(0,194.5,139.5)"/><circle cx="194.5" cy="172.5" r="5.5" transform="rotate(0,194.5,172.5)"/><circle cx="194.5" cy="216.5" r="5.5" transform="rotate(0,194.5,216.5)"/><circle cx="194.5" cy="238.5" r="5.5" transform="rotate(0,194.5,238.5)"/><circle cx="194.5" cy="249.5" r="5.5" transform="rotate(0,194.5,249.5)"/><circle cx="194.5" cy="260.5" r="5.5" transform="rotate(0,194.5,260.5)"/><circle cx="194.5" cy="282.5" r="5.5" transform="rotate(0,194.5,282.5)"/><circle cx="194.5" cy="304.5" r="5.5" transform="rotate(0,194.5,304.5)"/><circle cx="194.5" cy="315.5" r="5.5" transform="rotate(0,194.5,315.5)"/><circle cx="194.5" cy="337.5" r="5.5" transform="rotate(0,194.5,337.5)"/><circle cx="194.5" cy="348.5" r="5.5" transform="rotate(0,194.5,348.5)"/><circle cx="194.5" cy="381.5" r="5.5" transform="rotate(0,194.5,381.5)"/><circle cx="194.5" cy="403.5" r="5.5" transform="rotate(0,194.5,403.5)"/><circle cx="205.5" cy="51.5" r="5.5" transform="rotate(0,205.5,51.5)"/><circle cx="205.5" cy="73.5" r="5.5" transform="rotate(0,205.5,73.5)"/><circle cx="205.5" cy="84.5" r="5.5" transform="rotate(0,205.5,84.5)"/><circle cx="205.5" cy="95.5" r="5.5" transform="rotate(0,205.5,95.5)"/><circle cx="205.5" cy="117.5" r="5.5" transform="rotate(0,205.5,117.5)"/><circle cx="205.5" cy="150.5" r="5.5" transform="rotate(0,205.5,150.5)"/><circle cx="205.5" cy="183.5" r="5.5" transform="rotate(0,205.5,183.5)"/><circle cx="205.5" cy="194.5" r="5.5" transform="rotate(0,205.5,194.5)"/><circle cx="205.5" cy="216.5" r="5.5" transform="rotate(0,205.5,216.5)"/><circle cx="205.5" cy="238.5" r="5.5" transform="rotate(0,205.5,238.5)"/><circle cx="205.5" cy="271.5" r="5.5" transform="rotate(0,205.5,271.5)"/><circle cx="205.5" cy="293.5" r="5.5" transform="rotate(0,205.5,293.5)"/><circle cx="205.5" cy="326.5" r="5.5" transform="rotate(0,205.5,326.5)"/><circle cx="205.5" cy="348.5" r="5.5" transform="rotate(0,205.5,348.5)"/><circle cx="205.5" cy="381.5" r="5.5" transform="rotate(0,205.5,381.5)"/><circle cx="205.5" cy="414.5" r="5.5" transform="rotate(0,205.5,414.5)"/><circle cx="205.5" cy="436.5" r="5.5" transform="rotate(0,205.5,436.5)"/><circle cx="205.5" cy="458.5" r="5.5" transform="rotate(0,205.5,458.5)"/><circle cx="216.5" cy="40.5" r="5.5" transform="rotate(0,216.5,40.5)"/><circle cx="216.5" cy="51.5" r="5.5" transform="rotate(0,216.5,51.5)"/><circle cx="216.5" cy="62.5" r="5.5" transform="rotate(0,216.5,62.5)"/><circle cx="216.5" cy="73.5" r="5.5" transform="rotate(0,216.5,73.5)"/><circle cx="216.5" cy="84.5" r="5.5" transform="rotate(0,216.5,84.5)"/><circle cx="216.5" cy="106.5" r="5.5" transform="rotate(0,216.5,106.5)"/><circle cx="216.5" cy="117.5" r="5.5" transform="rotate(0,216.5,117.5)"/><circle cx="216.5" cy="128.5" r="5.5" transform="rotate(0,216.5,128.5)"/><circle cx="216.5" cy="161.5" r="5.5" transform="rotate(0,216.5,161.5)"/><circle cx="216.5" cy="216.5" r="5.5" transform="rotate(0,216.5,216.5)"/><circle cx="216.5" cy="227.5" r="5.5" transform="rotate(0,216.5,227.5)"/><circle cx="216.5" cy="238.5" r="5.5" transform="rotate(0,216.5,238.5)"/><circle cx="216.5" cy="282.5" r="5.5" transform="rotate(0,216.5,282.5)"/><circle cx="216.5" cy="293.5" r="5.5" transform="rotate(0,216.5,293.5)"/><circle cx="216.5" cy="337.5" r="5.5" transform="rotate(0,216.5,337.5)"/><circle cx="216.5" cy="403.5" r="5.5" transform="rotate(0,216.5,403.5)"/><circle cx="216.5" cy="414.5" r="5.5" transform="rotate(0,216.5,414.5)"/><circle cx="216.5" cy="469.5" r="5.5" transform="rotate(0,216.5,469.5)"/><circle cx="227.5" cy="29.5" r="5.5" transform="rotate(0,227.5,29.5)"/><circle cx="227.5" cy="51.5" r="5.5" transform="rotate(0,227.5,51.5)"/><circle cx="227.5" cy="73.5" r="5.5" transform="rotate(0,227.5,73.5)"/><circle cx="227.5" cy="84.5" r="5.5" transform="rotate(0,227.5,84.5)"/><circle cx="227.5" cy="95.5" r="5.5" transform="rotate(0,227.5,95.5)"/><circle cx="227.5" cy="106.5" r="5.5" transform="rotate(0,227.5,106.5)"/><circle cx="227.5" cy="128.5" r="5.5" transform="rotate(0,227.5,128.5)"/><circle cx="227.5" cy="150.5" r="5.5" transform="rotate(0,227.5,150.5)"/><circle cx="227.5" cy="161.5" r="5.5" transform="rotate(0,227.5,161.5)"/><circle cx="227.5" cy="194.5" r="5.5" transform="rotate(0,227.5,194.5)"/><circle cx="227.5" cy="205.5" r="5.5" transform="rotate(0,227.5,205.5)"/><circle cx="227.5" cy="304.5" r="5.5" transform="rotate(0,227.5,304.5)"/><circle cx="227.5" cy="359.5" r="5.5" transform="rotate(0,227.5,359.5)"/><circle cx="227.5" cy="381.5" r="5.5" transform="rotate(0,227.5,381.5)"/><circle cx="227.5" cy="403.5" r="5.5" transform="rotate(0,227.5,403.5)"/><circle cx="227.5" cy="425.5" r="5.5" transform="rotate(0,227.5,425.5)"/><circle cx="227.5" cy="436.5" r="5.5" transform="rotate(0,227.5,436.5)"/><circle cx="227.5" cy="447.5" r="5.5" transform="rotate(0,227.5,447.5)"/><circle cx="227.5" cy="458.5" r="5.5" transform="rotate(0,227.5,458.5)"/><circle cx="227.5" cy="469.5" r="5.5" transform="rotate(0,227.5,469.5)"/><circle cx="238.5" cy="29.5" r="5.5" transform="rotate(0,238.5,29.5)"/><circle cx="238.5" cy="40.5" r="5.5" transform="rotate(0,238.5,40.5)"/><circle cx="238.5" cy="106.5" r="5.5" transform="rotate(0,238.5,106.5)"/><circle cx="238.5" cy="139.5" r="5.5" transform="rotate(0,238.5,139.5)"/><circle cx="238.5" cy="183.5" r="5.5" transform="rotate(0,238.5,183.5)"/><circle cx="238.5" cy="205.5" r="5.5" transform="rotate(0,238.5,205.5)"/><circle cx="238.5" cy="216.5" r="5.5" transform="rotate(0,238.5,216.5)"/><circle cx="238.5" cy="238.5" r="5.5" transform="rotate(0,238.5,238.5)"/><circle cx="238.5" cy="271.5" r="5.5" transform="rotate(0,238.5,271.5)"/><circle cx="238.5" cy="282.5" r="5.5" transform="rotate(0,238.5,282.5)"/><circle cx="238.5" cy="293.5" r="5.5" transform="rotate(0,238.5,293.5)"/><circle cx="238.5" cy="304.5" r="5.5" transform="rotate(0,238.5,304.5)"/><circle cx="238.5" cy="326.5" r="5.5" transform="rotate(0,238.5,326.5)"/><circle cx="238.5" cy="348.5" r="5.5" transform="rotate(0,238.5,348.5)"/><circle cx="238.5" cy="359.5" r="5.5" transform="rotate(0,238.5,359.5)"/><circle cx="238.5" cy="414.5" r="5.5" transform="rotate(0,238.5,414.5)"/><circle cx="238.5" cy="436.5" r="5.5" transform="rotate(0,238.5,436.5)"/><circle cx="238.5" cy="458.5" r="5.5" transform="rotate(0,238.5,458.5)"/><circle cx="238.5" cy="469.5" r="5.5" transform="rotate(0,238.5,469.5)"/><circle cx="249.5" cy="29.5" r="5.5" transform="rotate(0,249.5,29.5)"/><circle cx="249.5" cy="51.5" r="5.5" transform="rotate(0,249.5,51.5)"/><circle cx="249.5" cy="62.5" r="5.5" transform="rotate(0,249.5,62.5)"/><circle cx="249.5" cy="95.5" r="5.5" transform="rotate(0,249.5,95.5)"/><circle cx="249.5" cy="106.5" r="5.5" transform="rotate(0,249.5,106.5)"/><circle cx="249.5" cy="139.5" r="5.5" transform="rotate(0,249.5,139.5)"/><circle cx="249.5" cy="150.5" r="5.5" transform="rotate(0,249.5,150.5)"/><circle cx="249.5" cy="216.5" r="5.5" transform="rotate(0,249.5,216.5)"/><circle cx="249.5" cy="238.5" r="5.5" transform="rotate(0,249.5,238.5)"/><circle cx="249.5" cy="260.5" r="5.5" transform="rotate(0,249.5,260.5)"/><circle cx="249.5" cy="271.5" r="5.5" transform="rotate(0,249.5,271.5)"/><circle cx="249.5" cy="315.5" r="5.5" transform="rotate(0,249.5,315.5)"/><circle cx="249.5" cy="326.5" r="5.5" transform="rotate(0,249.5,326.5)"/><circle cx="249.5" cy="337.5" r="5.5" transform="rotate(0,249.5,337.5)"/><circle cx="249.5" cy="348.5" r="5.5" transform="rotate(0,249.5,348.5)"/><circle cx="249.5" cy="359.5" r="5.5" transform="rotate(0,249.5,359.5)"/><circle cx="249.5" cy="370.5" r="5.5" transform="rotate(0,249.5,370.5)"/><circle cx="249.5" cy="392.5" r="5.5" transform="rotate(0,249.5,392.5)"/><circle cx="249.5" cy="403.5" r="5.5" transform="rotate(0,249.5,403.5)"/><circle cx="249.5" cy="414.5" r="5.5" transform="rotate(0,249.5,414.5)"/><circle cx="249.5" cy="436.5" r="5.5" transform="rotate(0,249.5,436.5)"/><circle cx="249.5" cy="447.5" r="5.5" transform="rotate(0,249.5,447.5)"/><circle cx="249.5" cy="469.5" r="5.5" transform="rotate(0,249.5,469.5)"/><circle cx="260.5" cy="29.5" r="5.5" transform="rotate(0,260.5,29.5)"/><circle cx="260.5" cy="40.5" r="5.5" transform="rotate(0,260.5,40.5)"/><circle cx="260.5" cy="62.5" r="5.5" transform="rotate(0,260.5,62.5)"/><circle cx="260.5" cy="73.5" r="5.5" transform="rotate(0,260.5,73.5)"/><circle cx="260.5" cy="84.5" r="5.5" transform="rotate(0,260.5,84.5)"/><circle cx="260.5" cy="128.5" r="5.5" transform="rotate(0,260.5,128.5)"/><circle cx="260.5" cy="139.5" r="5.5" transform="rotate(0,260.5,139.5)"/><circle cx="260.5" cy="150.5" r="5.5" transform="rotate(0,260.5,150.5)"/><circle cx="260.5" cy="183.5" r="5.5" transform="rotate(0,260.5,183.5)"/><circle cx="260.5" cy="205.5" r="5.5" transform="rotate(0,260.5,205.5)"/><circle cx="260.5" cy="216.5" r="5.5" transform="rotate(0,260.5,216.5)"/><circle cx="260.5" cy="227.5" r="5.5" transform="rotate(0,260.5,227.5)"/><circle cx="260.5" cy="238.5" r="5.5" transform="rotate(0,260.5,238.5)"/><circle cx="260.5" cy="271.5" r="5.5" transform="rotate(0,260.5,271.5)"/><circle cx="260.5" cy="293.5" r="5.5" transform="rotate(0,260.5,293.5)"/><circle cx="260.5" cy="337.5" r="5.5" transform="rotate(0,260.5,337.5)"/><circle cx="260.5" cy="359.5" r="5.5" transform="rotate(0,260.5,359.5)"/><circle cx="260.5" cy="403.5" r="5.5" transform="rotate(0,260.5,403.5)"/><circle cx="260.5" cy="458.5" r="5.5" transform="rotate(0,260.5,458.5)"/><circle cx="260.5" cy="469.5" r="5.5" transform="rotate(0,260.5,469.5)"/><circle cx="271.5" cy="62.5" r="5.5" transform="rotate(0,271.5,62.5)"/><circle cx="271.5" cy="73.5" r="5.5" transform="rotate(0,271.5,73.5)"/><circle cx="271.5" cy="84.5" r="5.5" transform="rotate(0,271.5,84.5)"/><circle cx="271.5" cy="95.5" r="5.5" transform="rotate(0,271.5,95.5)"/><circle cx="271.5" cy="117.5" r="5.5" transform="rotate(0,271.5,117.5)"/><circle cx="271.5" cy="150.5" r="5.5" transform="rotate(0,271.5,150.5)"/><circle cx="271.5" cy="172.5" r="5.5" transform="rotate(0,271.5,172.5)"/><circle cx="271.5" cy="205.5" r="5.5" transform="rotate(0,271.5,205.5)"/><circle cx="271.5" cy="216.5" r="5.5" transform="rotate(0,271.5,216.5)"/><circle cx="271.5" cy="227.5" r="5.5" transform="rotate(0,271.5,227.5)"/><circle cx="271.5" cy="238.5" r="5.5" transform="rotate(0,271.5,238.5)"/><circle cx="271.5" cy="249.5" r="5.5" transform="rotate(0,271.5,249.5)"/><circle cx="271.5" cy="260.5" r="5.5" transform="rotate(0,271.5,260.5)"/><circle cx="271.5" cy="359.5" r="5.5" transform="rotate(0,271.5,359.5)"/><circle cx="271.5" cy="370.5" r="5.5" transform="rotate(0,271.5,370.5)"/><circle cx="271.5" cy="392.5" r="5.5" transform="rotate(0,271.5,392.5)"/><circle cx="271.5" cy="414.5" r="5.5" transform="rotate(0,271.5,414.5)"/><circle cx="271.5" cy="425.5" r="5.5" transform="rotate(0,271.5,425.5)"/><circle cx="271.5" cy="447.5" r="5.5" transform="rotate(0,271.5,447.5)"/><circle cx="271.5" cy="458.5" r="5.5" transform="rotate(0,271.5,458.5)"/><circle cx="282.5" cy="29.5" r="5.5" transform="rotate(0,282.5,29.5)"/><circle cx="282.5" cy="40.5" r="5.5" transform="rotate(0,282.5,40.5)"/><circle cx="282.5" cy="51.5" r="5.5" transform="rotate(0,282.5,51.5)"/><circle cx="282.5" cy="62.5" r="5.5" transform="rotate(0,282.5,62.5)"/><circle cx="282.5" cy="84.5" r="5.5" transform="rotate(0,282.5,84.5)"/><circle cx="282.5" cy="117.5" r="5.5" transform="rotate(0,282.5,117.5)"/><circle cx="282.5" cy="128.5" r="5.5" transform="rotate(0,282.5,128.5)"/><circle cx="282.5" cy="150.5" r="5.5" transform="rotate(0,282.5,150.5)"/><circle cx="282.5" cy="161.5" r="5.5" transform="rotate(0,282.5,161.5)"/><circle cx="282.5" cy="172.5" r="5.5" transform="rotate(0,282.5,172.5)"/><circle cx="282.5" cy="183.5" r="5.5" transform="rotate(0,282.5,183.5)"/><circle cx="282.5" cy="205.5" r="5.5" transform="rotate(0,282.5,205.5)"/><circle cx="282.5" cy="227.5" r="5.5" transform="rotate(0,282.5,227.5)"/><circle cx="282.5" cy="260.5" r="5.5" transform="rotate(0,282.5,260.5)"/><circle cx="282.5" cy="293.5" r="5.5" transform="rotate(0,282.5,293.5)"/><circle cx="282.5" cy="304.5" r="5.5" transform="rotate(0,282.5,304.5)"/><circle cx="282.5" cy="315.5" r="5.5" transform="rotate(0,282.5,315.5)"/><circle cx="282.5" cy="326.5" r="5.5" transform="rotate(0,282.5,326.5)"/><circle cx="282.5" cy="359.5" r="5.5" transform="rotate(0,282.5,359.5)"/><circle cx="282.5" cy="381.5" r="5.5" transform="rotate(0,282.5,381.5)"/><circle cx="282.5" cy="392.5" r="5.5" transform="rotate(0,282.5,392.5)"/><circle cx="282.5" cy="425.5" r="5.5" transform="rotate(0,282.5,425.5)"/><circle cx="282.5" cy="447.5" r="5.5" transform="rotate(0,282.5,447.5)"/><circle cx="282.5" cy="458.5" r="5.5" transform="rotate(0,282.5,458.5)"/><circle cx="293.5" cy="40.5" r="5.5" transform="rotate(0,293.5,40.5)"/><circle cx="293.5" cy="51.5" r="5.5" transform="rotate(0,293.5,51.5)"/><circle cx="293.5" cy="62.5" r="5.5" transform="rotate(0,293.5,62.5)"/><circle cx="293.5" cy="84.5" r="5.5" transform="rotate(0,293.5,84.5)"/><circle cx="293.5" cy="95.5" r="5.5" transform="rotate(0,293.5,95.5)"/><circle cx="293.5" cy="106.5" r="5.5" transform="rotate(0,293.5,106.5)"/><circle cx="293.5" cy="117.5" r="5.5" transform="rotate(0,293.5,117.5)"/><circle cx="293.5" cy="128.5" r="5.5" transform="rotate(0,293.5,128.5)"/><circle cx="293.5" cy="172.5" r="5.5" transform="rotate(0,293.5,172.5)"/><circle cx="293.5" cy="194.5" r="5.5" transform="rotate(0,293.5,194.5)"/><circle cx="293.5" cy="227.5" r="5.5" transform="rotate(0,293.5,227.5)"/><circle cx="293.5" cy="249.5" r="5.5" transform="rotate(0,293.5,249.5)"/><circle cx="293.5" cy="260.5" r="5.5" transform="rotate(0,293.5,260.5)"/><circle cx="293.5" cy="293.5" r="5.5" transform="rotate(0,293.5,293.5)"/><circle cx="293.5" cy="304.5" r="5.5" transform="rotate(0,293.5,304.5)"/><circle cx="293.5" cy="337.5" r="5.5" transform="rotate(0,293.5,337.5)"/><circle cx="293.5" cy="348.5" r="5.5" transform="rotate(0,293.5,348.5)"/><circle cx="293.5" cy="381.5" r="5.5" transform="rotate(0,293.5,381.5)"/><circle cx="293.5" cy="392.5" r="5.5" transform="rotate(0,293.5,392.5)"/><circle cx="293.5" cy="403.5" r="5.5" transform="rotate(0,293.5,403.5)"/><circle cx="293.5" cy="436.5" r="5.5" transform="rotate(0,293.5,436.5)"/><circle cx="293.5" cy="469.5" r="5.5" transform="rotate(0,293.5,469.5)"/><circle cx="304.5" cy="40.5" r="5.5" transform="rotate(0,304.5,40.5)"/><circle cx="304.5" cy="51.5" r="5.5" transform="rotate(0,304.5,51.5)"/><circle cx="304.5" cy="62.5" r="5.5" transform="rotate(0,304.5,62.5)"/><circle cx="304.5" cy="84.5" r="5.5" transform="rotate(0,304.5,84.5)"/><circle cx="304.5" cy="106.5" r="5.5" transform="rotate(0,304.5,106.5)"/><circle cx="304.5" cy="117.5" r="5.5" transform="rotate(0,304.5,117.5)"/><circle cx="304.5" cy="139.5" r="5.5" transform="rotate(0,304.5,139.5)"/><circle cx="304.5" cy="150.5" r="5.5" transform="rotate(0,304.5,150.5)"/><circle cx="304.5" cy="172.5" r="5.5" transform="rotate(0,304.5,172.5)"/><circle cx="304.5" cy="183.5" r="5.5" transform="rotate(0,304.5,183.5)"/><circle cx="304.5" cy="194.5" r="5.5" transform="rotate(0,304.5,194.5)"/><circle cx="304.5" cy="205.5" r="5.5" transform="rotate(0,304.5,205.5)"/><circle cx="304.5" cy="216.5" r="5.5" transform="rotate(0,304.5,216.5)"/><circle cx="304.5" cy="227.5" r="5.5" transform="rotate(0,304.5,227.5)"/><circle cx="304.5" cy="238.5" r="5.5" transform="rotate(0,304.5,238.5)"/><circle cx="304.5" cy="260.5" r="5.5" transform="rotate(0,304.5,260.5)"/><circle cx="304.5" cy="271.5" r="5.5" transform="rotate(0,304.5,271.5)"/><circle cx="304.5" cy="315.5" r="5.5" transform="rotate(0,304.5,315.5)"/><circle cx="304.5" cy="348.5" r="5.5" transform="rotate(0,304.5,348.5)"/><circle cx="304.5" cy="370.5" r="5.5" transform="rotate(0,304.5,370.5)"/><circle cx="304.5" cy="392.5" r="5.5" transform="rotate(0,304.5,392.5)"/><circle cx="304.5" cy="436.5" r="5.5" transform="rotate(0,304.5,436.5)"/><circle cx="315.5" cy="29.5" r="5.5" transform="rotate(0,315.5,29.5)"/><circle cx="315.5" cy="40.5" r="5.5" transform="rotate(0,315.5,40.5)"/><circle cx="315.5" cy="51.5" r="5.5" transform="rotate(0,315.5,51.5)"/><circle cx="315.5" cy="84.5" r="5.5" transform="rotate(0,315.5,84.5)"/><circle cx="315.5" cy="95.5" r="5.5" transform="rotate(0,315.5,95.5)"/><circle cx="315.5" cy="128.5" r="5.5" transform="rotate(0,315.5,128.5)"/><circle cx="315.5" cy="139.5" r="5.5" transform="rotate(0,315.5,139.5)"/><circle cx="315.5" cy="161.5" r="5.5" transform="rotate(0,315.5,161.5)"/><circle cx="315.5" cy="194.5" r="5.5" transform="rotate(0,315.5,194.5)"/><circle cx="315.5" cy="227.5" r="5.5" transform="rotate(0,315.5,227.5)"/><circle cx="315.5" cy="282.5" r="5.5" transform="rotate(0,315.5,282.5)"/><circle cx="315.5" cy="337.5" r="5.5" transform="rotate(0,315.5,337.5)"/><circle cx="315.5" cy="348.5" r="5.5" transform="rotate(0,315.5,348.5)"/><circle cx="315.5" cy="381.5" r="5.5" transform="rotate(0,315.5,381.5)"/><circle cx="315.5" cy="392.5" r="5.5" transform="rotate(0,315.5,392.5)"/><circle cx="315.5" cy="458.5" r="5.5" transform="rotate(0,315.5,458.5)"/><circle cx="315.5" cy="469.5" r="5.5" transform="rotate(0,315.5,469.5)"/><circle cx="326.5" cy="40.5" r="5.5" transform="rotate(0,326.5,40.5)"/><circle cx="326.5" cy="106.5" r="5.5" transform="rotate(0,326.5,106.5)"/><circle cx="326.5" cy="150.5" r="5.5" transform="rotate(0,326.5,150.5)"/><circle cx="326.5" cy="194.5" r="5.5" transform="rotate(0,326.5,194.5)"/><circle cx="326.5" cy="227.5" r="5.5" transform="rotate(0,326.5,227.5)"/><circle cx="326.5" cy="304.5" r="5.5" transform="rotate(0,326.5,304.5)"/><circle cx="326.5" cy="315.5" r="5.5" transform="rotate(0,326.5,315.5)"/><circle cx="326.5" cy="326.5" r="5.5" transform="rotate(0,326.5,326.5)"/><circle cx="326.5" cy="337.5" r="5.5" transform="rotate(0,326.5,337.5)"/><circle cx="326.5" cy="348.5" r="5.5" transform="rotate(0,326.5,348.5)"/><circle cx="326.5" cy="359.5" r="5.5" transform="rotate(0,326.5,359.5)"/><circle cx="326.5" cy="381.5" r="5.5" transform="rotate(0,326.5,381.5)"/><circle cx="326.5" cy="392.5" r="5.5" transform="rotate(0,326.5,392.5)"/><circle cx="337.5" cy="29.5" r="5.5" transform="rotate(0,337.5,29.5)"/><circle cx="337.5" cy="62.5" r="5.5" transform="rotate(0,337.5,62.5)"/><circle cx="337.5" cy="95.5" r="5.5" transform="rotate(0,337.5,95.5)"/><circle cx="337.5" cy="106.5" r="5.5" transform="rotate(0,337.5,106.5)"/><circle cx="337.5" cy="161.5" r="5.5" transform="rotate(0,337.5,161.5)"/><circle cx="337.5" cy="172.5" r="5.5" transform="rotate(0,337.5,172.5)"/><circle cx="337.5" cy="194.5" r="5.5" transform="rotate(0,337.5,194.5)"/><circle cx="337.5" cy="205.5" r="5.5" transform="rotate(0,337.5,205.5)"/><circle cx="337.5" cy="238.5" r="5.5" transform="rotate(0,337.5,238.5)"/><circle cx="337.5" cy="282.5" r="5.5" transform="rotate(0,337.5,282.5)"/><circle cx="337.5" cy="293.5" r="5.5" transform="rotate(0,337.5,293.5)"/><circle cx="337.5" cy="326.5" r="5.5" transform="rotate(0,337.5,326.5)"/><circle cx="337.5" cy="337.5" r="5.5" transform="rotate(0,337.5,337.5)"/><circle cx="337.5" cy="348.5" r="5.5" transform="rotate(0,337.5,348.5)"/><circle cx="337.5" cy="381.5" r="5.5" transform="rotate(0,337.5,381.5)"/><circle cx="337.5" cy="392.5" r="5.5" transform="rotate(0,337.5,392.5)"/><circle cx="348.5" cy="40.5" r="5.5" transform="rotate(0,348.5,40.5)"/><circle cx="348.5" cy="51.5" r="5.5" transform="rotate(0,348.5,51.5)"/><circle cx="348.5" cy="139.5" r="5.5" transform="rotate(0,348.5,139.5)"/><circle cx="348.5" cy="172.5" r="5.5" transform="rotate(0,348.5,172.5)"/><circle cx="348.5" cy="183.5" r="5.5" transform="rotate(0,348.5,183.5)"/><circle cx="348.5" cy="216.5" r="5.5" transform="rotate(0,348.5,216.5)"/><circle cx="348.5" cy="249.5" r="5.5" transform="rotate(0,348.5,249.5)"/><circle cx="348.5" cy="260.5" r="5.5" transform="rotate(0,348.5,260.5)"/><circle cx="348.5" cy="293.5" r="5.5" transform="rotate(0,348.5,293.5)"/><circle cx="348.5" cy="304.5" r="5.5" transform="rotate(0,348.5,304.5)"/><circle cx="348.5" cy="326.5" r="5.5" transform="rotate(0,348.5,326.5)"/><circle cx="348.5" cy="348.5" r="5.5" transform="rotate(0,348.5,348.5)"/><circle cx="348.5" cy="381.5" r="5.5" transform="rotate(0,348.5,381.5)"/><circle cx="348.5" cy="403.5" r="5.5" transform="rotate(0,348.5,403.5)"/><circle cx="348.5" cy="414.5" r="5.5" transform="rotate(0,348.5,414.5)"/><circle cx="348.5" cy="458.5" r="5.5" transform="rotate(0,348.5,458.5)"/><circle cx="348.5" cy="469.5" r="5.5" transform="rotate(0,348.5,469.5)"/><circle cx="359.5" cy="29.5" r="5.5" transform="rotate(0,359.5,29.5)"/><circle cx="359.5" cy="62.5" r="5.5" transform="rotate(0,359.5,62.5)"/><circle cx="359.5" cy="73.5" r="5.5" transform="rotate(0,359.5,73.5)"/><circle cx="359.5" cy="84.5" r="5.5" transform="rotate(0,359.5,84.5)"/><circle cx="359.5" cy="95.5" r="5.5" transform="rotate(0,359.5,95.5)"/><circle cx="359.5" cy="117.5" r="5.5" transform="rotate(0,359.5,117.5)"/><circle cx="359.5" cy="161.5" r="5.5" transform="rotate(0,359.5,161.5)"/><circle cx="359.5" cy="205.5" r="5.5" transform="rotate(0,359.5,205.5)"/><circle cx="359.5" cy="227.5" r="5.5" transform="rotate(0,359.5,227.5)"/><circle cx="359.5" cy="249.5" r="5.5" transform="rotate(0,359.5,249.5)"/><circle cx="359.5" cy="260.5" r="5.5" transform="rotate(0,359.5,260.5)"/><circle cx="359.5" cy="271.5" r="5.5" transform="rotate(0,359.5,271.5)"/><circle cx="359.5" cy="282.5" r="5.5" transform="rotate(0,359.5,282.5)"/><circle cx="359.5" cy="293.5" r="5.5" transform="rotate(0,359.5,293.5)"/><circle cx="359.5" cy="436.5" r="5.5" transform="rotate(0,359.5,436.5)"/><circle cx="359.5" cy="458.5" r="5.5" transform="rotate(0,359.5,458.5)"/><circle cx="359.5" cy="469.5" r="5.5" transform="rotate(0,359.5,469.5)"/><circle cx="370.5" cy="51.5" r="5.5" transform="rotate(0,370.5,51.5)"/><circle cx="370.5" cy="62.5" r="5.5" transform="rotate(0,370.5,62.5)"/><circle cx="370.5" cy="84.5" r="5.5" transform="rotate(0,370.5,84.5)"/><circle cx="370.5" cy="106.5" r="5.5" transform="rotate(0,370.5,106.5)"/><circle cx="370.5" cy="117.5" r="5.5" transform="rotate(0,370.5,117.5)"/><circle cx="370.5" cy="139.5" r="5.5" transform="rotate(0,370.5,139.5)"/><circle cx="370.5" cy="150.5" r="5.5" transform="rotate(0,370.5,150.5)"/><circle cx="370.5" cy="227.5" r="5.5" transform="rotate(0,370.5,227.5)"/><circle cx="370.5" cy="260.5" r="5.5" transform="rotate(0,370.5,260.5)"/><circle cx="370.5" cy="271.5" r="5.5" transform="rotate(0,370.5,271.5)"/><circle cx="370.5" cy="293.5" r="5.5" transform="rotate(0,370.5,293.5)"/><circle cx="370.5" cy="326.5" r="5.5" transform="rotate(0,370.5,326.5)"/><circle cx="370.5" cy="337.5" r="5.5" transform="rotate(0,370.5,337.5)"/><circle cx="370.5" cy="348.5" r="5.5" transform="rotate(0,370.5,348.5)"/><circle cx="370.5" cy="370.5" r="5.5" transform="rotate(0,370.5,370.5)"/><circle cx="370.5" cy="392.5" r="5.5" transform="rotate(0,370.5,392.5)"/><circle cx="370.5" cy="414.5" r="5.5" transform="rotate(0,370.5,414.5)"/><circle cx="370.5" cy="425.5" r="5.5" transform="rotate(0,370.5,425.5)"/><circle cx="370.5" cy="436.5" r="5.5" transform="rotate(0,370.5,436.5)"/><circle cx="370.5" cy="458.5" r="5.5" transform="rotate(0,370.5,458.5)"/><circle cx="381.5" cy="29.5" r="5.5" transform="rotate(0,381.5,29.5)"/><circle cx="381.5" cy="51.5" r="5.5" transform="rotate(0,381.5,51.5)"/><circle cx="381.5" cy="73.5" r="5.5" transform="rotate(0,381.5,73.5)"/><circle cx="381.5" cy="95.5" r="5.5" transform="rotate(0,381.5,95.5)"/><circle cx="381.5" cy="139.5" r="5.5" transform="rotate(0,381.5,139.5)"/><circle cx="381.5" cy="172.5" r="5.5" transform="rotate(0,381.5,172.5)"/><circle cx="381.5" cy="183.5" r="5.5" transform="rotate(0,381.5,183.5)"/><circle cx="381.5" cy="194.5" r="5.5" transform="rotate(0,381.5,194.5)"/><circle cx="381.5" cy="216.5" r="5.5" transform="rotate(0,381.5,216.5)"/><circle cx="381.5" cy="227.5" r="5.5" transform="rotate(0,381.5,227.5)"/><circle cx="381.5" cy="249.5" r="5.5" transform="rotate(0,381.5,249.5)"/><circle cx="381.5" cy="260.5" r="5.5" transform="rotate(0,381.5,260.5)"/><circle cx="381.5" cy="293.5" r="5.5" transform="rotate(0,381.5,293.5)"/><circle cx="381.5" cy="304.5" r="5.5" transform="rotate(0,381.5,304.5)"/><circle cx="381.5" cy="315.5" r="5.5" transform="rotate(0,381.5,315.5)"/><circle cx="381.5" cy="337.5" r="5.5" transform="rotate(0,381.5,337.5)"/><circle cx="381.5" cy="381.5" r="5.5" transform="rotate(0,381.5,381.5)"/><circle cx="381.5" cy="392.5" r="5.5" transform="rotate(0,381.5,392.5)"/><circle cx="381.5" cy="403.5" r="5.5" transform="rotate(0,381.5,403.5)"/><circle cx="381.5" cy="414.5" r="5.5" transform="rotate(0,381.5,414.5)"/><circle cx="381.5" cy="425.5" r="5.5" transform="rotate(0,381.5,425.5)"/><circle cx="381.5" cy="447.5" r="5.5" transform="rotate(0,381.5,447.5)"/><circle cx="381.5" cy="469.5" r="5.5" transform="rotate(0,381.5,469.5)"/><circle cx="392.5" cy="117.5" r="5.5" transform="rotate(0,392.5,117.5)"/><circle cx="392.5" cy="139.5" r="5.5" transform="rotate(0,392.5,139.5)"/><circle cx="392.5" cy="205.5" r="5.5" transform="rotate(0,392.5,205.5)"/><circle cx="392.5" cy="216.5" r="5.5" transform="rotate(0,392.5,216.5)"/><circle cx="392.5" cy="238.5" r="5.5" transform="rotate(0,392.5,238.5)"/><circle cx="392.5" cy="249.5" r="5.5" transform="rotate(0,392.5,249.5)"/><circle cx="392.5" cy="271.5" r="5.5" transform="rotate(0,392.5,271.5)"/><circle cx="392.5" cy="293.5" r="5.5" transform="rotate(0,392.5,293.5)"/><circle cx="392.5" cy="304.5" r="5.5" transform="rotate(0,392.5,304.5)"/><circle cx="392.5" cy="370.5" r="5.5" transform="rotate(0,392.5,370.5)"/><circle cx="392.5" cy="381.5" r="5.5" transform="rotate(0,392.5,381.5)"/><circle cx="392.5" cy="425.5" r="5.5" transform="rotate(0,392.5,425.5)"/><circle cx="392.5" cy="436.5" r="5.5" transform="rotate(0,392.5,436.5)"/><circle cx="392.5" cy="469.5" r="5.5" transform="rotate(0,392.5,469.5)"/><circle cx="403.5" cy="117.5" r="5.5" transform="rotate(0,403.5,117.5)"/><circle cx="403.5" cy="150.5" r="5.5" transform="rotate(0,403.5,150.5)"/><circle cx="403.5" cy="216.5" r="5.5" transform="rotate(0,403.5,216.5)"/><circle cx="403.5" cy="238.5" r="5.5" transform="rotate(0,403.5,238.5)"/><circle cx="403.5" cy="249.5" r="5.5" transform="rotate(0,403.5,249.5)"/><circle cx="403.5" cy="271.5" r="5.5" transform="rotate(0,403.5,271.5)"/><circle cx="403.5" cy="304.5" r="5.5" transform="rotate(0,403.5,304.5)"/><circle cx="403.5" cy="315.5" r="5.5" transform="rotate(0,403.5,315.5)"/><circle cx="403.5" cy="337.5" r="5.5" transform="rotate(0,403.5,337.5)"/><circle cx="403.5" cy="348.5" r="5.5" transform="rotate(0,403.5,348.5)"/><circle cx="403.5" cy="381.5" r="5.5" transform="rotate(0,403.5,381.5)"/><circle cx="403.5" cy="403.5" r="5.5" transform="rotate(0,403.5,403.5)"/><circle cx="403.5" cy="425.5" r="5.5" transform="rotate(0,403.5,425.5)"/><circle cx="403.5" cy="458.5" r="5.5" transform="rotate(0,403.5,458.5)"/><circle cx="414.5" cy="117.5" r="5.5" transform="rotate(0,414.5,117.5)"/><circle cx="414.5" cy="128.5" r="5.5" transform="rotate(0,414.5,128.5)"/><circle cx="414.5" cy="150.5" r="5.5" transform="rotate(0,414.5,150.5)"/><circle cx="414.5" cy="161.5" r="5.5" transform="rotate(0,414.5,161.5)"/><circle cx="414.5" cy="227.5" r="5.5" transform="rotate(0,414.5,227.5)"/><circle cx="414.5" cy="260.5" r="5.5" transform="rotate(0,414.5,260.5)"/><circle cx="414.5" cy="304.5" r="5.5" transform="rotate(0,414.5,304.5)"/><circle cx="414.5" cy="326.5" r="5.5" transform="rotate(0,414.5,326.5)"/><circle cx="414.5" cy="337.5" r="5.5" transform="rotate(0,414.5,337.5)"/><circle cx="414.5" cy="348.5" r="5.5" transform="rotate(0,414.5,348.5)"/><circle cx="414.5" cy="381.5" r="5.5" transform="rotate(0,414.5,381.5)"/><circle cx="414.5" cy="425.5" r="5.5" transform="rotate(0,414.5,425.5)"/><circle cx="414.5" cy="447.5" r="5.5" transform="rotate(0,414.5,447.5)"/><circle cx="414.5" cy="469.5" r="5.5" transform="rotate(0,414.5,469.5)"/><circle cx="425.5" cy="128.5" r="5.5" transform="rotate(0,425.5,128.5)"/><circle cx="425.5" cy="161.5" r="5.5" transform="rotate(0,425.5,161.5)"/><circle cx="425.5" cy="172.5" r="5.5" transform="rotate(0,425.5,172.5)"/><circle cx="425.5" cy="205.5" r="5.5" transform="rotate(0,425.5,205.5)"/><circle cx="425.5" cy="216.5" r="5.5" transform="rotate(0,425.5,216.5)"/><circle cx="425.5" cy="227.5" r="5.5" transform="rotate(0,425.5,227.5)"/><circle cx="425.5" cy="238.5" r="5.5" transform="rotate(0,425.5,238.5)"/><circle cx="425.5" cy="271.5" r="5.5" transform="rotate(0,425.5,271.5)"/><circle cx="425.5" cy="315.5" r="5.5" transform="rotate(0,425.5,315.5)"/><circle cx="425.5" cy="381.5" r="5.5" transform="rotate(0,425.5,381.5)"/><circle cx="425.5" cy="392.5" r="5.5" transform="rotate(0,425.5,392.5)"/><circle cx="425.5" cy="403.5" r="5.5" transform="rotate(0,425.5,403.5)"/><circle cx="425.5" cy="414.5" r="5.5" transform="rotate(0,425.5,414.5)"/><circle cx="425.5" cy="425.5" r="5.5" transform="rotate(0,425.5,425.5)"/><circle cx="425.5" cy="436.5" r="5.5" transform="rotate(0,425.5,436.5)"/><circle cx="425.5" cy="458.5" r="5.5" transform="rotate(0,425.5,458.5)"/><circle cx="436.5" cy="117.5" r="5.5" transform="rotate(0,436.5,117.5)"/><circle cx="436.5" cy="161.5" r="5.5" transform="rotate(0,436.5,161.5)"/><circle cx="436.5" cy="172.5" r="5.5" transform="rotate(0,436.5,172.5)"/><circle cx="436.5" cy="205.5" r="5.5" transform="rotate(0,436.5,205.5)"/><circle cx="436.5" cy="238.5" r="5.5" transform="rotate(0,436.5,238.5)"/><circle cx="436.5" cy="260.5" r="5.5" transform="rotate(0,436.5,260.5)"/><circle cx="436.5" cy="293.5" r="5.5" transform="rotate(0,436.5,293.5)"/><circle cx="436.5" cy="315.5" r="5.5" transform="rotate(0,436.5,315.5)"/><circle cx="436.5" cy="370.5" r="5.5" transform="rotate(0,436.5,370.5)"/><circle cx="436.5" cy="381.5" r="5.5" transform="rotate(0,436.5,381.5)"/><circle cx="436.5" cy="392.5" r="5.5" transform="rotate(0,436.5,392.5)"/><circle cx="436.5" cy="403.5" r="5.5" transform="rotate(0,436.5,403.5)"/><circle cx="436.5" cy="425.5" r="5.5" transform="rotate(0,436.5,425.5)"/><circle cx="436.5" cy="458.5" r="5.5" transform="rotate(0,436.5,458.5)"/><circle cx="436.5" cy="469.5" r="5.5" transform="rotate(0,436.5,469.5)"/><circle cx="447.5" cy="128.5" r="5.5" transform="rotate(0,447.5,128.5)"/><circle cx="447.5" cy="139.5" r="5.5" transform="rotate(0,447.5,139.5)"/><circle cx="447.5" cy="205.5" r="5.5" transform="rotate(0,447.5,205.5)"/><circle cx="447.5" cy="260.5" r="5.5" transform="rotate(0,447.5,260.5)"/><circle cx="447.5" cy="271.5" r="5.5" transform="rotate(0,447.5,271.5)"/><circle cx="447.5" cy="282.5" r="5.5" transform="rotate(0,447.5,282.5)"/><circle cx="447.5" cy="293.5" r="5.5" transform="rotate(0,447.5,293.5)"/><circle cx="447.5" cy="315.5" r="5.5" transform="rotate(0,447.5,315.5)"/><circle cx="447.5" cy="348.5" r="5.5" transform="rotate(0,447.5,348.5)"/><circle cx="447.5" cy="425.5" r="5.5" transform="rotate(0,447.5,425.5)"/><circle cx="447.5" cy="447.5" r="5.5" transform="rotate(0,447.5,447.5)"/><circle cx="447.5" cy="458.5" r="5.5" transform="rotate(0,447.5,458.5)"/><circle cx="447.5" cy="469.5" r="5.5" transform="rotate(0,447.5,469.5)"/><circle cx="458.5" cy="117.5" r="5.5" transform="rotate(0,458.5,117.5)"/><circle cx="458.5" cy="139.5" r="5.5" transform="rotate(0,458.5,139.5)"/><circle cx="458.5" cy="161.5" r="5.5" transform="rotate(0,458.5,161.5)"/><circle cx="458.5" cy="183.5" r="5.5" transform="rotate(0,458.5,183.5)"/><circle cx="458.5" cy="205.5" r="5.5" transform="rotate(0,458.5,205.5)"/><circle cx="458.5" cy="216.5" r="5.5" transform="rotate(0,458.5,216.5)"/><circle cx="458.5" cy="238.5" r="5.5" transform="rotate(0,458.5,238.5)"/><circle cx="458.5" cy="249.5" r="5.5" transform="rotate(0,458.5,249.5)"/><circle cx="458.5" cy="271.5" r="5.5" transform="rotate(0,458.5,271.5)"/><circle cx="458.5" cy="282.5" r="5.5" transform="rotate(0,458.5,282.5)"/><circle cx="458.5" cy="293.5" r="5.5" transform="rotate(0,458.5,293.5)"/><circle cx="458.5" cy="304.5" r="5.5" transform="rotate(0,458.5,304.5)"/><circle cx="458.5" cy="315.5" r="5.5" transform="rotate(0,458.5,315.5)"/><circle cx="458.5" cy="326.5" r="5.5" transform="rotate(0,458.5,326.5)"/><circle cx="458.5" cy="337.5" r="5.5" transform="rotate(0,458.5,337.5)"/><circle cx="458.5" cy="348.5" r="5.5" transform="rotate(0,458.5,348.5)"/><circle cx="458.5" cy="359.5" r="5.5" transform="rotate(0,458.5,359.5)"/><circle cx="458.5" cy="381.5" r="5.5" transform="rotate(0,458.5,381.5)"/><circle cx="458.5" cy="414.5" r="5.5" transform="rotate(0,458.5,414.5)"/><circle cx="458.5" cy="458.5" r="5.5" transform="rotate(0,458.5,458.5)"/><circle cx="469.5" cy="139.5" r="5.5" transform="rotate(0,469.5,139.5)"/><circle cx="469.5" cy="150.5" r="5.5" transform="rotate(0,469.5,150.5)"/><circle cx="469.5" cy="161.5" r="5.5" transform="rotate(0,469.5,161.5)"/><circle cx="469.5" cy="183.5" r="5.5" transform="rotate(0,469.5,183.5)"/><circle cx="469.5" cy="194.5" r="5.5" transform="rotate(0,469.5,194.5)"/><circle cx="469.5" cy="227.5" r="5.5" transform="rotate(0,469.5,227.5)"/><circle cx="469.5" cy="249.5" r="5.5" transform="rotate(0,469.5,249.5)"/><circle cx="469.5" cy="293.5" r="5.5" transform="rotate(0,469.5,293.5)"/><circle cx="469.5" cy="326.5" r="5.5" transform="rotate(0,469.5,326.5)"/><circle cx="469.5" cy="348.5" r="5.5" transform="rotate(0,469.5,348.5)"/><circle cx="469.5" cy="381.5" r="5.5" transform="rotate(0,469.5,381.5)"/><circle cx="469.5" cy="414.5" r="5.5" transform="rotate(0,469.5,414.5)"/><circle cx="469.5" cy="425.5" r="5.5" transform="rotate(0,469.5,425.5)"/><circle cx="469.5" cy="436.5" r="5.5" transform="rotate(0,469.5,436.5)"/><circle cx="469.5" cy="458.5" r="5.5" transform="rotate(0,469.5,458.5)"/></clipPath><clipPath id="clip-path-corners-square-color-0-0"><path clip-rule="evenodd" d="M 62.5 24a 38.5 38.5 0 1 0 0.1 0zm 0 11a 27.5 27.5 0 1 1 -0.1 0Z" transform="rotate(0,62.5,62.5)"/></clipPath><clipPath id="clip-path-corners-dot-color-0-0"><circle cx="62.5" cy="62.5" r="16.5" transform="rotate(0,62.5,62.5)"/></clipPath><clipPath id="clip-path-corners-square-color-1-0"><path clip-rule="evenodd" d="M 436.5 24a 38.5 38.5 0 1 0 0.1 0zm 0 11a 27.5 27.5 0 1 1 -0.1 0Z" transform="rotate(90,436.5,62.5)"/></clipPath><clipPath id="clip-path-corners-dot-color-1-0"><circle cx="436.5" cy="62.5" r="16.5" transform="rotate(90,436.5,62.5)"/></clipPath><clipPath id="clip-path-corners-square-color-0-1"><path clip-rule="evenodd" d="M 62.5 398a 38.5 38.5 0 1 0 0.1 0zm 0 11a 27.5 27.5 0 1 1 -0.1 0Z" transform="rotate(-90,62.5,436.5)"/></clipPath><clipPath id="clip-path-corners-dot-color-0-1"><circle cx="62.5" cy="436.5" r="16.5" transform="rotate(-90,62.5,436.5)"/></clipPath></defs><rect x="0" y="0" height="500" width="500" clip-path="url('#clip-path-background-color')" fill="#fff"/><rect x="0" y="0" height="500" width="500" clip-path="url('#clip-path-dot-color')" fill="#000000"/><rect x="24" y="24" height="77" width="77" clip-path="url('#clip-path-corners-square-color-0-0')" fill="#000000"/><rect x="46" y="46" height="33" width="33" clip-path="url('#clip-path-corners-dot-color-0-0')" fill="#000000"/><rect x="398" y="24" height="77" width="77" clip-path="url('#clip-path-corners-square-color-1-0')" fill="#000000"/><rect x="420" y="46" height="33" width="33" clip-path="url('#clip-path-corners-dot-color-1-0')" fill="#000000"/><rect x="24" y="398" height="77" width="77" clip-path="url('#clip-path-corners-square-color-0-1')" fill="#000000"/><rect x="46" y="420" height="33" width="33" clip-path="url('#clip-path-corners-dot-color-0-1')" fill="#000000"/></svg>