<svg xmlns="http://www.w3.org/2000/svg" viewBox="0 0 283.5 283.5" class="aim-logo" role="img" aria-label="AIM Lab logo">
  <circle cx="141.7" cy="141.7" r="138.2" fill="var(--logo-bg)"/>
  <g fill="var(--logo-mark)">
    <polygon points="95.7 152.1 86.9 152.1 78.2 175.8 95.7 175.8 95.7 152.1"/>
    <polygon points="137.1 110.6 137.1 192.1 152.2 233.6 181.9 233.6 137.1 110.6"/>
    <rect x="101.6" y="94.3" width="29.6" height="139.2"/>
    <polygon points="262.2 94.3 211.5 233.6 181.9 233.6 232.6 94.3 262.2 94.3"/>
    <polygon points="232.6 193.1 232.6 233.6 262.2 233.6 262.2 111.7 232.6 193.1"/>
    <circle cx="116.4" cy="64.7" r="14.8"/>
    <polyline points="50.9 233.6 95.7 110.6 50.9 233.6 21.3 233.6 71.9 94.3 95.7 94.3 95.7 110.6"/>
  </g>
</svg>
