<?xml version="1.0" standalone="no"?>
<svg xmlns="http://www.w3.org/2000/svg" width="500" height="500"><defs><clipPath id="clip-path-dot-color"><circle cx="34" cy="142" r="6" transform="rotate(0,34,142)"/><circle cx="34" cy="154" r="6" transform="rotate(0,34,154)"/><circle cx="34" cy="178" r="6" transform="rotate(0,34,178)"/><circle cx="34" cy="274" r="6" transform="rotate(0,34,274)"/><circle cx="34" cy="322" r="6" transform="rotate(0,34,322)"/><circle cx="34" cy="370" r="6" transform="rotate(0,34,370)"/><circle cx="46" cy="130" r="6" transform="rotate(0,46,130)"/><circle cx="46" cy="142" r="6" transform="rotate(0,46,142)"/><circle cx="46" cy="202" r="6" transform="rotate(0,46,202)"/><circle cx="46" cy="238" r="6" transform="rotate(0,46,238)"/><circle cx="46" cy="250" r="6" transform="rotate(0,46,250)"/><circle cx="46" cy="298" r="6" transform="rotate(0,46,298)"/><circle cx="46" cy="310" r="6" transform="rotate(0,46,310)"/><circle cx="46" cy="322" r="6" transform="rotate(0,46,322)"/><circle cx="58" cy="130" r="6" transform="rotate(0,58,130)"/><circle cx="58" cy="142" r="6" transform="rotate(0,58,142)"/><circle cx="58" cy="154" r="6" transform="rotate(0,58,154)"/><circle cx="58" cy="166" r="6" transform="rotate(0,58,166)"/><circle cx="58" cy="202" r="6" transform="rotate(0,58,202)"/><circle cx="58" cy="214" r="6" transform="rotate(0,58,214)"/><circle cx="58" cy="226" r="6" transform="rotate(0,58,226)"/><circle cx="58" cy="262" r="6" transform="rotate(0,58,262)"/><circle cx="58" cy="298" r="6" transform="rotate(0,58,298)"/><circle cx="58" cy="310" r="6" transform="rotate(0,58,310)"/><circle cx="58" cy="322" r="6" transform="rotate(0,58,322)"/><circle cx="58" cy="334" r="6" transform="rotate(0,58,334)"/><circle cx="58" cy="346" r="6" transform="rotate(0,58,346)"/><circle cx="58" cy="358" r="6" transform="rotate(0,58,358)"/><circle cx="58" cy="370" r="6" transform="rotate(0,58,370)"/><circle cx="70" cy="154" r="6" transform="rotate(0,70,154)"/><circle cx="70" cy="178" r="6" transform="rotate(0,70,178)"/><circle cx="70" cy="214" r="6" transform="rotate(0,70,214)"/><circle cx="70" cy="226" r="6" transform="rotate(0,70,226)"/><circle cx="70" cy="238" r="6" transform="rotate(0,70,238)"/><circle cx="70" cy="250" r="6" transform="rotate(0,70,250)"/><circle cx="70" cy="298" r="6" transform="rotate(0,70,298)"/><circle cx="70" cy="310" r="6" transform="rotate(0,70,310)"/><circle cx="70" cy="322" r="6" transform="rotate(0,70,322)"/><circle cx="70" cy="334" r="6" transform="rotate(0,70,334)"/><circle cx="70" cy="346" r="6" transform="rotate(0,70,346)"/><circle cx="82" cy="142" r="6" transform="rotate(0,82,142)"/><circle cx="82" cy="154" r="6" transform="rotate(0,82,154)"/><circle cx="82" cy="178" r="6" transform="rotate(0,82,178)"/><circle cx="82" cy="238" r="6" transform="rotate(0,82,238)"/><circle cx="82" cy="250" r="6" transform="rotate(0,82,250)"/><circle cx="82" cy="286" r="6" transform="rotate(0,82,286)"/><circle cx="82" cy="322" r="6" transform="rotate(0,82,322)"/><circle cx="82" cy="358" r="6" transform="rotate(0,82,358)"/><circle cx="94" cy="142" r="6" transform="rotate(0,94,142)"/><circle cx="94" cy="166" r="6" transform="rotate(0,94,166)"/><circle cx="94" cy="178" r="6" transform="rotate(0,94,178)"/><circle cx="94" cy="190" r="6" transform="rotate(0,94,190)"/><circle cx="94" cy="202" r="6" transform="rotate(0,94,202)"/><circle cx="94" cy="214" r="6" transform="rotate(0,94,214)"/><circle cx="94" cy="238" r="6" transform="rotate(0,94,238)"/><circle cx="94" cy="250" r="6" transform="rotate(0,94,250)"/><circle cx="94" cy="262" r="6" transform="rotate(0,94,262)"/><circle cx="94" cy="274" r="6" transform="rotate(0,94,274)"/><circle cx="94" cy="286" r="6" transform="rotate(0,94,286)"/><circle cx="94" cy="322" r="6" transform="rotate(0,94,322)"/><circle cx="94" cy="334" r="6" transform="rotate(0,94,334)"/><circle cx="94" cy="346" r="6" transform="rotate(0,94,346)"/><circle cx="106" cy="130" r="6" transform="rotate(0,106,130)"/><circle cx="106" cy="154" r="6" transform="rotate(0,106,154)"/><circle cx="106" cy="178" r="6" transform="rotate(0,106,178)"/><circle cx="106" cy="202" r="6" transform="rotate(0,106,202)"/><circle cx="106" cy="226" r="6" transform="rotate(0,106,226)"/><circle cx="106" cy="250" r="6" transform="rotate(0,106,250)"/><circle cx="106" cy="274" r="6" transform="rotate(0,106,274)"/><circle cx="106" cy="298" r="6" transform="rotate(0,106,298)"/><circle cx="106" cy="322" r="6" transform="rotate(0,106,322)"/><circle cx="106" cy="346" r="6" transform="rotate(0,106,346)"/><circle cx="106" cy="370" r="6" transform="rotate(0,106,370)"/><circle cx="118" cy="178" r="6" transform="rotate(0,118,178)"/><circle cx="118" cy="190" r="6" transform="rotate(0,118,190)"/><circle cx="118" cy="214" r="6" transform="rotate(0,118,214)"/><circle cx="118" cy="238" r="6" transform="rotate(0,118,238)"/><circle cx="118" cy="262" r="6" transform="rotate(0,118,262)"/><circle cx="118" cy="298" r="6" transform="rotate(0,118,298)"/><circle cx="118" cy="310" r="6" transform="rotate(0,118,310)"/><circle cx="118" cy="358" r="6" transform="rotate(0,118,358)"/><circle cx="118" cy="370" r="6" transform="rotate(0,118,370)"/><circle cx="130" cy="46" r="6" transform="rotate(0,130,46)"/><circle cx="130" cy="58" r="6" transform="rotate(0,130,58)"/><circle cx="130" cy="70" r="6" transform="rotate(0,130,70)"/><circle cx="130" cy="94" r="6" transform="rotate(0,130,94)"/><circle cx="130" cy="106" r="6" transform="rotate(0,130,106)"/><circle cx="130" cy="154" r="6" transform="rotate(0,130,154)"/><circle cx="130" cy="202" r="6" transform="rotate(0,130,202)"/><circle cx="130" cy="214" r="6" transform="rotate(0,130,214)"/><circle cx="130" cy="226" r="6" transform="rotate(0,130,226)"/><circle cx="130" cy="238" r="6" transform="rotate(0,130,238)"/><circle cx="130" cy="262" r="6" transform="rotate(0,130,262)"/><circle cx="130" cy="286" r="6" transform="rotate(0,130,286)"/><circle cx="130" cy="310" r="6" transform="rotate(0,130,310)"/><circle cx="130" cy="346" r="6" transform="rotate(0,130,346)"/><circle cx="130" cy="358" r="6" transform="rotate(0,130,358)"/><circle cx="130" cy="442" r="6" transform="rotate(0,130,442)"/><circle cx="130" cy="454" r="6" transform="rotate(0,130,454)"/><circle cx="142" cy="70" r="6" transform="rotate(0,142,70)"/><circle cx="142" cy="118" r="6" transform="rotate(0,142,118)"/><circle cx="142" cy="166" r="6" transform="rotate(0,142,166)"/><circle cx="142" cy="178" r="6" transform="rotate(0,142,178)"/><circle cx="142" cy="226" r="6" transform="rotate(0,142,226)"/><circle cx="142" cy="262" r="6" transform="rotate(0,142,262)"/><circle cx="142" cy="274" r="6" transform="rotate(0,142,274)"/><circle cx="142" cy="286" r="6" transform="rotate(0,142,286)"/><circle cx="142" cy="298" r="6" transform="rotate(0,142,298)"/><circle cx="142" cy="310" r="6" transform="rotate(0,142,310)"/><circle cx="142" cy="322" r="6" transform="rotate(0,142,322)"/><circle cx="142" cy="334" r="6" transform="rotate(0,142,334)"/><circle cx="142" cy="346" r="6" transform="rotate(0,142,346)"/><circle cx="142" cy="370" r="6" transform="rotate(0,142,370)"/><circle cx="142" cy="382" r="6" transform="rotate(0,142,382)"/><circle cx="142" cy="406" r="6" transform="rotate(0,142,406)"/><circle cx="142" cy="442" r="6" transform="rotate(0,142,442)"/><circle cx="154" cy="70" r="6" transform="rotate(0,154,70)"/><circle cx="154" cy="82" r="6" transform="rotate(0,154,82)"/><circle cx="154" cy="106" r="6" transform="rotate(0,154,106)"/><circle cx="154" cy="142" r="6" transform="rotate(0,154,142)"/><circle cx="154" cy="166" r="6" transform="rotate(0,154,166)"/><circle cx="154" cy="178" r="6" transform="rotate(0,154,178)"/><circle cx="154" cy="214" r="6" transform="rotate(0,154,214)"/><circle cx="154" cy="226" r="6" transform="rotate(0,154,226)"/><circle cx="154" cy="250" r="6" transform="rotate(0,154,250)"/><circle cx="154" cy="262" r="6" transform="rotate(0,154,262)"/><circle cx="154" cy="310" r="6" transform="rotate(0,154,310)"/><circle cx="154" cy="322" r="6" transform="rotate(0,154,322)"/><circle cx="154" cy="334" r="6" transform="rotate(0,154,334)"/><circle cx="154" cy="382" r="6" transform="rotate(0,154,382)"/><circle cx="154" cy="430" r="6" transform="rotate(0,154,430)"/><circle cx="166" cy="58" r="6" transform="rotate(0,166,58)"/><circle cx="166" cy="82" r="6" transform="rotate(0,166,82)"/><circle cx="166" cy="130" r="6" transform="rotate(0,166,130)"/><circle cx="166" cy="142" r="6" transform="rotate(0,166,142)"/><circle cx="166" cy="154" r="6" transform="rotate(0,166,154)"/><circle cx="166" cy="166" r="6" transform="rotate(0,166,166)"/><circle cx="166" cy="178" r="6" transform="rotate(0,166,178)"/><circle cx="166" cy="190" r="6" transform="rotate(0,166,190)"/><circle cx="166" cy="202" r="6" transform="rotate(0,166,202)"/><circle cx="166" cy="226" r="6" transform="rotate(0,166,226)"/><circle cx="166" cy="250" r="6" transform="rotate(0,166,250)"/><circle cx="166" cy="262" r="6" transform="rotate(0,166,262)"/><circle cx="166" cy="274" r="6" transform="rotate(0,166,274)"/><circle cx="166" cy="310" r="6" transform="rotate(0,166,310)"/><circle cx="166" cy="334" r="6" transform="rotate(0,166,334)"/><circle cx="166" cy="346" r="6" transform="rotate(0,166,346)"/><circle cx="166" cy="406" r="6" transform="rotate(0,166,406)"/><circle cx="166" cy="430" r="6" transform="rotate(0,166,430)"/><circle cx="166" cy="442" r="6" transform="rotate(0,166,442)"/><circle cx="166" cy="454" r="6" transform="rotate(0,166,454)"/><circle cx="178" cy="94" r="6" transform="rotate(0,178,94)"/><circle cx="178" cy="106" r="6" transform="rotate(0,178,106)"/><circle cx="178" cy="118" r="6" transform="rotate(0,178,118)"/><circle cx="178" cy="154" r="6" transform="rotate(0,178,154)"/><circle cx="178" cy="178" r="6" transform="rotate(0,178,178)"/><circle cx="178" cy="190" r="6" transform="rotate(0,178,190)"/><circle cx="178" cy="262" r="6" transform="rotate(0,178,262)"/><circle cx="178" cy="298" r="6" transform="rotate(0,178,298)"/><circle cx="178" cy="322" r="6" transform="rotate(0,178,322)"/><circle cx="178" cy="334" r="6" transform="rotate(0,178,334)"/><circle cx="178" cy="346" r="6" transform="rotate(0,178,346)"/><circle cx="178" cy="358" r="6" transform="rotate(0,178,358)"/><circle cx="178" cy="382" r="6" transform="rotate(0,178,382)"/><circle cx="178" cy="394" r="6" transform="rotate(0,178,394)"/><circle cx="178" cy="418" r="6" transform="rotate(0,178,418)"/><circle cx="178" cy="442" r="6" transform="rotate(0,178,442)"/><circle cx="190" cy="46" r="6" transform="rotate(0,190,46)"/><circle cx="190" cy="58" r="6" transform="rotate(0,190,58)"/><circle cx="190" cy="82" r="6" transform="rotate(0,190,82)"/><circle cx="190" cy="94" r="6" transform="rotate(0,190,94)"/><circle cx="190" cy="118" r="6" transform="rotate(0,190,118)"/><circle cx="190" cy="130" r="6" transform="rotate(0,190,130)"/><circle cx="190" cy="142" r="6" transform="rotate(0,190,142)"/><circle cx="190" cy="166" r="6" transform="rotate(0,190,166)"/><circle cx="190" cy="190" r="6" transform="rotate(0,190,190)"/><circle cx="190" cy="202" r="6" transform="rotate(0,190,202)"/><circle cx="190" cy="238" r="6" transform="rotate(0,190,238)"/><circle cx="190" cy="250" r="6" transform="rotate(0,190,250)"/><circle cx="190" cy="262" r="6" transform="rotate(0,190,262)"/><circle cx="190" cy="274" r="6" transform="rotate(0,190,274)"/><circle cx="190" cy="286" r="6" transform="rotate(0,190,286)"/><circle cx="190" cy="322" r="6" transform="rotate(0,190,322)"/><circle cx="190" cy="346" r="6" transform="rotate(0,190,346)"/><circle cx="190" cy="358" r="6" transform="rotate(0,190,358)"/><circle cx="190" cy="370" r="6" transform="rotate(0,190,370)"/><circle cx="190" cy="394" r="6" transform="rotate(0,190,394)"/><circle cx="190" cy="406" r="6" transform="rotate(0,190,406)"/><circle cx="190" cy="418" r="6" transform="rotate(0,190,418)"/><circle cx="190" cy="442" r="6" transform="rotate(0,190,442)"/><circle cx="190" cy="466" r="6" transform="rotate(0,190,466)"/><circle cx="202" cy="46" r="6" transform="rotate(0,202,46)"/><circle cx="202" cy="106" r="6" transform="rotate(0,202,106)"/><circle cx="202" cy="118" r="6" transform="rotate(0,202,118)"/><circle cx="202" cy="142" r="6" transform="rotate(0,202,142)"/><circle cx="202" cy="154" r="6" transform="rotate(0,202,154)"/><circle cx="202" cy="166" r="6" transform="rotate(0,202,166)"/><circle cx="202" cy="178" r="6" transform="rotate(0,202,178)"/><circle cx="202" cy="202" r="6" transform="rotate(0,202,202)"/><circle cx="202" cy="214" r="6" transform="rotate(0,202,214)"/><circle cx="202" cy="226" r="6" transform="rotate(0,202,226)"/><circle cx="202" cy="250" r="6" transform="rotate(0,202,250)"/><circle cx="202" cy="274" r="6" transform="rotate(0,202,274)"/><circle cx="202" cy="286" r="6" transform="rotate(0,202,286)"/><circle cx="202" cy="322" r="6" transform="rotate(0,202,322)"/><circle cx="202" cy="334" r="6" transform="rotate(0,202,334)"/><circle cx="202" cy="346" r="6" transform="rotate(0,202,346)"/><circle cx="202" cy="370" r="6" transform="rotate(0,202,370)"/><circle cx="202" cy="442" r="6" transform="rotate(0,202,442)"/><circle cx="202" cy="454" r="6" transform="rotate(0,202,454)"/><circle cx="214" cy="46" r="6" transform="rotate(0,214,46)"/><circle cx="214" cy="58" r="6" transform="rotate(0,214,58)"/><circle cx="214" cy="70" r="6" transform="rotate(0,214,70)"/><circle cx="214" cy="130" r="6" transform="rotate(0,214,130)"/><circle cx="214" cy="142" r="6" transform="rotate(0,214,142)"/><circle cx="214" cy="166" r="6" transform="rotate(0,214,166)"/><circle cx="214" cy="214" r="6" transform="rotate(0,214,214)"/><circle cx="214" cy="238" r="6" transform="rotate(0,214,238)"/><circle cx="214" cy="250" r="6" transform="rotate(0,214,250)"/><circle cx="214" cy="262" r="6" transform="rotate(0,214,262)"/><circle cx="214" cy="274" r="6" transform="rotate(0,214,274)"/><circle cx="214" cy="346" r="6" transform="rotate(0,214,346)"/><circle cx="214" cy="358" r="6" transform="rotate(0,214,358)"/><circle cx="214" cy="370" r="6" transform="rotate(0,214,370)"/><circle cx="214" cy="394" r="6" transform="rotate(0,214,394)"/><circle cx="214" cy="406" r="6" transform="rotate(0,214,406)"/><circle cx="226" cy="46" r="6" transform="rotate(0,226,46)"/><circle cx="226" cy="70" r="6" transform="rotate(0,226,70)"/><circle cx="226" cy="82" r="6" transform="rotate(0,226,82)"/><circle cx="226" cy="106" r="6" transform="rotate(0,226,106)"/><circle cx="226" cy="142" r="6" transform="rotate(0,226,142)"/><circle cx="226" cy="166" r="6" transform="rotate(0,226,166)"/><circle cx="226" cy="190" r="6" transform="rotate(0,226,190)"/><circle cx="226" cy="202" r="6" transform="rotate(0,226,202)"/><circle cx="226" cy="214" r="6" transform="rotate(0,226,214)"/><circle cx="226" cy="226" r="6" transform="rotate(0,226,226)"/><circle cx="226" cy="274" r="6" transform="rotate(0,226,274)"/><circle cx="226" cy="298" r="6" transform="rotate(0,226,298)"/><circle cx="226" cy="334" r="6" transform="rotate(0,226,334)"/><circle cx="226" cy="406" r="6" transform="rotate(0,226,406)"/><circle cx="226" cy="430" r="6" transform="rotate(0,226,430)"/><circle cx="226" cy="442" r="6" transform="rotate(0,226,442)"/><circle cx="226" cy="466" r="6" transform="rotate(0,226,466)"/><circle cx="238" cy="34" r="6" transform="rotate(0,238,34)"/><circle cx="238" cy="58" r="6" transform="rotate(0,238,58)"/><circle cx="238" cy="82" r="6" transform="rotate(0,238,82)"/><circle cx="238" cy="130" r="6" transform="rotate(0,238,130)"/><circle cx="238" cy="142" r="6" transform="rotate(0,238,142)"/><circle cx="238" cy="166" r="6" transform="rotate(0,238,166)"/><circle cx="238" cy="214" r="6" transform="rotate(0,238,214)"/><circle cx="238" cy="238" r="6" transform="rotate(0,238,238)"/><circle cx="238" cy="250" r="6" transform="rotate(0,238,250)"/><circle cx="238" cy="298" r="6" transform="rotate(0,238,298)"/><circle cx="238" cy="310" r="6" transform="rotate(0,238,310)"/><circle cx="238" cy="334" r="6" transform="rotate(0,238,334)"/><circle cx="238" cy="358" r="6" transform="rotate(0,238,358)"/><circle cx="238" cy="382" r="6" transform="rotate(0,238,382)"/><circle cx="238" cy="394" r="6" transform="rotate(0,238,394)"/><circle cx="238" cy="430" r="6" transform="rotate(0,238,430)"/><circle cx="238" cy="442" r="6" transform="rotate(0,238,442)"/><circle cx="238" cy="466" r="6" transform="rotate(0,238,466)"/><circle cx="250" cy="94" r="6" transform="rotate(0,250,94)"/><circle cx="250" cy="106" r="6" transform="rotate(0,250,106)"/><circle cx="250" cy="130" r="6" transform="rotate(0,250,130)"/><circle cx="250" cy="142" r="6" transform="rotate(0,250,142)"/><circle cx="250" cy="154" r="6" transform="rotate(0,250,154)"/><circle cx="250" cy="178" r="6" transform="rotate(0,250,178)"/><circle cx="250" cy="202" r="6" transform="rotate(0,250,202)"/><circle cx="250" cy="238" r="6" transform="rotate(0,250,238)"/><circle cx="250" cy="250" r="6" transform="rotate(0,250,250)"/><circle cx="250" cy="286" r="6" transform="rotate(0,250,286)"/><circle cx="250" cy="358" r="6" transform="rotate(0,250,358)"/><circle cx="250" cy="370" r="6" transform="rotate(0,250,370)"/><circle cx="250" cy="382" r="6" transform="rotate(0,250,382)"/><circle cx="250" cy="394" r="6" transform="rotate(0,250,394)"/><circle cx="250" cy="406" r="6" transform="rotate(0,250,406)"/><circle cx="250" cy="418" r="6" transform="rotate(0,250,418)"/><circle cx="250" cy="454" r="6" transform="rotate(0,250,454)"/><circle cx="250" cy="466" r="6" transform="rotate(0,250,466)"/><circle cx="262" cy="58" r="6" transform="rotate(0,262,58)"/><circle cx="262" cy="70" r="6" transform="rotate(0,262,70)"/><circle cx="262" cy="82" r="6" transform="rotate(0,262,82)"/><circle cx="262" cy="94" r="6" transform="rotate(0,262,94)"/><circle cx="262" cy="118" r="6" transform="rotate(0,262,118)"/><circle cx="262" cy="154" r="6" transform="rotate(0,262,154)"/><circle cx="262" cy="166" r="6" transform="rotate(0,262,166)"/><circle cx="262" cy="178" r="6" transform="rotate(0,262,178)"/><circle cx="262" cy="190" r="6" transform="rotate(0,262,190)"/><circle cx="262" cy="250" r="6" transform="rotate(0,262,250)"/><circle cx="262" cy="298" r="6" transform="rotate(0,262,298)"/><circle cx="262" cy="346" r="6" transform="rotate(0,262,346)"/><circle cx="262" cy="358" r="6" transform="rotate(0,262,358)"/><circle cx="262" cy="370" r="6" transform="rotate(0,262,370)"/><circle cx="262" cy="382" r="6" transform="rotate(0,262,382)"/><circle cx="262" cy="406" r="6" transform="rotate(0,262,406)"/><circle cx="262" cy="430" r="6" transform="rotate(0,262,430)"/><circle cx="274" cy="58" r="6" transform="rotate(0,274,58)"/><circle cx="274" cy="94" r="6" transform="rotate(0,274,94)"/><circle cx="274" cy="106" r="6" transform="rotate(0,274,106)"/><circle cx="274" cy="142" r="6" transform="rotate(0,274,142)"/><circle cx="274" cy="154" r="6" transform="rotate(0,274,154)"/><circle cx="274" cy="166" r="6" transform="rotate(0,274,166)"/><circle cx="274" cy="178" r="6" transform="rotate(0,274,178)"/><circle cx="274" cy="226" r="6" transform="rotate(0,274,226)"/><circle cx="274" cy="262" r="6" transform="rotate(0,274,262)"/><circle cx="274" cy="286" r="6" transform="rotate(0,274,286)"/><circle cx="274" cy="322" r="6" transform="rotate(0,274,322)"/><circle cx="274" cy="346" r="6" transform="rotate(0,274,346)"/><circle cx="274" cy="358" r="6" transform="rotate(0,274,358)"/><circle cx="274" cy="370" r="6" transform="rotate(0,274,370)"/><circle cx="274" cy="418" r="6" transform="rotate(0,274,418)"/><circle cx="274" cy="466" r="6" transform="rotate(0,274,466)"/><circle cx="286" cy="58" r="6" transform="rotate(0,286,58)"/><circle cx="286" cy="82" r="6" transform="rotate(0,286,82)"/><circle cx="286" cy="94" r="6" transform="rotate(0,286,94)"/><circle cx="286" cy="118" r="6" transform="rotate(0,286,118)"/><circle cx="286" cy="130" r="6" transform="rotate(0,286,130)"/><circle cx="286" cy="142" r="6" transform="rotate(0,286,142)"/><circle cx="286" cy="154" r="6" transform="rotate(0,286,154)"/><circle cx="286" cy="166" r="6" transform="rotate(0,286,166)"/><circle cx="286" cy="178" r="6" transform="rotate(0,286,178)"/><circle cx="286" cy="190" r="6" transform="rotate(0,286,190)"/><circle cx="286" cy="202" r="6" transform="rotate(0,286,202)"/><circle cx="286" cy="238" r="6" transform="rotate(0,286,238)"/><circle cx="286" cy="250" r="6" transform="rotate(0,286,250)"/><circle cx="286" cy="262" r="6" transform="rotate(0,286,262)"/><circle cx="286" cy="274" r="6" transform="rotate(0,286,274)"/><circle cx="286" cy="286" r="6" transform="rotate(0,286,286)"/><circle cx="286" cy="310" r="6" transform="rotate(0,286,310)"/><circle cx="286" cy="406" r="6" transform="rotate(0,286,406)"/><circle cx="286" cy="442" r="6" transform="rotate(0,286,442)"/><circle cx="298" cy="34" r="6" transform="rotate(0,298,34)"/><circle cx="298" cy="58" r="6" transform="rotate(0,298,58)"/><circle cx="298" cy="70" r="6" transform="rotate(0,298,70)"/><circle cx="298" cy="82" r="6" transform="rotate(0,298,82)"/><circle cx="298" cy="94" r="6" transform="rotate(0,298,94)"/><circle cx="298" cy="106" r="6" transform="rotate(0,298,106)"/><circle cx="298" cy="154" r="6" transform="rotate(0,298,154)"/><circle cx="298" cy="202" r="6" transform="rotate(0,298,202)"/><circle cx="298" cy="214" r="6" transform="rotate(0,298,214)"/><circle cx="298" cy="226" r="6" transform="rotate(0,298,226)"/><circle cx="298" cy="238" r="6" transform="rotate(0,298,238)"/><circle cx="298" cy="274" r="6" transform="rotate(0,298,274)"/><circle cx="298" cy="310" r="6" transform="rotate(0,298,310)"/><circle cx="298" cy="322" r="6" transform="rotate(0,298,322)"/><circle cx="298" cy="334" r="6" transform="rotate(0,298,334)"/><circle cx="298" cy="346" r="6" transform="rotate(0,298,346)"/><circle cx="298" cy="418" r="6" transform="rotate(0,298,418)"/><circle cx="298" cy="442" r="6" transform="rotate(0,298,442)"/><circle cx="298" cy="454" r="6" transform="rotate(0,298,454)"/><circle cx="310" cy="34" r="6" transform="rotate(0,310,34)"/><circle cx="310" cy="58" r="6" transform="rotate(0,310,58)"/><circle cx="310" cy="70" r="6" transform="rotate(0,310,70)"/><circle cx="310" cy="142" r="6" transform="rotate(0,310,142)"/><circle cx="310" cy="166" r="6" transform="rotate(0,310,166)"/><circle cx="310" cy="190" r="6" transform="rotate(0,310,190)"/><circle cx="310" cy="238" r="6" transform="rotate(0,310,238)"/><circle cx="310" cy="250" r="6" transform="rotate(0,310,250)"/><circle cx="310" cy="274" r="6" transform="rotate(0,310,274)"/><circle cx="310" cy="298" r="6" transform="rotate(0,310,298)"/><circle cx="310" cy="310" r="6" transform="rotate(0,310,310)"/><circle cx="310" cy="322" r="6" transform="rotate(0,310,322)"/><circle cx="310" cy="334" r="6" transform="rotate(0,310,334)"/><circle cx="310" cy="358" r="6" transform="rotate(0,310,358)"/><circle cx="310" cy="370" r="6" transform="rotate(0,310,370)"/><circle cx="310" cy="382" r="6" transform="rotate(0,310,382)"/><circle cx="310" cy="430" r="6" transform="rotate(0,310,430)"/><circle cx="310" cy="442" r="6" transform="rotate(0,310,442)"/><circle cx="310" cy="454" r="6" transform="rotate(0,310,454)"/><circle cx="322" cy="58" r="6" transform="rotate(0,322,58)"/><circle cx="322" cy="70" r="6" transform="rotate(0,322,70)"/><circle cx="322" cy="106" r="6" transform="rotate(0,322,106)"/><circle cx="322" cy="130" r="6" transform="rotate(0,322,130)"/><circle cx="322" cy="154" r="6" transform="rotate(0,322,154)"/><circle cx="322" cy="166" r="6" transform="rotate(0,322,166)"/><circle cx="322" cy="190" r="6" transform="rotate(0,322,190)"/><circle cx="322" cy="238" r="6" transform="rotate(0,322,238)"/><circle cx="322" cy="250" r="6" transform="rotate(0,322,250)"/><circle cx="322" cy="298" r="6" transform="rotate(0,322,298)"/><circle cx="322" cy="310" r="6" transform="rotate(0,322,310)"/><circle cx="322" cy="334" r="6" transform="rotate(0,322,334)"/><circle cx="322" cy="346" r="6" transform="rotate(0,322,346)"/><circle cx="322" cy="370" r="6" transform="rotate(0,322,370)"/><circle cx="322" cy="382" r="6" transform="rotate(0,322,382)"/><circle cx="322" cy="394" r="6" transform="rotate(0,322,394)"/><circle cx="322" cy="406" r="6" transform="rotate(0,322,406)"/><circle cx="322" cy="418" r="6" transform="rotate(0,322,418)"/><circle cx="322" cy="442" r="6" transform="rotate(0,322,442)"/><circle cx="322" cy="454" r="6" transform="rotate(0,322,454)"/><circle cx="322" cy="466" r="6" transform="rotate(0,322,466)"/><circle cx="334" cy="46" r="6" transform="rotate(0,334,46)"/><circle cx="334" cy="70" r="6" transform="rotate(0,334,70)"/><circle cx="334" cy="82" r="6" transform="rotate(0,334,82)"/><circle cx="334" cy="94" r="6" transform="rotate(0,334,94)"/><circle cx="334" cy="142" r="6" transform="rotate(0,334,142)"/><circle cx="334" cy="166" r="6" transform="rotate(0,334,166)"/><circle cx="334" cy="178" r="6" transform="rotate(0,334,178)"/><circle cx="334" cy="190" r="6" transform="rotate(0,334,190)"/><circle cx="334" cy="250" r="6" transform="rotate(0,334,250)"/><circle cx="334" cy="262" r="6" transform="rotate(0,334,262)"/><circle cx="334" cy="274" r="6" transform="rotate(0,334,274)"/><circle cx="334" cy="298" r="6" transform="rotate(0,334,298)"/><circle cx="334" cy="322" r="6" transform="rotate(0,334,322)"/><circle cx="334" cy="346" r="6" transform="rotate(0,334,346)"/><circle cx="334" cy="358" r="6" transform="rotate(0,334,358)"/><circle cx="334" cy="370" r="6" transform="rotate(0,334,370)"/><circle cx="334" cy="382" r="6" transform="rotate(0,334,382)"/><circle cx="334" cy="394" r="6" transform="rotate(0,334,394)"/><circle cx="334" cy="406" r="6" transform="rotate(0,334,406)"/><circle cx="334" cy="418" r="6" transform="rotate(0,334,418)"/><circle cx="334" cy="454" r="6" transform="rotate(0,334,454)"/><circle cx="334" cy="466" r="6" transform="rotate(0,334,466)"/><circle cx="346" cy="46" r="6" transform="rotate(0,346,46)"/><circle cx="346" cy="58" r="6" transform="rotate(0,346,58)"/><circle cx="346" cy="70" r="6" transform="rotate(0,346,70)"/><circle cx="346" cy="106" r="6" transform="rotate(0,346,106)"/><circle cx="346" cy="118" r="6" transform="rotate(0,346,118)"/><circle cx="346" cy="154" r="6" transform="rotate(0,346,154)"/><circle cx="346" cy="190" r="6" transform="rotate(0,346,190)"/><circle cx="346" cy="202" r="6" transform="rotate(0,346,202)"/><circle cx="346" cy="214" r="6" transform="rotate(0,346,214)"/><circle cx="346" cy="226" r="6" transform="rotate(0,346,226)"/><circle cx="346" cy="262" r="6" transform="rotate(0,346,262)"/><circle cx="346" cy="274" r="6" transform="rotate(0,346,274)"/><circle cx="346" cy="286" r="6" transform="rotate(0,346,286)"/><circle cx="346" cy="298" r="6" transform="rotate(0,346,298)"/><circle cx="346" cy="334" r="6" transform="rotate(0,346,334)"/><circle cx="346" cy="406" r="6" transform="rotate(0,346,406)"/><circle cx="346" cy="430" r="6" transform="rotate(0,346,430)"/><circle cx="346" cy="454" r="6" transform="rotate(0,346,454)"/><circle cx="358" cy="34" r="6" transform="rotate(0,358,34)"/><circle cx="358" cy="58" r="6" transform="rotate(0,358,58)"/><circle cx="358" cy="94" r="6" transform="rotate(0,358,94)"/><circle cx="358" cy="118" r="6" transform="rotate(0,358,118)"/><circle cx="358" cy="178" r="6" transform="rotate(0,358,178)"/><circle cx="358" cy="190" r="6" transform="rotate(0,358,190)"/><circle cx="358" cy="202" r="6" transform="rotate(0,358,202)"/><circle cx="358" cy="226" r="6" transform="rotate(0,358,226)"/><circle cx="358" cy="238" r="6" transform="rotate(0,358,238)"/><circle cx="358" cy="286" r="6" transform="rotate(0,358,286)"/><circle cx="358" cy="346" r="6" transform="rotate(0,358,346)"/><circle cx="358" cy="382" r="6" transform="rotate(0,358,382)"/><circle cx="358" cy="406" r="6" transform="rotate(0,358,406)"/><circle cx="370" cy="82" r="6" transform="rotate(0,370,82)"/><circle cx="370" cy="106" r="6" transform="rotate(0,370,106)"/><circle cx="370" cy="154" r="6" transform="rotate(0,370,154)"/><circle cx="370" cy="214" r="6" transform="rotate(0,370,214)"/><circle cx="370" cy="226" r="6" transform="rotate(0,370,226)"/><circle cx="370" cy="238" r="6" transform="rotate(0,370,238)"/><circle cx="370" cy="262" r="6" transform="rotate(0,370,262)"/><circle cx="370" cy="274" r="6" transform="rotate(0,370,274)"/><circle cx="370" cy="286" r="6" transform="rotate(0,370,286)"/><circle cx="370" cy="298" r="6" transform="rotate(0,370,298)"/><circle cx="370" cy="310" r="6" transform="rotate(0,370,310)"/><circle cx="370" cy="334" r="6" transform="rotate(0,370,334)"/><circle cx="370" cy="370" r="6" transform="rotate(0,370,370)"/><circle cx="370" cy="382" r="6" transform="rotate(0,370,382)"/><circle cx="370" cy="394" r="6" transform="rotate(0,370,394)"/><circle cx="370" cy="406" r="6" transform="rotate(0,370,406)"/><circle cx="370" cy="418" r="6" transform="rotate(0,370,418)"/><circle cx="370" cy="430" r="6" transform="rotate(0,370,430)"/><circle cx="370" cy="442" r="6" transform="rotate(0,370,442)"/><circle cx="370" cy="454" r="6" transform="rotate(0,370,454)"/><circle cx="382" cy="130" r="6" transform="rotate(0,382,130)"/><circle cx="382" cy="154" r="6" transform="rotate(0,382,154)"/><circle cx="382" cy="166" r="6" transform="rotate(0,382,166)"/><circle cx="382" cy="190" r="6" transform="rotate(0,382,190)"/><circle cx="382" cy="214" r="6" transform="rotate(0,382,214)"/><circle cx="382" cy="226" r="6" transform="rotate(0,382,226)"/><circle cx="382" cy="262" r="6" transform="rotate(0,382,262)"/><circle cx="382" cy="298" r="6" transform="rotate(0,382,298)"/><circle cx="382" cy="310" r="6" transform="rotate(0,382,310)"/><circle cx="382" cy="322" r="6" transform="rotate(0,382,322)"/><circle cx="382" cy="334" r="6" transform="rotate(0,382,334)"/><circle cx="382" cy="370" r="6" transform="rotate(0,382,370)"/><circle cx="382" cy="418" r="6" transform="rotate(0,382,418)"/><circle cx="382" cy="430" r="6" transform="rotate(0,382,430)"/><circle cx="382" cy="442" r="6" transform="rotate(0,382,442)"/><circle cx="382" cy="466" r="6" transform="rotate(0,382,466)"/><circle cx="394" cy="142" r="6" transform="rotate(0,394,142)"/><circle cx="394" cy="190" r="6" transform="rotate(0,394,190)"/><circle cx="394" cy="202" r="6" transform="rotate(0,394,202)"/><circle cx="394" cy="238" r="6" transform="rotate(0,394,238)"/><circle cx="394" cy="250" r="6" transform="rotate(0,394,250)"/><circle cx="394" cy="262" r="6" transform="rotate(0,394,262)"/><circle cx="394" cy="274" r="6" transform="rotate(0,394,274)"/><circle cx="394" cy="286" r="6" transform="rotate(0,394,286)"/><circle cx="394" cy="334" r="6" transform="rotate(0,394,334)"/><circle cx="394" cy="370" r="6" transform="rotate(0,394,370)"/><circle cx="394" cy="394" r="6" transform="rotate(0,394,394)"/><circle cx="394" cy="418" r="6" transform="rotate(0,394,418)"/><circle cx="394" cy="430" r="6" transform="rotate(0,394,430)"/><circle cx="394" cy="466" r="6" transform="rotate(0,394,466)"/><circle cx="406" cy="130" r="6" transform="rotate(0,406,130)"/><circle cx="406" cy="166" r="6" transform="rotate(0,406,166)"/><circle cx="406" cy="214" r="6" transform="rotate(0,406,214)"/><circle cx="406" cy="238" r="6" transform="rotate(0,406,238)"/><circle cx="406" cy="250" r="6" transform="rotate(0,406,250)"/><circle cx="406" cy="262" r="6" transform="rotate(0,406,262)"/><circle cx="406" cy="274" r="6" transform="rotate(0,406,274)"/><circle cx="406" cy="298" r="6" transform="rotate(0,406,298)"/><circle cx="406" cy="310" r="6" transform="rotate(0,406,310)"/><circle cx="406" cy="358" r="6" transform="rotate(0,406,358)"/><circle cx="406" cy="370" r="6" transform="rotate(0,406,370)"/><circle cx="406" cy="418" r="6" transform="rotate(0,406,418)"/><circle cx="406" cy="430" r="6" transform="rotate(0,406,430)"/><circle cx="406" cy="454" r="6" transform="rotate(0,406,454)"/><circle cx="406" cy="466" r="6" transform="rotate(0,406,466)"/><circle cx="418" cy="154" r="6" transform="rotate(0,418,154)"/><circle cx="418" cy="202" r="6" transform="rotate(0,418,202)"/><circle cx="418" cy="214" r="6" transform="rotate(0,418,214)"/><circle cx="418" cy="238" r="6" transform="rotate(0,418,238)"/><circle cx="418" cy="250" r="6" transform="rotate(0,418,250)"/><circle cx="418" cy="298" r="6" transform="rotate(0,418,298)"/><circle cx="418" cy="310" r="6" transform="rotate(0,418,310)"/><circle cx="418" cy="322" r="6" transform="rotate(0,418,322)"/><circle cx="418" cy="346" r="6" transform="rotate(0,418,346)"/><circle cx="418" cy="370" r="6" transform="rotate(0,418,370)"/><circle cx="418" cy="382" r="6" transform="rotate(0,418,382)"/><circle cx="418" cy="394" r="6" transform="rotate(0,418,394)"/><circle cx="418" cy="406" r="6" transform="rotate(0,418,406)"/><circle cx="418" cy="418" r="6" transform="rotate(0,418,418)"/><circle cx="418" cy="430" r="6" transform="rotate(0,418,430)"/><circle cx="430" cy="130" r="6" transform="rotate(0,430,130)"/><circle cx="430" cy="154" r="6" transform="rotate(0,430,154)"/><circle cx="430" cy="190" r="6" transform="rotate(0,430,190)"/><circle cx="430" cy="202" r="6" transform="rotate(0,430,202)"/><circle cx="430" cy="226" r="6" transform="rotate(0,430,226)"/><circle cx="430" cy="238" r="6" transform="rotate(0,430,238)"/><circle cx="430" cy="274" r="6" transform="rotate(0,430,274)"/><circle cx="430" cy="298" r="6" transform="rotate(0,430,298)"/><circle cx="430" cy="310" r="6" transform="rotate(0,430,310)"/><circle cx="430" cy="334" r="6" transform="rotate(0,430,334)"/><circle cx="430" cy="346" r="6" transform="rotate(0,430,346)"/><circle cx="430" cy="394" r="6" transform="rotate(0,430,394)"/><circle cx="430" cy="418" r="6" transform="rotate(0,430,418)"/><circle cx="430" cy="430" r="6" transform="rotate(0,430,430)"/><circle cx="430" cy="442" r="6" transform="rotate(0,430,442)"/><circle cx="430" cy="454" r="6" transform="rotate(0,430,454)"/><circle cx="442" cy="130" r="6" transform="rotate(0,442,130)"/><circle cx="442" cy="142" r="6" transform="rotate(0,442,142)"/><circle cx="442" cy="154" r="6" transform="rotate(0,442,154)"/><circle cx="442" cy="166" r="6" transform="rotate(0,442,166)"/><circle cx="442" cy="202" r="6" transform="rotate(0,442,202)"/><circle cx="442" cy="226" r="6" transform="rotate(0,442,226)"/><circle cx="442" cy="238" r="6" transform="rotate(0,442,238)"/><circle cx="442" cy="262" r="6" transform="rotate(0,442,262)"/><circle cx="442" cy="274" r="6" transform="rotate(0,442,274)"/><circle cx="442" cy="298" r="6" transform="rotate(0,442,298)"/><circle cx="442" cy="310" r="6" transform="rotate(0,442,310)"/><circle cx="442" cy="322" r="6" transform="rotate(0,442,322)"/><circle cx="442" cy="358" r="6" transform="rotate(0,442,358)"/><circle cx="442" cy="370" r="6" transform="rotate(0,442,370)"/><circle cx="442" cy="394" r="6" transform="rotate(0,442,394)"/><circle cx="442" cy="406" r="6" transform="rotate(0,442,406)"/><circle cx="442" cy="418" r="6" transform="rotate(0,442,418)"/><circle cx="442" cy="430" r="6" transform="rotate(0,442,430)"/><circle cx="442" cy="442" r="6" transform="rotate(0,442,442)"/><circle cx="442" cy="454" r="6" transform="rotate(0,442,454)"/><circle cx="454" cy="130" r="6" transform="rotate(0,454,130)"/><circle cx="454" cy="154" r="6" transform="rotate(0,454,154)"/><circle cx="454" cy="166" r="6" transform="rotate(0,454,166)"/><circle cx="454" cy="178" r="6" transform="rotate(0,454,178)"/><circle cx="454" cy="202" r="6" transform="rotate(0,454,202)"/><circle cx="454" cy="214" r="6" transform="rotate(0,454,214)"/><circle cx="454" cy="226" r="6" transform="rotate(0,454,226)"/><circle cx="454" cy="238" r="6" transform="rotate(0,454,238)"/><circle cx="454" cy="274" r="6" transform="rotate(0,454,274)"/><circle cx="454" cy="298" r="6" transform="rotate(0,454,298)"/><circle cx="454" cy="322" r="6" transform="rotate(0,454,322)"/><circle cx="454" cy="334" r="6" transform="rotate(0,454,334)"/><circle cx="454" cy="406" r="6" transform="rotate(0,454,406)"/><circle cx="454" cy="442" r="6" transform="rotate(0,454,442)"/><circle cx="466" cy="166" r="6" transform="rotate(0,466,166)"/><circle cx="466" cy="202" r="6" transform="rotate(0,466,202)"/><circle cx="466" cy="226" r="6" transform="rotate(0,466,226)"/><circle cx="466" cy="238" r="6" transform="rotate(0,466,238)"/><circle cx="466" cy="262" r="6" transform="rotate(0,466,262)"/><circle cx="466" cy="298" r="6" transform="rotate(0,466,298)"/><circle cx="466" cy="322" r="6" transform="rotate(0,466,322)"/><circle cx="466" cy="334" r="6" transform="rotate(0,466,334)"/><circle cx="466" cy="346" r="6" transform="rotate(0,466,346)"/><circle cx="466" cy="406" r="6" transform="rotate(0,466,406)"/><circle cx="466" cy="430" r="6" transform="rotate(0,466,430)"/><circle cx="466" cy="442" r="6" transform="rotate(0,466,442)"/><circle cx="466" cy="454" r="6" transform="rotate(0,466,454)"/><circle cx="466" cy="466" r="6" transform="rotate(0,466,466)"/></clipPath><clipPath id="clip-path-corners-square-color-0-0"><path clip-rule="evenodd" d="M 70 28a 42 42 0 1 0 0.1 0zm 0 12a 30 30 0 1 1 -0.1 0Z" transform="rotate(0,70,70)"/></clipPath><clipPath id="clip-path-corners-dot-color-0-0"><circle cx="70" cy="70" r="18" transform="rotate(0,70,70)"/></clipPath><clipPath id="clip-path-corners-square-color-1-0"><path clip-rule="evenodd" d="M 430 28a 42 42 0 1 0 0.1 0zm 0 12a 30 30 0 1 1 -0.1 0Z" transform="rotate(90,430,70)"/></clipPath><clipPath id="clip-path-corners-dot-color-1-0"><circle cx="430" cy="70" r="18" transform="rotate(90,430,70)"/></clipPath><clipPath id="clip-path-corners-square-color-0-1"><path clip-rule="evenodd" d="M 70 388a 42 42 0 1 0 0.1 0zm 0 12a 30 30 0 1 1 -0.1 0Z" transform="rotate(-90,70,430)"/></clipPath><clipPath id="clip-path-corners-dot-color-0-1"><circle cx="70" cy="430" r="18" transform="rotate(-90,70,430)"/></clipPath></defs><rect x="0" y="0" height="500" width="500" clip-path="url('#clip-path-background-color')" fill="#fff"/><rect x="0" y="0" height="500" width="500" clip-path="url('#clip-path-dot-color')" fill="#000000"/><rect x="28" y="28" height="84" width="84" clip-path="url('#clip-path-corners-square-color-0-0')" fill="#000000"/><rect x="52" y="52" height="36" width="36" clip-path="url('#clip-path-corners-dot-color-0-0')" fill="#000000"/><rect x="388" y="28" height="84" width="84" clip-path="url('#clip-path-corners-square-color-1-0')" fill="#000000"/><rect x="412" y="52" height="36" width="36" clip-path="url('#clip-path-corners-dot-color-1-0')" fill="#000000"/><rect x="28" y="388" height="84" width="84" clip-path="url('#clip-path-corners-square-color-0-1')" fill="#000000"/><rect x="52" y="412" height="36" width="36" clip-path="url('#clip-path-corners-dot-color-0-1')" fill="#000000"/></svg>